<?xml version="1.0" encoding="UTF-8"?><svg id="Calque_1" xmlns="http://www.w3.org/2000/svg" viewBox="0 0 428.4 75.79"><defs><style>.cls-1{fill:none;}.cls-1,.cls-2,.cls-3,.cls-4{stroke:#000;stroke-miterlimit:10;stroke-width:.96px;}.cls-2{fill:#6d46a4;}.cls-5{stroke-width:0px;}.cls-3{fill:#fdfdfd;}.cls-4{fill:#fff;}</style></defs><path class="cls-5" d="m2.67,26.77c0-9.37,7.87-17.23,17.11-17.23,4.62,0,8.89,1.94,12,5.1l-2.57,2.62c-2.43-2.57-5.78-4.22-9.43-4.22-7.19,0-13.27,6.32-13.27,13.74s6.08,13.78,13.27,13.78c3.65,0,7-1.65,9.43-4.22l2.57,2.62c-3.11,3.11-7.38,5.1-12,5.1-9.24-.02-17.11-7.93-17.11-17.3Z"/><path class="cls-5" d="m35.71,26.77c0-9.37,7.87-17.23,17.11-17.23,4.62,0,8.89,1.94,12,5.1l-2.57,2.62c-2.43-2.57-5.79-4.22-9.43-4.22-7.19,0-13.27,6.32-13.27,13.74s6.08,13.78,13.27,13.78c3.65,0,7-1.65,9.43-4.22l2.57,2.62c-3.11,3.11-7.38,5.1-12,5.1-9.24-.02-17.11-7.93-17.11-17.3Z"/><path class="cls-5" d="m70.06,10.13h3.79v33.33h-3.79V10.13Z"/><path class="cls-5" d="m203.96,35.03c-1.5,1.59-3.54,2.51-5.59,2.51-4.27,0-7.89-3.77-7.89-8.24s3.61-8.2,7.89-8.2c2.05,0,4.09.92,5.59,2.51l.68.73,3.08-3.14-.67-.67c-2.36-2.38-5.44-3.68-8.69-3.68-6.7,0-12.35,5.7-12.35,12.44s5.65,12.48,12.35,12.51c3.18,0,6.34-1.34,8.69-3.68l.67-.67-3.08-3.14-.68.73Z"/><path class="cls-5" d="m219.91,16.84c-6.7,0-12.35,5.7-12.35,12.44s5.66,12.48,12.35,12.48,12.32-5.71,12.32-12.48-5.64-12.44-12.32-12.44Zm7.87,12.44c0,4.47-3.6,8.24-7.85,8.24s-7.89-3.77-7.89-8.24,3.61-8.2,7.89-8.2,7.85,3.76,7.85,8.2Z"/><polygon class="cls-5" points="245.22 34.95 237.38 17.24 232.55 17.24 243.21 41.38 247.2 41.38 257.86 17.24 253.02 17.24 245.22 34.95"/><path class="cls-5" d="m270.51,16.84c-6.7,0-12.35,5.7-12.35,12.44s5.66,12.48,12.35,12.48,12.32-5.71,12.32-12.48-5.64-12.44-12.32-12.44Zm7.85,12.44c0,4.47-3.6,8.24-7.85,8.24s-7.88-3.77-7.88-8.24,3.61-8.2,7.88-8.2,7.85,3.76,7.85,8.2Z"/><rect class="cls-5" x="285.17" y="17.24" width="4.43" height="24.14"/><polygon class="cls-5" points="291.71 21.55 299.2 21.55 299.2 41.38 303.63 41.38 303.63 21.55 311.12 21.55 311.12 17.24 291.71 17.24 291.71 21.55"/><path class="cls-5" d="m329.53,31.19c0,3.74-2.39,6.35-5.82,6.35s-5.82-2.61-5.82-6.35v-13.97h-4.43v13.97c0,6.12,4.31,10.57,10.25,10.57s10.25-4.44,10.25-10.57v-13.97h-4.43v13.97Z"/><path class="cls-5" d="m367.07,17.24l-10.38,23.51-5.61-8c3.32-1.21,5.47-4.06,5.47-7.44,0-4.6-3.94-8.07-9.16-8.07h-9.99v24.14h4.45v-8h4.44l5.63,8h9.33l2.24-5.05h11.16l2.24,5.05h4.84l-10.66-24.14h-3.99Zm-25.24,4.31h5.11c3.22,0,5.14,1.41,5.14,3.76,0,2.77-2.66,3.76-5.14,3.76h-5.11v-7.52Zm23.57,10.47l3.7-8.35,3.68,8.35h-7.38Z"/><path class="cls-5" d="m393.77,21.12c2.24,0,4.87,1.06,6.23,2.51l.68.73,3.08-3.14-.66-.67c-2.17-2.21-5.92-3.69-9.33-3.69-6.7,0-12.35,5.7-12.35,12.44s5.66,12.48,12.35,12.48c3.38,0,7.12-1.48,9.33-3.68l.28-.28v-10.06h-10.83v4.34h6.38v3.86c-1.47.98-3.45,1.6-5.16,1.6-4.28,0-7.89-3.77-7.89-8.24s3.61-8.2,7.89-8.2Z"/><polygon class="cls-5" points="424.3 21.55 424.3 17.24 406.42 17.24 406.42 41.38 424.3 41.38 424.3 37.07 410.89 37.07 410.89 31.25 422.98 31.25 422.98 26.94 410.89 26.94 410.89 21.55 424.3 21.55"/><path class="cls-5" d="m175.78,67.29h-7.58l-1.36,2.95h-1.67l6-12.96h1.67l6,12.96h-1.67l-1.38-2.95Zm-.62-1.39l-3.14-6.82-3.16,6.82h6.3Z"/><path class="cls-5" d="m189.75,68.85v1.41h-8.96v-12.96h1.54v11.57h7.41v-.02Z"/><path class="cls-5" d="m191.33,68.38l.96-1.15c1.14,1.09,2.54,1.87,4.45,1.87,2.09,0,3.16-1.09,3.16-2.27,0-1.37-1.29-1.93-3.65-2.45-2.73-.61-4.45-1.42-4.45-3.66,0-2.08,1.94-3.7,4.54-3.7,2.02,0,3.52.76,4.76,1.86l-.94,1.15c-1.13-1.04-2.47-1.67-3.89-1.67-1.67,0-2.91,1.06-2.91,2.24,0,1.34,1.34,1.8,3.65,2.34,2.6.59,4.45,1.47,4.45,3.77,0,2.06-1.62,3.73-4.78,3.73-2.23,0-4-.76-5.36-2.06Z"/><path class="cls-5" d="m213.79,67.29h-7.58l-1.36,2.95h-1.67l6-12.96h1.67l6,12.96h-1.67l-1.38-2.95Zm-.64-1.39l-3.14-6.82-3.16,6.82h6.3Z"/><path class="cls-5" d="m218.49,63.75c0-3.64,3.2-6.7,6.96-6.7,1.87,0,3.62.76,4.89,1.98l-1.05,1.02c-.98-1.01-2.34-1.65-3.83-1.65-2.92,0-5.4,2.45-5.4,5.34s2.47,5.36,5.4,5.36c1.49,0,2.85-.64,3.83-1.65l1.05,1.02c-1.27,1.21-3,1.98-4.89,1.98-3.76,0-6.96-3.07-6.96-6.71Z"/><path class="cls-5" d="m234.03,58.66v4.27h7.38v1.41h-7.38v4.51h8.18v1.41h-9.74v-12.96h9.74v1.41h-8.18v-.03Z"/><path class="cls-2" d="m110.31,13.9s4.88-12.58,9.99-13.15h30.19s5.23,1.02,9.87,13.15c0,0,1.25-.8,1.13-1.25-.12-.45.12.45.12.45,0,0-.8-2.83,1.58-2.6l3.63.35s2.15,1.93,0,2.38c0,0-1.36.68-3.18.68,0,0-1.36.68-.68,1.35,0,0,2.27.8,2.15,1.47l2.15,4.88.5,18.83-.63,1.02v3.28l-1.02,1.93h-7.84l-.12-3.28-45.07-.35-.07,3.63h-8.74l-1.25-6.8v-17.58l2.05-4.65s1.25-2.5,2.95-2.27c0,0,.9-.57-.68-1.25l-3.75-.8s-1.48-2.15.9-2.5l3.28-.23s1.7.12,1.58,1.47c.02.02.02,1.61.92,1.84Z"/><path class="cls-3" d="m122,2.44s-5.68,1.13-9.76,13.83h46.31s-3.18-12.13-9.42-13.83h-27.14Z"/><path class="cls-4" d="m106.45,19.78l11.12,4.65s0,2.95-4.76,3.18c0,0-2.95-.35-7.71-3.9-.02,0,0-4.48,1.36-3.92Z"/><path class="cls-4" d="m153.09,24.55l11.08-4.81s1.75-.07,1.18,4.13c0,0-2.73,2.5-4.43,2.95,0-.02-5.68,2.6-7.83-2.27Z"/><path class="cls-1" d="m123.35,6.07s2.83-4.88,5.68,0v3.28s-2.38,4.88-5.68,0v-3.28Z"/><path class="cls-1" d="m124.15,11.52s-3.53-.12-4.2,3.61h12.37s.45-3.61-3.86-3.61c0,0-1.81,2.17-4.31,0Z"/><path class="cls-1" d="m142.53,11.52s-3.53-.12-4.2,3.61h12.37s.45-3.61-3.86-3.61c.02,0-1.81,2.17-4.31,0Z"/><path class="cls-1" d="m141.7,6.07s2.83-4.88,5.68,0v3.28s-2.38,4.88-5.68,0v-3.28Z"/><path class="cls-4" d="m146.24,29.7h-21.51v1.2h21.51v-1.2Z"/><path class="cls-4" d="m146.24,31.58h-21.51v1.2h21.51v-1.2Z"/><path class="cls-4" d="m146.24,33.68h-21.51v1.2h21.51v-1.2Z"/><path class="cls-1" d="m257.99,66.87h164.03"/><path class="cls-1" d="m2.67,66.87h150.81"/></svg>