<svg width="52" height="56" viewBox="0 0 52 56" fill="none" xmlns="http://www.w3.org/2000/svg">
<g clip-path="url(#clip0_202_2852)" filter="url(#filter0_d_202_2852)">
<path d="M47.5208 33.4704C47.5208 34.1379 46.9208 34.424 46.2208 34.7101C43.4208 35.8544 40.4208 36.9033 37.2208 36.9033C32.7208 36.9033 30.6208 34.2333 25.2208 34.2333C21.3208 34.2333 17.2208 35.5683 13.9208 36.9986C13.7208 37.094 13.5208 37.094 13.3208 37.1894V44.4365C13.3208 46.4298 11.7464 47.6787 10.0208 47.6787C8.12078 47.6787 6.62078 46.2483 6.62078 44.4365V9.53573C5.32078 8.58216 4.42078 7.05644 4.42078 5.34001C4.42078 2.38393 6.92078 0 10.0208 0C13.1208 0 15.6208 2.38393 15.6208 5.34001C15.6208 7.05644 14.8208 8.58216 13.4208 9.53573V12.4918C13.8235 12.3639 19.1598 9.82181 24.6208 9.82181C30.9948 9.82181 34.1594 12.3965 37.0208 12.3965C40.8208 12.3965 45.0208 9.82181 46.0208 9.82181C46.8208 9.82181 47.5208 10.3939 47.5208 11.0615V33.4704Z" fill="#4CB53B"/>
</g>
<defs>
<filter id="filter0_d_202_2852" x="-3" y="0" width="58" height="55.6787" filterUnits="userSpaceOnUse" color-interpolation-filters="sRGB">
<feFlood flood-opacity="0" result="BackgroundImageFix"/>
<feColorMatrix in="SourceAlpha" type="matrix" values="0 0 0 0 0 0 0 0 0 0 0 0 0 0 0 0 0 0 127 0" result="hardAlpha"/>
<feOffset dy="4"/>
<feGaussianBlur stdDeviation="2"/>
<feComposite in2="hardAlpha" operator="out"/>
<feColorMatrix type="matrix" values="0 0 0 0 0 0 0 0 0 0 0 0 0 0 0 0 0 0 0.25 0"/>
<feBlend mode="normal" in2="BackgroundImageFix" result="effect1_dropShadow_202_2852"/>
<feBlend mode="normal" in="SourceGraphic" in2="effect1_dropShadow_202_2852" result="shape"/>
</filter>
<clipPath id="clip0_202_2852">
<rect width="50" height="47.6787" fill="white" transform="translate(1)"/>
</clipPath>
</defs>
</svg>
