<svg width="251" height="51" viewBox="0 0 251 51" fill="none" xmlns="http://www.w3.org/2000/svg">
<path d="M1.42017 15.5653C1.42017 10.3222 5.824 5.92383 10.9958 5.92383C13.5817 5.92383 15.9732 7.01128 17.7134 8.7784L16.2746 10.2445C14.9136 8.80753 13.0373 7.88514 10.9958 7.88514C6.97114 7.88514 3.56861 11.4194 3.56861 15.575C3.56861 19.7598 6.97114 23.2843 10.9958 23.2843C13.0373 23.2843 14.9136 22.3619 16.2746 20.9249L17.7134 22.391C15.9732 24.129 13.5817 25.2456 10.9958 25.2456C5.824 25.2359 1.42017 20.8084 1.42017 15.5653Z" fill="black"/>
<path d="M19.9103 15.5653C19.9103 10.3222 24.3141 5.92383 29.4859 5.92383C32.0719 5.92383 34.4633 7.01128 36.2035 8.7784L34.7647 10.2445C33.4037 8.80753 31.5275 7.88514 29.4859 7.88514C25.4612 7.88514 22.0587 11.4194 22.0587 15.575C22.0587 19.7598 25.4612 23.2843 29.4859 23.2843C31.5275 23.2843 33.4037 22.3619 34.7647 20.9249L36.2035 22.391C34.4633 24.129 32.0719 25.2456 29.4859 25.2456C24.3141 25.2359 19.9103 20.8084 19.9103 15.5653Z" fill="black"/>
<path d="M39.1284 6.25439H41.2477V24.9062H39.1284V6.25439Z" fill="black"/>
<path d="M104.554 16.9718C104.554 13.4764 107.49 10.5442 110.931 10.5442C112.652 10.5442 114.246 11.2724 115.413 12.4472L114.45 13.4279C113.546 12.4667 112.292 11.855 110.931 11.855C108.248 11.855 105.983 14.2046 105.983 16.9815C105.983 19.7682 108.248 22.1276 110.931 22.1276C112.292 22.1276 113.546 21.5159 114.45 20.5546L115.413 21.5353C114.256 22.6907 112.662 23.4383 110.931 23.4383C107.49 23.4189 104.554 20.4672 104.554 16.9718Z" fill="#42C0FF" stroke="#42C0FF" stroke-width="1.0713" stroke-miterlimit="10"/>
<path d="M116.607 16.9718C116.607 13.4764 119.543 10.5442 122.984 10.5442C126.445 10.5442 129.342 13.4764 129.342 16.9718C129.342 20.4672 126.445 23.4189 122.984 23.4189C119.543 23.4189 116.607 20.4672 116.607 16.9718ZM127.923 16.9718C127.923 14.2047 125.677 11.8453 122.994 11.8453C120.311 11.8453 118.046 14.1949 118.046 16.9718C118.046 19.7584 120.311 22.1178 122.994 22.1178C125.677 22.1178 127.923 19.7584 127.923 16.9718Z" fill="#42C0FF" stroke="#42C0FF" stroke-width="1.0713" stroke-miterlimit="10"/>
<path d="M143.401 10.7673L137.908 23.2051H136.372L130.88 10.7673H132.416L137.15 21.4671L141.865 10.7673H143.401Z" fill="#42C0FF" stroke="#42C0FF" stroke-width="1.0713" stroke-miterlimit="10"/>
<path d="M144.928 16.9718C144.928 13.4764 147.864 10.5442 151.305 10.5442C154.766 10.5442 157.663 13.4764 157.663 16.9718C157.663 20.4672 154.766 23.4189 151.305 23.4189C147.864 23.4189 144.928 20.4672 144.928 16.9718ZM156.234 16.9718C156.234 14.2047 153.989 11.8453 151.305 11.8453C148.622 11.8453 146.357 14.1949 146.357 16.9718C146.357 19.7584 148.622 22.1178 151.305 22.1178C153.989 22.1178 156.234 19.7584 156.234 16.9718Z" fill="#42C0FF" stroke="#42C0FF" stroke-width="1.0713" stroke-miterlimit="10"/>
<path d="M160.043 10.7673H161.453V23.2051H160.043V10.7673Z" fill="#42C0FF" stroke="#42C0FF" stroke-width="1.0713" stroke-miterlimit="10"/>
<path d="M167.89 12.1072H163.7V10.7673H173.489V12.1072H169.3V23.2051H167.89V12.1072Z" fill="#42C0FF" stroke="#42C0FF" stroke-width="1.0713" stroke-miterlimit="10"/>
<path d="M175.87 18.0399V10.7578H177.28V18.0399C177.28 20.4284 178.854 22.1276 181.071 22.1276C183.287 22.1276 184.862 20.4284 184.862 18.0399V10.7578H186.272V18.0399C186.272 21.1858 184.114 23.4189 181.071 23.4189C178.028 23.4189 175.87 21.1955 175.87 18.0399Z" fill="#42C0FF" stroke="#42C0FF" stroke-width="1.0713" stroke-miterlimit="10"/>
<path d="M195.518 18.6029L198.745 23.2051H197.132L193.982 18.7291H190.686V23.2051H189.267V10.7673H194.322C196.898 10.7673 198.911 12.4179 198.911 14.7482C198.911 16.6998 197.491 18.1853 195.518 18.6029ZM190.676 17.3892H194.069C196.101 17.3892 197.481 16.4085 197.481 14.7482C197.481 13.0782 196.101 12.1072 194.069 12.1072H190.676V17.3892Z" fill="#42C0FF" stroke="#42C0FF" stroke-width="1.0713" stroke-miterlimit="10"/>
<path d="M209.925 20.3797H202.983L201.729 23.2051H200.193L205.686 10.7673H207.222L212.715 23.2051H211.179L209.925 20.3797ZM209.351 19.0398L206.473 12.5053L203.576 19.0398H209.351Z" fill="#42C0FF" stroke="#42C0FF" stroke-width="1.0713" stroke-miterlimit="10"/>
<path d="M220.132 16.6512H225.119V21.5254C223.962 22.6808 221.998 23.4284 220.278 23.4284C216.836 23.4284 213.9 20.4768 213.9 16.9814C213.9 13.486 216.836 10.5537 220.278 10.5537C221.998 10.5537 223.962 11.2819 225.119 12.4568L224.157 13.4374C223.252 12.4762 221.639 11.8645 220.278 11.8645C217.595 11.8645 215.329 14.2142 215.329 16.9911C215.329 19.7777 217.595 22.1371 220.278 22.1371C221.435 22.1371 222.776 21.6807 223.7 20.9816V18.0106H220.132V16.6512Z" fill="#42C0FF" stroke="#42C0FF" stroke-width="1.0713" stroke-miterlimit="10"/>
<path d="M229.321 12.1072V16.1949H236.087V17.5348H229.321V21.8652H236.826V23.2051H227.892V10.7673H236.826V12.1072H229.321Z" fill="#42C0FF" stroke="#42C0FF" stroke-width="1.0713" stroke-miterlimit="10"/>
<path d="M100.4 45.2859H96.3457L95.6165 46.9365H94.7222L97.9303 39.6836H98.8246L102.033 46.9365H101.138L100.4 45.2859ZM100.069 44.5092L98.3872 40.6934L96.6956 44.5092H100.069Z" fill="black"/>
<path d="M107.876 46.1596V46.9461H103.083V39.6931H103.909V46.1693H107.876V46.1596Z" fill="black"/>
<path d="M108.723 45.8976L109.238 45.2568C109.851 45.8684 110.599 46.3054 111.62 46.3054C112.738 46.3054 113.311 45.6937 113.311 45.0334C113.311 44.2664 112.621 43.9557 111.357 43.6644C109.899 43.3246 108.976 42.8682 108.976 41.6157C108.976 40.4506 110.016 39.5476 111.406 39.5476C112.485 39.5476 113.292 39.9748 113.953 40.5865L113.448 41.2273C112.845 40.6448 112.125 40.2952 111.367 40.2952C110.473 40.2952 109.812 40.8875 109.812 41.5477C109.812 42.2954 110.531 42.5575 111.766 42.8585C113.156 43.1886 114.147 43.6838 114.147 44.9655C114.147 46.1209 113.282 47.053 111.591 47.053C110.395 47.053 109.452 46.6258 108.723 45.8976Z" fill="black"/>
<path d="M120.739 45.2859H116.686L115.957 46.9365H115.062L118.27 39.6836H119.165L122.373 46.9365H121.478L120.739 45.2859ZM120.399 44.5092L118.717 40.6934L117.026 44.5092H120.399Z" fill="black"/>
<path d="M123.256 43.305C123.256 41.266 124.967 39.5571 126.979 39.5571C127.98 39.5571 128.914 39.9843 129.594 40.664L129.03 41.2369C128.505 40.6737 127.776 40.3145 126.979 40.3145C125.414 40.3145 124.092 41.6835 124.092 43.305C124.092 44.9362 125.414 46.3052 126.979 46.3052C127.776 46.3052 128.505 45.9459 129.03 45.3828L129.594 45.9556C128.914 46.6353 127.99 47.0625 126.979 47.0625C124.967 47.0625 123.256 45.344 123.256 43.305Z" fill="black"/>
<path d="M131.57 40.4602V42.8487H135.517V43.6351H131.57V46.1596H135.944V46.9461H130.734V39.6931H135.944V40.4796H131.57V40.4602Z" fill="black"/>
<path d="M61.6535 8.36098C61.6535 8.36098 64.3853 1.32163 67.2434 1.00122H84.1393C84.1393 1.00122 87.0655 1.57408 89.6611 8.36098C89.6611 8.36098 90.3611 7.91434 90.293 7.6619C90.225 7.40945 90.3611 7.91434 90.3611 7.91434C90.3611 7.91434 89.9139 6.3317 91.2457 6.45792L93.2775 6.65211C93.2775 6.65211 94.483 7.72986 93.2775 7.98231C93.2775 7.98231 92.5193 8.36098 91.4985 8.36098C91.4985 8.36098 90.7402 8.73964 91.1194 9.11831C91.1194 9.11831 92.3929 9.56495 92.3248 9.94361L93.5303 12.672L93.8122 23.2067L93.4622 23.7796V25.6146L92.8887 26.6924H88.5043L88.4362 24.8573L63.2187 24.6631L63.1798 26.6924H58.2899L57.59 22.8863V13.0506L58.7371 10.4485C58.7371 10.4485 59.437 9.05034 60.3898 9.17657C60.3898 9.17657 60.8953 8.85616 60.0106 8.47749L57.9108 8.03085C57.9108 8.03085 57.0844 6.82688 58.4163 6.63269L60.2537 6.50647C60.2537 6.50647 61.2064 6.57444 61.1383 7.33178C61.148 7.34149 61.148 8.23475 61.6535 8.36098Z" fill="#6D46A4" stroke="black" stroke-width="0.535648" stroke-miterlimit="10"/>
<path d="M68.197 1.95264C68.197 1.95264 65.0181 2.58375 62.7335 9.69106H88.651C88.651 9.69106 86.872 2.90416 83.382 1.95264H68.197Z" fill="#FDFDFD" stroke="black" stroke-width="0.535648" stroke-miterlimit="10"/>
<path d="M59.4956 11.6527L65.7174 14.2548C65.7174 14.2548 65.7174 15.9054 63.0537 16.0316C63.0537 16.0316 61.401 15.8374 58.7373 13.847C58.7276 13.847 58.7373 11.342 59.4956 11.6527Z" fill="white" stroke="black" stroke-width="0.535648" stroke-miterlimit="10"/>
<path d="M85.5962 14.3229L91.7985 11.6333C91.7985 11.6333 92.7804 11.5945 92.4596 13.9442C92.4596 13.9442 90.9333 15.3423 89.9806 15.5948C89.9806 15.5851 86.8017 17.0512 85.5962 14.3229Z" fill="white" stroke="black" stroke-width="0.535648" stroke-miterlimit="10"/>
<path d="M68.9534 3.9814C68.9534 3.9814 70.538 1.25305 72.1323 3.9814V5.81648C72.1323 5.81648 70.8005 8.54484 68.9534 5.81648V3.9814Z" stroke="black" stroke-width="0.535648" stroke-miterlimit="10"/>
<path d="M69.4013 7.03053C69.4013 7.03053 67.4278 6.96256 67.0487 9.05009H73.9704C73.9704 9.05009 74.2232 7.03053 71.8122 7.03053C71.8122 7.03053 70.8012 8.24421 69.4013 7.03053Z" stroke="black" stroke-width="0.535648" stroke-miterlimit="10"/>
<path d="M79.6858 7.03053C79.6858 7.03053 77.7124 6.96256 77.3333 9.05009H84.255C84.255 9.05009 84.5077 7.03053 82.0968 7.03053C82.1065 7.03053 81.0857 8.24421 79.6858 7.03053Z" stroke="black" stroke-width="0.535648" stroke-miterlimit="10"/>
<path d="M79.2212 3.9814C79.2212 3.9814 80.8058 1.25305 82.4001 3.9814V5.81648C82.4001 5.81648 81.0683 8.54484 79.2212 5.81648V3.9814Z" stroke="black" stroke-width="0.535648" stroke-miterlimit="10"/>
<path d="M81.7571 17.2063H69.7219V17.8763H81.7571V17.2063Z" fill="white" stroke="black" stroke-width="0.535648" stroke-miterlimit="10"/>
<path d="M81.7571 18.2554H69.7219V18.9253H81.7571V18.2554Z" fill="white" stroke="black" stroke-width="0.535648" stroke-miterlimit="10"/>
<path d="M81.7571 19.4294H69.7219V20.0994H81.7571V19.4294Z" fill="white" stroke="black" stroke-width="0.535648" stroke-miterlimit="10"/>
<path d="M144.394 45.0522H232.169" stroke="black" stroke-width="0.535648" stroke-miterlimit="10"/>
<path d="M7.76648 45.0522H88.4645" stroke="black" stroke-width="0.535648" stroke-miterlimit="10"/>
</svg>
