<svg width="448" height="90" viewBox="0 0 448 90" fill="none" xmlns="http://www.w3.org/2000/svg">
<path d="M2.66858 26.7715C2.66858 17.402 10.5383 9.54199 19.7805 9.54199C24.4016 9.54199 28.6752 11.4853 31.7849 14.6432L29.2137 17.2632C26.7816 14.6952 23.4287 13.0469 19.7805 13.0469C12.5883 13.0469 6.5079 19.3626 6.5079 26.7888C6.5079 34.2671 12.5883 40.5655 19.7805 40.5655C23.4287 40.5655 26.7816 38.9172 29.2137 36.3492L31.7849 38.9692C28.6752 42.075 24.4016 44.0704 19.7805 44.0704C10.5383 44.053 2.66858 36.141 2.66858 26.7715Z" fill="black"/>
<path d="M35.711 26.7715C35.711 17.402 43.5807 9.54199 52.8229 9.54199C57.444 9.54199 61.7176 11.4853 64.8273 14.6432L62.2562 17.2632C59.824 14.6952 56.4711 13.0469 52.8229 13.0469C45.6307 13.0469 39.5503 19.3626 39.5503 26.7888C39.5503 34.2671 45.6307 40.5655 52.8229 40.5655C56.4711 40.5655 59.824 38.9172 62.2562 36.3492L64.8273 38.9692C61.7176 42.075 57.444 44.0704 52.8229 44.0704C43.5807 44.053 35.711 36.141 35.711 26.7715Z" fill="black"/>
<path d="M70.0553 10.1328H73.8425V43.464H70.0553V10.1328Z" fill="black"/>
<path d="M186.972 29.2852C186.972 23.0388 192.218 17.7988 198.368 17.7988C201.443 17.7988 204.292 19.1002 206.377 21.1996L204.657 22.9521C203.041 21.2343 200.8 20.1412 198.368 20.1412C193.573 20.1412 189.525 24.3401 189.525 29.3025C189.525 34.2822 193.573 38.4985 198.368 38.4985C200.8 38.4985 203.041 37.4054 204.657 35.6877L206.377 37.4401C204.309 39.5049 201.46 40.8409 198.368 40.8409C192.218 40.8062 186.972 35.5315 186.972 29.2852Z" fill="black" stroke="black" stroke-width="1.91443" stroke-miterlimit="10"/>
<path d="M208.51 29.2852C208.51 23.0388 213.757 17.7988 219.907 17.7988C226.091 17.7988 231.268 23.0388 231.268 29.2852C231.268 35.5315 226.091 40.8062 219.907 40.8062C213.757 40.8062 208.51 35.5315 208.51 29.2852ZM228.732 29.2852C228.732 24.3401 224.719 20.1239 219.924 20.1239C215.129 20.1239 211.081 24.3228 211.081 29.2852C211.081 34.2649 215.129 38.4812 219.924 38.4812C224.719 38.4812 228.732 34.2649 228.732 29.2852Z" fill="black" stroke="black" stroke-width="1.91443" stroke-miterlimit="10"/>
<path d="M256.393 18.1978L246.577 40.4243H243.833L234.017 18.1978H236.762L245.222 37.3185L253.648 18.1978H256.393Z" fill="black" stroke="black" stroke-width="1.91443" stroke-miterlimit="10"/>
<path d="M259.119 29.2852C259.119 23.0388 264.366 17.7988 270.515 17.7988C276.7 17.7988 281.877 23.0388 281.877 29.2852C281.877 35.5315 276.7 40.8062 270.515 40.8062C264.366 40.8062 259.119 35.5315 259.119 29.2852ZM279.323 29.2852C279.323 24.3401 275.31 20.1239 270.515 20.1239C265.721 20.1239 261.673 24.3228 261.673 29.2852C261.673 34.2649 265.721 38.4812 270.515 38.4812C275.31 38.4812 279.323 34.2649 279.323 29.2852Z" fill="black" stroke="black" stroke-width="1.91443" stroke-miterlimit="10"/>
<path d="M286.13 18.1978H288.649V40.4243H286.13V18.1978Z" fill="black" stroke="black" stroke-width="1.91443" stroke-miterlimit="10"/>
<path d="M300.152 20.5922H292.664V18.1978H310.158V20.5922H302.671V40.4243H300.152V20.5922Z" fill="black" stroke="black" stroke-width="1.91443" stroke-miterlimit="10"/>
<path d="M314.415 31.1934V18.1802H316.935V31.1934C316.935 35.4617 319.749 38.4981 323.71 38.4981C327.671 38.4981 330.485 35.4617 330.485 31.1934V18.1802H333.004V31.1934C333.004 36.8151 329.147 40.8058 323.71 40.8058C318.272 40.8058 314.415 36.8325 314.415 31.1934Z" fill="black" stroke="black" stroke-width="1.91443" stroke-miterlimit="10"/>
<path d="M349.526 32.2L355.293 40.4243H352.41L346.781 32.4255H340.892V40.4243H338.355V18.1978H347.389C351.993 18.1978 355.589 21.1474 355.589 25.3116C355.589 28.7992 353.052 31.4539 349.526 32.2ZM340.874 30.0311H346.937C350.568 30.0311 353.035 28.2787 353.035 25.3116C353.035 22.3273 350.568 20.5922 346.937 20.5922H340.874V30.0311Z" fill="black" stroke="black" stroke-width="1.91443" stroke-miterlimit="10"/>
<path d="M375.27 35.3752H362.866L360.625 40.4243H357.88L367.695 18.1978H370.44L380.256 40.4243H377.511L375.27 35.3752ZM374.245 32.9808L369.102 21.3036L363.926 32.9808H374.245Z" fill="black" stroke="black" stroke-width="1.91443" stroke-miterlimit="10"/>
<path d="M393.51 28.7128H402.422V37.423C400.355 39.4878 396.846 40.8238 393.771 40.8238C387.621 40.8238 382.375 35.5491 382.375 29.3027C382.375 23.0564 387.621 17.8164 393.771 17.8164C396.846 17.8164 400.355 19.1177 402.422 21.2172L400.703 22.9696C399.087 21.2519 396.203 20.1588 393.771 20.1588C388.976 20.1588 384.928 24.3577 384.928 29.3201C384.928 34.2998 388.976 38.5161 393.771 38.5161C395.838 38.5161 398.236 37.7006 399.886 36.4513V31.1419H393.51V28.7128Z" fill="black" stroke="black" stroke-width="1.91443" stroke-miterlimit="10"/>
<path d="M409.933 20.5922V27.8969H422.024V30.2914H409.933V38.0299H423.344V40.4243H407.379V18.1978H423.344V20.5922H409.933Z" fill="black" stroke="black" stroke-width="1.91443" stroke-miterlimit="10"/>
<path d="M179.548 79.8826H172.304L171.001 82.8323H169.403L175.136 69.8711H176.734L182.467 82.8323H180.869L179.548 79.8826ZM178.958 78.4945L175.952 71.6756L172.929 78.4945H178.958Z" fill="black"/>
<path d="M192.906 81.4429V82.8484H184.341V69.8872H185.818V81.4603H192.906V81.4429Z" fill="black"/>
<path d="M194.421 80.975L195.342 79.8298C196.436 80.9229 197.774 81.7037 199.598 81.7037C201.596 81.7037 202.621 80.6106 202.621 79.4307C202.621 78.06 201.387 77.5048 199.129 76.9842C196.523 76.377 194.873 75.5615 194.873 73.3232C194.873 71.2411 196.732 69.6274 199.216 69.6274C201.144 69.6274 202.586 70.3909 203.767 71.484L202.864 72.6291C201.787 71.5881 200.501 70.9635 199.146 70.9635C197.548 70.9635 196.367 72.0219 196.367 73.2017C196.367 74.5378 197.652 75.0062 199.859 75.5441C202.343 76.134 204.115 77.019 204.115 79.3093C204.115 81.374 202.569 83.0397 199.546 83.0397C197.409 83.0397 195.724 82.2763 194.421 80.975Z" fill="black"/>
<path d="M215.896 79.8826H208.652L207.349 82.8323H205.75L211.483 69.8711H213.082L218.815 82.8323H217.216L215.896 79.8826ZM215.288 78.4945L212.283 71.6756L209.26 78.4945H215.288Z" fill="black"/>
<path d="M220.392 76.3425C220.392 72.6988 223.45 69.645 227.046 69.645C228.835 69.645 230.503 70.4085 231.719 71.623L230.711 72.6467C229.773 71.6404 228.47 70.9984 227.046 70.9984C224.249 70.9984 221.886 73.4449 221.886 76.3425C221.886 79.2575 224.249 81.7039 227.046 81.7039C228.47 81.7039 229.773 81.062 230.711 80.0556L231.719 81.0793C230.503 82.2939 228.853 83.0573 227.046 83.0573C223.45 83.0573 220.392 79.9862 220.392 76.3425Z" fill="black"/>
<path d="M235.247 71.2579V75.5263H242.3V76.9317H235.247V81.4429H243.065V82.8484H233.753V69.8872H243.065V71.2926H235.247V71.2579Z" fill="black"/>
<path d="M110.308 13.8962C110.308 13.8962 115.189 1.31672 120.297 0.744141H150.49C150.49 0.744141 155.719 1.76785 160.358 13.8962C160.358 13.8962 161.608 13.098 161.487 12.6469C161.365 12.1958 161.608 13.098 161.608 13.098C161.608 13.098 160.809 10.2698 163.189 10.4954L166.82 10.8424C166.82 10.8424 168.974 12.7684 166.82 13.2195C166.82 13.2195 165.465 13.8962 163.641 13.8962C163.641 13.8962 162.286 14.5729 162.964 15.2495C162.964 15.2495 165.239 16.0477 165.118 16.7244L167.272 21.6L167.776 40.4258L167.15 41.4495V44.7288L166.125 46.6548H158.29L158.169 43.3754L113.104 43.0284L113.035 46.6548H104.297L103.046 39.8532V22.2767L105.096 17.6266C105.096 17.6266 106.347 15.1281 108.049 15.3536C108.049 15.3536 108.952 14.7811 107.372 14.1044L103.619 13.3062C103.619 13.3062 102.142 11.1547 104.522 10.8077L107.806 10.5821C107.806 10.5821 109.508 10.7036 109.387 12.057C109.404 12.0743 109.404 13.6706 110.308 13.8962Z" fill="#6D46A4" stroke="black" stroke-width="0.957214" stroke-miterlimit="10"/>
<path d="M121.999 2.44385C121.999 2.44385 116.318 3.57166 112.236 16.2726H158.551C158.551 16.2726 155.372 4.14424 149.135 2.44385H121.999Z" fill="#FDFDFD" stroke="black" stroke-width="0.957214" stroke-miterlimit="10"/>
<path d="M106.453 19.7791L117.571 24.4292C117.571 24.4292 117.571 27.3788 112.811 27.6044C112.811 27.6044 109.858 27.2574 105.098 23.7004C105.08 23.7004 105.098 19.2239 106.453 19.7791Z" fill="white" stroke="black" stroke-width="0.957214" stroke-miterlimit="10"/>
<path d="M153.093 24.5499L164.177 19.7437C164.177 19.7437 165.931 19.6743 165.358 23.8732C165.358 23.8732 162.63 26.3718 160.928 26.8229C160.928 26.8056 155.247 29.4256 153.093 24.5499Z" fill="white" stroke="black" stroke-width="0.957214" stroke-miterlimit="10"/>
<path d="M123.352 6.07026C123.352 6.07026 126.184 1.19464 129.033 6.07026V9.34959C129.033 9.34959 126.653 14.2252 123.352 9.34959V6.07026Z" stroke="black" stroke-width="0.957214" stroke-miterlimit="10"/>
<path d="M124.153 11.5195C124.153 11.5195 120.627 11.398 119.949 15.1285H132.318C132.318 15.1285 132.77 11.5195 128.462 11.5195C128.462 11.5195 126.655 13.6884 124.153 11.5195Z" stroke="black" stroke-width="0.957214" stroke-miterlimit="10"/>
<path d="M142.533 11.5195C142.533 11.5195 139.007 11.398 138.329 15.1285H150.698C150.698 15.1285 151.15 11.5195 146.842 11.5195C146.859 11.5195 145.035 13.6884 142.533 11.5195Z" stroke="black" stroke-width="0.957214" stroke-miterlimit="10"/>
<path d="M141.701 6.07026C141.701 6.07026 144.532 1.19464 147.381 6.07026V9.34959C147.381 9.34959 145.001 14.2252 141.701 9.34959V6.07026Z" stroke="black" stroke-width="0.957214" stroke-miterlimit="10"/>
<path d="M146.235 29.7031H124.727V30.9003H146.235V29.7031Z" fill="white" stroke="black" stroke-width="0.957214" stroke-miterlimit="10"/>
<path d="M146.235 31.5776H124.727V32.7749H146.235V31.5776Z" fill="white" stroke="black" stroke-width="0.957214" stroke-miterlimit="10"/>
<path d="M146.235 33.6758H124.727V34.873H146.235V33.6758Z" fill="white" stroke="black" stroke-width="0.957214" stroke-miterlimit="10"/>
<path d="M258.167 79.4648H415.023" stroke="black" stroke-width="0.957214" stroke-miterlimit="10"/>
<path d="M14.0085 79.4648H158.218" stroke="black" stroke-width="0.957214" stroke-miterlimit="10"/>
</svg>
