<svg width="173" height="114" viewBox="0 0 173 114" fill="none" xmlns="http://www.w3.org/2000/svg">
<path d="M167.313 43.1111C167.313 43.1111 163.549 22.8823 136.641 10.3878C109.731 -2.10659 97.2712 10.3259 83.744 15.5128C70.2168 20.6996 62.8771 13.5596 40.2958 10.1882C17.7145 6.81668 -1.85565 40.3341 4.54304 66.5118C10.9417 92.6918 25.0542 102.012 55.9139 107.961C86.7735 113.91 105.026 94.2777 126.855 97.8465C148.683 101.418 174.65 81.3862 167.313 43.1111Z" fill="#A8E2FF"/>
<path opacity="0.7" d="M167.313 43.1111C167.313 43.1111 163.549 22.8823 136.641 10.3878C109.731 -2.10659 97.2712 10.3259 83.744 15.5128C70.2168 20.6996 62.8771 13.5596 40.2958 10.1882C17.7145 6.81668 -1.85565 40.3341 4.54304 66.5118C10.9417 92.6918 25.0542 102.012 55.9139 107.961C86.7735 113.91 105.026 94.2777 126.855 97.8465C148.683 101.418 174.65 81.3862 167.313 43.1111Z" fill="white"/>
<path d="M155.283 89.1116C155.244 89.0955 155.223 89.0519 155.235 89.0083C156.359 85.5588 159.254 82.9011 162.786 82.0749C162.829 82.0634 162.875 82.0909 162.884 82.1368C162.896 82.1804 162.868 82.2263 162.822 82.2355C159.348 83.0503 156.499 85.6644 155.391 89.0588C155.377 89.1024 155.329 89.1254 155.288 89.1116C155.288 89.1139 155.285 89.1139 155.283 89.1116Z" fill="#263238"/>
<path d="M158.055 86.8997C157.275 86.2548 156.04 87.3243 156.058 87.3633C155.971 87.5148 155.886 87.6662 155.806 87.8223C155.978 87.6639 156.543 87.5744 157.289 87.7397C158.032 87.8774 158.822 87.4872 158.055 86.8997Z" fill="#263238"/>
<path d="M155.717 85.1411C154.93 84.5352 154.544 85.8503 155.058 86.4631C155.543 87.0805 155.802 87.5831 155.793 87.8149C155.862 87.6542 155.935 87.4959 156.013 87.3375C155.974 87.3329 156.442 85.7424 155.717 85.1411Z" fill="#263238"/>
<path d="M159.056 85.7795C158.395 85.0152 157.009 85.8484 157.021 85.8874C156.91 86.0182 156.802 86.1536 156.699 86.2913C156.894 86.1674 157.463 86.1789 158.166 86.4726C158.875 86.7366 159.713 86.4887 159.056 85.7795Z" fill="#263238"/>
<path d="M157.047 83.6539C156.373 82.9264 155.781 84.1474 156.184 84.8336C156.559 85.5198 156.733 86.0569 156.685 86.2795C156.779 86.1349 156.878 85.9926 156.979 85.8549C156.944 85.8457 157.66 84.37 157.047 83.6539Z" fill="#263238"/>
<path d="M160.224 84.8476C159.698 83.9824 158.197 84.5699 158.204 84.6089C158.073 84.7191 157.947 84.8315 157.823 84.9486C158.034 84.8614 158.592 84.9692 159.235 85.3778C159.889 85.7587 160.754 85.6555 160.224 84.8476Z" fill="#263238"/>
<path d="M158.6 82.4173C158.056 81.5865 157.271 82.6904 157.555 83.434C157.81 84.1731 157.895 84.7285 157.81 84.9396C157.927 84.8134 158.047 84.6918 158.168 84.5724C158.134 84.5586 159.084 83.2252 158.6 82.4173Z" fill="#263238"/>
<path d="M161.538 84.1243C161.164 83.1856 159.582 83.5138 159.585 83.5528C159.438 83.6401 159.293 83.7296 159.153 83.8237C159.376 83.7732 159.906 83.9728 160.473 84.4823C161.049 84.9666 161.921 85.0079 161.538 84.1243Z" fill="#263238"/>
<path d="M160.345 81.4552C159.948 80.5441 158.984 81.5034 159.142 82.2838C159.271 83.0549 159.259 83.6172 159.142 83.81C159.278 83.7067 159.415 83.6057 159.555 83.507C159.523 83.4887 160.684 82.3342 160.345 81.4552Z" fill="#263238"/>
<path d="M162.961 83.6271C162.75 82.6379 161.123 82.6998 161.121 82.7389C160.96 82.8008 160.804 82.8651 160.648 82.9362C160.875 82.9225 161.369 83.2094 161.841 83.8061C162.33 84.3776 163.189 84.5635 162.961 83.6271Z" fill="#263238"/>
<path d="M162.235 80.7949C161.997 79.831 160.874 80.6159 160.9 81.4146C160.895 82.1972 160.789 82.7503 160.64 82.9225C160.792 82.8421 160.945 82.7664 161.102 82.6929C161.067 82.6654 162.419 81.7175 162.235 80.7949Z" fill="#263238"/>
<path d="M162.044 82.3625C162.021 82.3487 163.249 81.5225 164.048 81.394C164.83 81.2425 165.129 81.7933 164.998 82.1169C164.874 82.4428 164.326 82.5255 163.86 82.4979C163.403 82.4337 162.051 82.3396 162.044 82.3625Z" fill="#263238"/>
<path d="M162.024 82.4129C162.022 82.4129 162.019 82.4106 162.017 82.4106C161.996 82.3991 161.985 82.3761 161.989 82.3509C161.989 82.3486 161.989 82.3486 161.992 82.3463C161.996 82.3325 161.999 82.3211 162.019 82.3119C162.217 82.1237 163.353 81.4489 164.039 81.3365C164.424 81.263 164.753 81.3502 164.941 81.5774C165.076 81.7404 165.12 81.9607 165.049 82.1352C164.881 82.5758 164.094 82.5666 163.855 82.5506C163.41 82.4886 162.178 82.4037 162.061 82.4129C162.049 82.4197 162.035 82.4197 162.024 82.4129ZM164.622 81.4788C164.491 81.426 164.31 81.3984 164.06 81.4466C163.428 81.5499 162.538 82.0847 162.212 82.305C162.329 82.3096 162.508 82.3211 162.788 82.3417C163.151 82.367 163.623 82.4083 163.869 82.4427C164.314 82.4679 164.835 82.3922 164.948 82.0961C165.003 81.9584 164.966 81.784 164.856 81.6509C164.812 81.5958 164.737 81.527 164.622 81.4788Z" fill="#263238"/>
<path d="M155.342 89.0445C155.303 89.0628 155.257 89.0468 155.234 89.01C153.472 85.8382 153.495 81.9091 155.292 78.7602C155.315 78.7212 155.365 78.7074 155.404 78.7304C155.443 78.7533 155.457 78.8038 155.434 78.8428C153.664 81.9435 153.644 85.8084 155.377 88.932C155.4 88.971 155.384 89.0215 155.344 89.0445C155.347 89.0422 155.344 89.0422 155.342 89.0445Z" fill="#263238"/>
<path d="M155.607 85.5084C154.604 85.6415 154.547 87.2733 154.588 87.2871C154.639 87.4523 154.694 87.6198 154.753 87.7828C154.753 87.5487 155.075 87.0736 155.701 86.6421C156.309 86.19 156.56 85.3454 155.607 85.5084Z" fill="#263238"/>
<path d="M152.731 86.0225C151.751 86.1878 152.451 87.3651 153.252 87.4041C154.032 87.4707 154.578 87.6199 154.741 87.7851C154.67 87.6245 154.604 87.4615 154.542 87.2986C154.512 87.3261 153.663 85.9009 152.731 86.0225Z" fill="#263238"/>
<path d="M155.467 84.0119C154.457 83.9751 154.124 85.5587 154.161 85.5771C154.182 85.7469 154.207 85.9168 154.237 86.0866C154.278 85.8594 154.675 85.4509 155.368 85.1342C156.043 84.7945 156.433 84.0142 155.467 84.0119Z" fill="#263238"/>
<path d="M152.543 84.0371C151.549 84.0371 152.043 85.3017 152.821 85.4715C153.578 85.6643 154.09 85.9007 154.221 86.0889C154.179 85.9214 154.143 85.7538 154.108 85.584C154.078 85.6047 153.484 84.0738 152.543 84.0371Z" fill="#263238"/>
<path d="M155.581 82.522C154.589 82.3178 153.997 83.8188 154.032 83.8394C154.025 84.0092 154.02 84.1791 154.023 84.3512C154.101 84.1378 154.562 83.8027 155.299 83.6076C156.019 83.3873 156.533 82.685 155.581 82.522Z" fill="#263238"/>
<path d="M152.697 82.0561C151.717 81.8885 151.993 83.2151 152.732 83.5112C153.448 83.8279 153.911 84.1446 154.01 84.3489C153.996 84.179 153.989 84.0069 153.985 83.8371C153.948 83.8531 153.618 82.2512 152.697 82.0561Z" fill="#263238"/>
<path d="M155.94 81.0667C154.997 80.7018 154.162 82.0834 154.191 82.1087C154.155 82.2739 154.125 82.4415 154.097 82.6113C154.212 82.4139 154.719 82.1615 155.479 82.0926C156.227 81.9985 156.851 81.388 155.94 81.0667Z" fill="#263238"/>
<path d="M153.175 80.1258C152.236 79.7976 152.284 81.1563 152.964 81.5717C153.616 82.0032 154.022 82.3934 154.084 82.6114C154.1 82.4416 154.12 82.2717 154.143 82.1019C154.107 82.1134 154.049 80.4747 153.175 80.1258Z" fill="#263238"/>
<path d="M156.546 79.6857C155.676 79.167 154.616 80.4017 154.641 80.4293C154.577 80.5877 154.517 80.7483 154.462 80.909C154.607 80.7322 155.153 80.567 155.913 80.6244C156.668 80.6588 157.391 80.1562 156.546 79.6857Z" fill="#263238"/>
<path d="M153.979 78.2902C153.109 77.8082 152.921 79.1669 153.522 79.6902C154.091 80.2272 154.426 80.6794 154.451 80.9066C154.495 80.7413 154.543 80.5761 154.596 80.4132C154.555 80.4177 154.782 78.7836 153.979 78.2902Z" fill="#263238"/>
<path d="M154.998 79.4968C154.973 79.5037 155.202 78.044 155.652 77.3693C156.074 76.6945 156.68 76.8506 156.829 77.165C156.983 77.4795 156.671 77.9362 156.334 78.2598C155.973 78.549 154.984 79.4762 154.998 79.4968Z" fill="#263238"/>
<path d="M155.021 79.5476C155.019 79.5476 155.016 79.5499 155.014 79.5499C154.991 79.5567 154.966 79.5476 154.952 79.5292C154.952 79.5269 154.95 79.5269 154.95 79.5246C154.943 79.5108 154.936 79.5017 154.945 79.481C154.941 79.2079 155.221 77.918 155.606 77.3374C155.813 77.0046 156.102 76.8233 156.398 76.8394C156.611 76.8508 156.8 76.9702 156.88 77.1377C157.089 77.5623 156.545 78.1315 156.373 78.2944C156.024 78.579 155.122 79.4236 155.051 79.5154C155.042 79.5315 155.032 79.5407 155.021 79.5476ZM156.104 77.0069C155.976 77.0666 155.833 77.1813 155.698 77.3971C155.345 77.9295 155.131 78.9462 155.069 79.3341C155.152 79.2515 155.283 79.1276 155.489 78.9371C155.755 78.6892 156.107 78.3702 156.299 78.2141C156.621 77.9066 156.919 77.4705 156.779 77.1882C156.715 77.0528 156.563 76.961 156.391 76.9518C156.32 76.9472 156.219 76.9564 156.104 77.0069Z" fill="#263238"/>
<path d="M18.644 89.114C18.6761 89.1002 18.6945 89.0635 18.683 89.0314C17.7627 86.2107 15.3988 84.0396 12.5116 83.3648C12.4748 83.3556 12.4381 83.3786 12.4312 83.4153C12.422 83.452 12.445 83.4888 12.4817 83.4956C15.323 84.1612 17.6502 86.2979 18.5568 89.0727C18.5683 89.1071 18.6073 89.1278 18.6417 89.1163C18.6417 89.114 18.6417 89.114 18.644 89.114Z" fill="#263238"/>
<path d="M16.3785 87.3028C17.0165 86.7749 18.0264 87.6493 18.0103 87.6815C18.0815 87.8054 18.1503 87.9293 18.2169 88.0579C18.0769 87.9293 17.6133 87.8559 17.0051 87.9913C16.3946 88.1038 15.752 87.7848 16.3785 87.3028Z" fill="#263238"/>
<path d="M18.2886 85.8664C18.9335 85.3706 19.2479 86.4447 18.8279 86.9474C18.4332 87.4523 18.2197 87.8631 18.2289 88.0536C18.1715 87.9228 18.1118 87.7919 18.0476 87.6634C18.0774 87.6588 17.6964 86.3575 18.2886 85.8664Z" fill="#263238"/>
<path d="M15.5587 86.3894C16.1004 85.7628 17.2341 86.4445 17.2227 86.4766C17.3122 86.5845 17.3994 86.6946 17.4843 86.8071C17.3259 86.7061 16.86 86.7153 16.284 86.954C15.7079 87.1697 15.0217 86.9677 15.5587 86.3894Z" fill="#263238"/>
<path d="M17.2008 84.6524C17.7516 84.058 18.2382 85.0564 17.9054 85.6164C17.6001 86.1787 17.4555 86.617 17.4946 86.7983C17.4165 86.6813 17.3362 86.5642 17.2536 86.4495C17.2857 86.4426 16.7005 85.2377 17.2008 84.6524Z" fill="#263238"/>
<path d="M14.6052 85.6275C15.0344 84.9206 16.2623 85.4003 16.2554 85.4324C16.361 85.5219 16.4642 85.616 16.5675 85.7101C16.3954 85.6389 15.9387 85.7285 15.4131 86.0612C14.8806 86.3711 14.1715 86.2885 14.6052 85.6275Z" fill="#263238"/>
<path d="M15.9318 83.6403C16.3771 82.9609 17.0197 83.8629 16.7856 84.4711C16.5768 85.0747 16.5079 85.5291 16.5768 85.7013C16.4827 85.598 16.384 85.4993 16.283 85.4006C16.3128 85.3891 15.5371 84.3013 15.9318 83.6403Z" fill="#263238"/>
<path d="M13.5325 85.0361C13.8377 84.2672 15.1298 84.5358 15.1298 84.5679C15.2492 84.639 15.3662 84.7125 15.4833 84.7905C15.302 84.7492 14.8682 84.9121 14.4046 85.3299C13.9295 85.7246 13.218 85.759 13.5325 85.0361Z" fill="#263238"/>
<path d="M14.5087 82.8529C14.8346 82.1093 15.6218 82.8919 15.4909 83.53C15.3854 84.1611 15.3946 84.6201 15.4909 84.7785C15.3808 84.6936 15.2683 84.6109 15.1536 84.5329C15.1788 84.5168 14.2309 83.5713 14.5087 82.8529Z" fill="#263238"/>
<path d="M12.3669 84.6294C12.539 83.8192 13.8679 83.872 13.8725 83.9018C14.0033 83.9523 14.1318 84.0051 14.2603 84.0625C14.0744 84.051 13.6728 84.2851 13.2849 84.7739C12.8833 85.2421 12.1787 85.3959 12.3669 84.6294Z" fill="#263238"/>
<path d="M12.9597 82.3141C13.1548 81.5246 14.0728 82.1695 14.0522 82.819C14.0568 83.4593 14.1417 83.9115 14.2633 84.0515C14.1394 83.9849 14.0132 83.9229 13.8869 83.8633C13.9145 83.8449 12.8106 83.0692 12.9597 82.3141Z" fill="#263238"/>
<path d="M13.1175 83.5967C13.1359 83.5852 12.133 82.9104 11.4789 82.8048C10.8408 82.6809 10.5952 83.1307 10.7008 83.3947C10.8018 83.6609 11.2516 83.7298 11.6303 83.7068C12.0067 83.654 13.113 83.576 13.1175 83.5967Z" fill="#263238"/>
<path d="M13.1337 83.6379C13.136 83.6379 13.1383 83.6356 13.1383 83.6356C13.1543 83.6264 13.1635 83.6057 13.1612 83.5874C13.1612 83.5851 13.1612 83.5851 13.1589 83.5828C13.1566 83.5713 13.152 83.5621 13.136 83.5552C12.9753 83.4015 12.0458 82.8507 11.4835 82.7589C11.1691 82.6969 10.9006 82.7703 10.7468 82.9562C10.6366 83.0893 10.6022 83.2684 10.6573 83.4107C10.795 83.771 11.4376 83.7618 11.6327 83.7503C11.9976 83.6998 13.0029 83.6287 13.0992 83.6379C13.113 83.6425 13.1245 83.6425 13.1337 83.6379ZM11.0107 82.8736C11.1163 82.83 11.2655 82.807 11.4697 82.8461C11.9861 82.931 12.7137 83.367 12.9799 83.5484C12.8858 83.5529 12.7389 83.5621 12.5094 83.5782C12.2133 83.5989 11.8255 83.6333 11.6258 83.6608C11.2609 83.6815 10.8363 83.6195 10.7445 83.3762C10.6986 83.2638 10.7284 83.1215 10.8179 83.0113C10.8547 82.9677 10.9166 82.9126 11.0107 82.8736Z" fill="#263238"/>
<path d="M18.5967 89.0586C18.6289 89.0723 18.6679 89.0609 18.684 89.031C20.123 86.4376 20.1069 83.2268 18.6358 80.6517C18.6174 80.6196 18.5761 80.6081 18.544 80.6264C18.5118 80.6448 18.5004 80.6861 18.5187 80.7182C19.9646 83.252 19.983 86.4123 18.5646 88.9645C18.5463 88.9966 18.5577 89.0379 18.5899 89.0563C18.5922 89.0563 18.5944 89.0563 18.5967 89.0586Z" fill="#263238"/>
<path d="M18.3798 86.1672C19.2014 86.2751 19.2473 87.6108 19.2129 87.62C19.1716 87.7554 19.1257 87.8908 19.0775 88.0262C19.0775 87.8357 18.8158 87.4455 18.3017 87.0921C17.806 86.7249 17.6017 86.0341 18.3798 86.1672Z" fill="#263238"/>
<path d="M20.7313 86.587C21.5323 86.7224 20.9585 87.684 20.3067 87.7162C19.6687 87.7689 19.2211 87.8929 19.088 88.0283C19.1454 87.8975 19.2005 87.7644 19.251 87.6312C19.2762 87.6542 19.9693 86.4883 20.7313 86.587Z" fill="#263238"/>
<path d="M18.493 84.9434C19.3193 84.9135 19.5924 86.208 19.5603 86.2217C19.5419 86.3617 19.5212 86.4994 19.4983 86.6372C19.4639 86.4512 19.1403 86.1185 18.5734 85.8591C18.0203 85.5837 17.7035 84.9457 18.493 84.9434Z" fill="#263238"/>
<path d="M20.8824 84.9644C21.6949 84.9644 21.2932 85.9971 20.6552 86.1371C20.0355 86.2955 19.6178 86.4883 19.5099 86.6421C19.5444 86.5044 19.5742 86.3667 19.6018 86.2289C19.6293 86.2473 20.1136 84.9942 20.8824 84.9644Z" fill="#263238"/>
<path d="M18.3996 83.7248C19.2098 83.5595 19.694 84.7851 19.6665 84.8012C19.6734 84.9412 19.6757 85.0789 19.6757 85.2189C19.6114 85.0445 19.235 84.7713 18.6337 84.6107C18.0393 84.434 17.6216 83.8579 18.3996 83.7248Z" fill="#263238"/>
<path d="M20.7602 83.3461C21.5611 83.2107 21.3362 84.294 20.7326 84.5373C20.1474 84.7966 19.7687 85.0537 19.6884 85.2212C19.6998 85.0812 19.7067 84.9412 19.709 84.8035C19.7366 84.815 20.0051 83.5068 20.7602 83.3461Z" fill="#263238"/>
<path d="M18.1036 82.5384C18.8747 82.2401 19.5563 83.3693 19.5334 83.3899C19.5632 83.5253 19.5885 83.663 19.6114 83.8007C19.5196 83.6401 19.1019 83.4335 18.4822 83.3761C17.8695 83.2981 17.36 82.8001 18.1036 82.5384Z" fill="#263238"/>
<path d="M20.3681 81.7675C21.1346 81.499 21.0956 82.6098 20.5402 82.9495C20.0077 83.3029 19.675 83.6197 19.6245 83.7987C19.6107 83.661 19.5946 83.521 19.574 83.3833C19.6061 83.3924 19.652 82.0544 20.3681 81.7675Z" fill="#263238"/>
<path d="M17.6083 81.4068C18.3175 80.9823 19.185 81.9921 19.1643 82.015C19.2171 82.1459 19.2653 82.2767 19.3112 82.4075C19.1919 82.2629 18.7466 82.1275 18.127 82.1757C17.5096 82.2032 16.9197 81.7901 17.6083 81.4068Z" fill="#263238"/>
<path d="M19.7082 80.2663C20.4197 79.8738 20.5735 80.9824 20.08 81.4115C19.6141 81.8499 19.341 82.2217 19.3204 82.4053C19.2836 82.2699 19.2446 82.1368 19.201 82.0014C19.2377 82.006 19.0518 80.6702 19.7082 80.2663Z" fill="#263238"/>
<path d="M18.8776 81.2524C18.8982 81.2593 18.71 80.0636 18.3428 79.5128C17.9985 78.9596 17.5028 79.0882 17.3812 79.3452C17.2549 79.6023 17.5097 79.9764 17.7851 80.2403C18.0789 80.479 18.8867 81.2364 18.8776 81.2524Z" fill="#263238"/>
<path d="M18.857 81.294C18.8592 81.294 18.8615 81.2963 18.8615 81.2963C18.8799 81.3009 18.9006 81.2963 18.912 81.2803C18.912 81.2803 18.9143 81.278 18.9143 81.2757C18.9212 81.2642 18.9258 81.2573 18.9189 81.2413C18.9235 81.0186 18.694 79.9629 18.3796 79.4901C18.2097 79.2193 17.9733 79.0701 17.7324 79.0839C17.5579 79.0931 17.4042 79.1895 17.3376 79.3295C17.1655 79.676 17.6107 80.1419 17.7507 80.275C18.0353 80.5068 18.772 81.1977 18.8317 81.2734C18.8386 81.2803 18.8478 81.2895 18.857 81.294ZM17.9711 79.2193C18.0766 79.2675 18.1937 79.3616 18.3038 79.5383C18.593 79.9744 18.7674 80.8052 18.8179 81.1219C18.7514 81.0554 18.6435 80.9544 18.476 80.796C18.2579 80.594 17.9711 80.3324 17.815 80.2039C17.5511 79.9514 17.3078 79.5957 17.4225 79.3639C17.4753 79.2537 17.5992 79.178 17.7392 79.1711C17.7966 79.1688 17.8792 79.1757 17.9711 79.2193Z" fill="#263238"/>
<path d="M165.269 89.1182H8.32637" stroke="#263238" stroke-width="0.229508" stroke-miterlimit="10" stroke-linecap="round" stroke-linejoin="round"/>
<path d="M127.031 63.5377H46.9094C41.851 63.5377 37.752 59.4364 37.752 54.3803V15.6784C37.752 10.62 41.8533 6.521 46.9094 6.521H127.031C132.089 6.521 136.188 10.6223 136.188 15.6784V54.3803C136.19 59.4364 132.089 63.5377 127.031 63.5377Z" fill="white"/>
<path d="M127.062 7.86572H46.7936C42.348 7.86572 38.7447 11.4713 38.7447 15.9169V29.9169V40.6372V54.0956C38.7447 58.5411 42.348 62.1467 46.7936 62.1467H127.064C131.512 62.1467 135.115 58.5411 135.115 54.0956V15.9146C135.113 11.4713 131.51 7.86572 127.062 7.86572Z" fill="#D6D6D6"/>
<path d="M97.5364 28.8606H72.139V17.2016C72.139 16.9951 72.0197 16.8069 71.8315 16.722L52.4702 7.86753H49.9341L71.0856 17.5413V28.8629H38.7479V29.9187H51.7518C50.7121 40.4485 55.6787 46.6177 60.0784 49.9502C63.8767 52.8259 67.8128 54.1043 69.4262 54.5426L64.5951 62.1508H65.8459L74.4961 48.5272V48.5295H89.9282L87.4449 62.1462H88.5167L94.3944 29.9164H97.2862L123.032 62.1462H124.382L112.739 47.5702L127.77 36.462C127.907 36.361 127.983 36.2026 127.983 36.0374C127.983 35.9938 127.978 35.9502 127.967 35.9065L123.482 18.3951H135.118V17.3393H113.274C113.074 17.3393 112.893 17.4518 112.803 17.6285L110.813 21.5623L103.476 14.8377L106.157 7.86523H105.028L102.363 14.7941C102.285 14.9961 102.338 15.2256 102.498 15.3724L110.315 22.5377L103.501 36.0075L97.9495 29.058C97.8485 28.9341 97.697 28.8606 97.5364 28.8606ZM113.595 18.3928H122.39L126.854 35.8239L112.078 46.7462L104.227 36.9164L113.595 18.3928ZM93.318 29.9164L90.1164 47.4761H75.157L86.3066 29.9164H93.318ZM85.0534 29.9164L70.0161 53.6016C68.7744 53.2849 64.6226 52.0662 60.7118 49.1056C54.6275 44.4993 51.9721 38.0433 52.8075 29.9164H85.0534Z" fill="white"/>
<path d="M86.6783 7.86523V9.44425L96.6527 13.4331V21.4085L86.8986 17.1993V23.4029H77.3717V14.0964L65.272 7.86523H86.6783Z" fill="#C4C4C4"/>
<path d="M48.0647 52.1906V60.104H54.6585V52.1906H48.0647Z" fill="#C4C4C4"/>
<path d="M48.0643 45.1739V50.8726H52.8128V45.1739H48.0643Z" fill="#C4C4C4"/>
<path d="M69.066 51.2192L81.7142 31.6353H55.1945C55.1945 31.6353 53.8358 45.6421 69.066 51.2192Z" fill="#C4C4C4"/>
<path d="M48.0629 39.7931V43.4858H51.1406V39.7931H48.0629Z" fill="#C4C4C4"/>
<path d="M110.054 32.9341L115.066 40.0558L122.452 36.099L121.66 21.8558L114.802 21.064L112.427 26.6043L116.12 28.9774L114.802 31.3505L110.846 29.2413L110.054 32.9341Z" fill="#C4C4C4"/>
<path d="M95.1746 55.7563H109.425L112.675 62.1459H94.8739L95.1746 55.7563Z" fill="#C4C4C4"/>
<path d="M104.017 45.1211H95.6748L95.2594 53.9847H108.525L104.017 45.1211Z" fill="#C4C4C4"/>
<path d="M95.7368 43.7922H103.343L100.639 38.4722H95.9847L95.7368 43.7922Z" fill="#C4C4C4"/>
<path d="M52.601 8.37207L52.9131 8.51666" stroke="#263238" stroke-width="0.459016" stroke-linejoin="round"/>
<path d="M53.5446 8.80859L70.9229 16.846" stroke="#263238" stroke-width="0.459016" stroke-linejoin="round" stroke-dasharray="0.7 0.7"/>
<path d="M71.2396 16.9902L71.5517 17.1348V17.4791" stroke="#263238" stroke-width="0.459016" stroke-linejoin="round"/>
<path d="M71.5515 18.1558V28.6512" stroke="#263238" stroke-width="0.459016" stroke-linejoin="round" stroke-dasharray="0.68 0.68"/>
<path d="M71.5515 28.9893V29.3335H71.2073" stroke="#263238" stroke-width="0.459016" stroke-linejoin="round"/>
<path d="M70.5189 29.3335H52.973" stroke="#263238" stroke-width="0.459016" stroke-linejoin="round" stroke-dasharray="0.69 0.69"/>
<path d="M52.6285 29.3335H52.2843C52.2843 29.3335 52.2567 29.4505 52.2177 29.6709" stroke="#263238" stroke-width="0.459016" stroke-linejoin="round"/>
<path d="M52.1191 30.3433C51.7611 33.1249 51.4191 41.1095 57.8912 47.4531C62.385 51.8574 67.8312 53.5397 69.6994 54.0124" stroke="#263238" stroke-width="0.459016" stroke-linejoin="round" stroke-dasharray="0.68 0.68"/>
<path d="M70.0297 54.0925C70.2477 54.143 70.3648 54.166 70.3648 54.166L70.5484 53.8745" stroke="#263238" stroke-width="0.459016" stroke-linejoin="round"/>
<path d="M70.9271 53.2825L85.7832 29.8818" stroke="#263238" stroke-width="0.459016" stroke-linejoin="round" stroke-dasharray="0.7 0.7"/>
<path d="M85.9716 29.5854L86.1575 29.2939H86.5017" stroke="#263238" stroke-width="0.459016" stroke-linejoin="round"/>
<path d="M87.1926 29.2939H96.5198" stroke="#263238" stroke-width="0.459016" stroke-linejoin="round" stroke-dasharray="0.69 0.69"/>
<path d="M96.8665 29.2939H97.2107L97.4265 29.5625" stroke="#263238" stroke-width="0.459016" stroke-linejoin="round"/>
<path d="M97.8464 30.0884L113.63 49.7985" stroke="#263238" stroke-width="0.459016" stroke-linejoin="round" stroke-dasharray="0.67 0.67"/>
<path d="M113.841 50.062L114.056 50.3305" stroke="#263238" stroke-width="0.459016" stroke-linejoin="round"/>
<path d="M52.6708 30.4768L49.9581 32.4482L47.4863 30.5364L47.484 30.5342C46.3663 29.7378 45.6341 28.4296 45.6341 26.9515C45.6341 24.5256 47.601 22.561 50.0246 22.561C52.4505 22.561 54.4151 24.5256 54.4151 26.9515C54.4197 28.4066 53.761 29.6781 52.6708 30.4768Z" fill="white" stroke="#263238" stroke-width="0.229508" stroke-miterlimit="10" stroke-linecap="round" stroke-linejoin="round"/>
<path d="M46.1734 26.9241C46.1734 27.8605 46.5062 28.7189 47.0616 29.3891C47.7708 30.2428 48.8403 30.7868 50.036 30.7868C51.14 30.7868 52.1337 30.3255 52.8383 29.5841C53.497 28.891 53.8986 27.9523 53.8986 26.9241C53.8986 24.7897 52.1705 23.0615 50.036 23.0615C47.9039 23.0592 46.1734 24.7897 46.1734 26.9241Z" fill="#A8E2FF" stroke="#263238" stroke-width="0.229508" stroke-miterlimit="10" stroke-linejoin="round"/>
<path d="M50.0359 30.7867C50.9884 30.7867 51.8605 30.4425 52.5353 29.8687C52.409 28.5628 51.3097 27.5415 49.9694 27.5415C48.6658 27.5415 47.594 28.5077 47.4195 29.7631C48.108 30.3966 49.0261 30.7867 50.0359 30.7867Z" fill="#263238" stroke="#263238" stroke-width="0.229508" stroke-miterlimit="10" stroke-linejoin="round"/>
<path d="M51.6519 26.0697C51.8025 25.1413 51.1721 24.2666 50.2437 24.1159C49.3153 23.9653 48.4406 24.5957 48.2899 25.5241C48.1392 26.4525 48.7697 27.3272 49.6981 27.4779C50.6265 27.6286 51.5012 26.9981 51.6519 26.0697Z" fill="#263238" stroke="#263238" stroke-width="0.229508" stroke-miterlimit="10" stroke-linejoin="round"/>
<path d="M83.8203 41.9177L81.1075 43.8892L78.6357 41.9774L78.6334 41.9751C77.5157 41.1787 76.7835 39.8705 76.7835 38.3924C76.7835 35.9665 78.7504 34.002 81.174 34.002C83.5999 34.002 85.5645 35.9665 85.5645 38.3924C85.5691 39.8475 84.9104 41.119 83.8203 41.9177Z" fill="white" stroke="#263238" stroke-width="0.229508" stroke-miterlimit="10" stroke-linecap="round" stroke-linejoin="round"/>
<path d="M77.3226 38.3626C77.3226 39.299 77.6554 40.1574 78.2108 40.8275C78.92 41.6813 79.9895 42.2252 81.1852 42.2252C82.2891 42.2252 83.2829 41.7639 83.9875 41.0226C84.6462 40.3295 85.0478 39.3908 85.0478 38.3626C85.0478 36.2282 83.3196 34.5 81.1852 34.5C79.0531 34.5 77.3226 36.2305 77.3226 38.3626Z" fill="#A8E2FF" stroke="#263238" stroke-width="0.229508" stroke-miterlimit="10" stroke-linejoin="round"/>
<path d="M81.1851 42.2277C82.1376 42.2277 83.0097 41.8834 83.6845 41.3096C83.5583 40.0037 82.4589 38.9824 81.1186 38.9824C79.815 38.9824 78.7432 39.9487 78.5688 41.2041C79.2573 41.8375 80.1753 42.2277 81.1851 42.2277Z" fill="#263238" stroke="#263238" stroke-width="0.229508" stroke-miterlimit="10" stroke-linejoin="round"/>
<path d="M81.1189 38.9406C82.0594 38.9406 82.8219 38.1781 82.8219 37.2376C82.8219 36.2971 82.0594 35.5347 81.1189 35.5347C80.1784 35.5347 79.416 36.2971 79.416 37.2376C79.416 38.1781 80.1784 38.9406 81.1189 38.9406Z" fill="#263238" stroke="#263238" stroke-width="0.229508" stroke-miterlimit="10" stroke-linejoin="round"/>
<path d="M103.369 40.6665C103.121 40.9328 102.917 41.2518 102.919 41.3551C102.921 41.4606 104.193 43.2118 104.369 43.4275C104.546 43.6433 105.03 44.0495 105.03 44.0495L108.519 48.2885C108.404 48.339 108.113 48.4652 108.055 48.4974C107.982 48.5364 108.145 48.658 108.329 48.6741C108.512 48.6924 108.788 48.6144 108.788 48.6144L110.867 51.038C110.867 51.038 111.509 51.2515 112.003 51.0793C112.496 50.9072 113.355 50.3495 114.057 49.6839C114.762 49.0183 114.98 48.8187 114.98 48.8187C114.98 48.8187 115.122 48.681 115.152 48.6144C115.182 48.5478 115.427 47.4554 115.312 47.2098C115.195 46.9665 115.085 46.9092 115.085 46.9092C115.085 46.9092 113.486 44.9377 113.401 44.8367C113.398 44.8344 113.396 44.8298 113.391 44.8275C113.437 44.738 113.577 44.4626 113.587 44.3662C113.598 44.2515 113.488 44.0656 113.437 44.1069C113.391 44.1436 113.164 44.4511 113.116 44.5154L109.543 40.1226C109.543 40.1226 109.107 39.4639 108.824 39.1219C108.544 38.78 107.585 37.7449 107.392 37.6921C107.199 37.6393 107.039 37.7288 107.002 37.7587C106.963 37.7908 105.76 38.5688 105.347 38.8672C104.934 39.1656 103.614 40.4003 103.369 40.6665Z" fill="#263238" stroke="#263238" stroke-width="0.229508" stroke-miterlimit="10" stroke-linecap="round" stroke-linejoin="round"/>
<path d="M112.568 44.6551L112.836 44.6459L110.851 42.2085L110.218 42.3921C110.218 42.3898 112.155 44.4852 112.568 44.6551Z" fill="white"/>
<path d="M109.882 42.0091L110.445 41.7383L108.312 39.3789C108.312 39.3789 108.48 40.2786 108.565 40.3796C108.645 40.4805 109.882 42.0091 109.882 42.0091Z" fill="white"/>
<path d="M104.175 41.7226C104.175 41.7226 104.354 41.321 104.735 40.9859C105.116 40.6508 106.878 39.159 107.059 39.0947C107.241 39.0305 107.631 39.0695 107.631 39.0695C107.631 39.0695 107.418 38.5026 107.227 38.3213C107.034 38.14 106.752 38.1813 106.679 38.2226C106.605 38.2616 105.065 39.3816 104.666 39.7718C104.266 40.1642 103.585 40.8298 103.541 40.9308C103.498 41.0318 103.589 41.4013 103.683 41.4908C103.78 41.5803 104.175 41.7226 104.175 41.7226Z" fill="white"/>
<path d="M104.434 42.5283C104.434 42.5283 105.111 42.8611 105.219 42.9414C105.326 43.0218 106.685 44.6191 106.685 44.6191L106.277 45.1034L104.909 43.366L104.434 42.5283Z" fill="white"/>
<path d="M106.676 45.5369L106.995 44.9976C106.995 44.9976 107.766 46.0372 107.936 46.3218C108.106 46.6064 108.776 47.7287 108.776 47.7287L108.712 48.0362L106.676 45.5369Z" fill="white"/>
<path d="M108.319 46.4754C108.319 46.4754 110.536 44.9676 111.335 43.9302L113.334 45.741C113.334 45.741 113.584 46.0439 113.589 46.1036C113.596 46.1633 113.591 46.3125 113.591 46.3125C113.591 46.3125 113.086 47.4508 112.391 47.9994C111.698 48.5479 110.529 49.0643 110.401 49.0849C110.27 49.1079 110.057 49.0276 110.057 49.0276L109.738 48.8462L108.319 46.4754Z" fill="white"/>
<path d="M114.204 46.5122C114.204 46.5122 114.631 47.5197 114.649 47.9283C114.667 48.3368 114.599 48.564 114.599 48.564C114.599 48.564 114.927 48.1876 114.947 47.9581C114.97 47.7286 114.959 47.483 114.883 47.3109C114.805 47.1411 114.204 46.5122 114.204 46.5122Z" fill="white"/>
<path d="M110.296 49.7275C110.296 49.7275 111.156 50.3357 111.425 50.4298C111.696 50.5262 112.159 50.5239 112.159 50.5239C112.159 50.5239 111.744 50.7397 111.601 50.7488C111.461 50.758 110.922 50.5675 110.812 50.4872C110.706 50.4069 110.309 49.8216 110.296 49.7275Z" fill="white"/>
<path d="M78.2854 63.6817C78.2854 63.6817 76.0799 69.3093 75.5566 71.0948C75.031 72.8781 74.8221 75.607 74.8221 75.607L91.652 77.3099C91.652 77.3099 94.5484 76.5502 94.3395 74.9781C94.1307 73.4037 92.2418 70.4752 89.6185 67.9483C86.9953 65.4214 83.0087 63.3306 81.7487 63.3306C80.4887 63.3306 78.2854 63.6817 78.2854 63.6817Z" fill="#757575" stroke="#263238" stroke-width="0.229508" stroke-miterlimit="10" stroke-linecap="round" stroke-linejoin="round"/>
<path d="M137.299 69.7012L138.291 74.211L134.55 74.9799L137.299 69.7012Z" fill="#263238" stroke="#263238" stroke-width="0.229508" stroke-miterlimit="10" stroke-linecap="round" stroke-linejoin="round"/>
<path d="M148.6 74.5602C147.875 72.5038 146.787 72.3845 146.787 72.3845L143.643 64.2852C143.643 64.2852 140.136 64.7694 138.685 65.9766C137.235 67.1861 133.85 74.9229 133.85 74.9229L136.51 91.7275C136.51 91.7275 147.512 89.4301 147.875 89.1891C148.238 88.9481 148.6 86.6507 148.722 85.2002C148.843 83.7497 149.325 76.6166 148.6 74.5602ZM135.211 74.2665C135.211 74.2665 138.07 68.1088 138.729 67.2275C139.39 66.3484 140.489 65.8527 140.489 65.8527L142.764 65.334L145.054 72.6714L135.211 74.2665Z" fill="#A8E2FF" stroke="#263238" stroke-width="0.229508" stroke-miterlimit="10" stroke-linecap="round" stroke-linejoin="round"/>
<path d="M135.1 74.7601L138.29 74.2093C138.29 74.2093 139.555 71.7902 139.941 71.4598C140.326 71.1293 140.875 70.7988 141.811 71.0191C142.745 71.2394 144.726 72.3388 144.616 73.0548C144.505 73.7686 144.34 73.9889 143.296 74.1542C142.252 74.3194 139.502 74.3194 139.502 74.3194C139.502 74.3194 138.788 75.4738 138.623 75.6942C138.458 75.9145 135.763 76.7935 135.763 76.7935C135.763 76.7935 135.431 75.9145 135.1 74.7601Z" fill="#263238" stroke="#263238" stroke-width="0.229508" stroke-miterlimit="10" stroke-linecap="round" stroke-linejoin="round"/>
<path d="M124.289 99.3495C124.289 99.3495 123.634 99.9347 123.325 100.176C123.015 100.417 122.498 100.864 121.984 101.036C121.468 101.208 121.192 101.312 121.227 101.587C121.261 101.863 121.261 102.138 121.433 102.172C121.606 102.207 127.795 102.172 127.795 102.172C127.795 102.172 127.968 101.897 127.933 101.277C127.899 100.658 127.692 100.176 127.692 100.176C127.692 100.176 126.111 99.7281 125.422 99.3495C124.736 98.9708 124.289 99.3495 124.289 99.3495Z" fill="white" stroke="#263238" stroke-width="0.229508" stroke-miterlimit="10" stroke-linecap="round" stroke-linejoin="round"/>
<path d="M127.899 101.86H121.259C121.282 102.021 121.321 102.147 121.433 102.17C121.606 102.204 127.795 102.17 127.795 102.17C127.795 102.17 127.857 102.069 127.899 101.86Z" fill="white" stroke="#263238" stroke-width="0.229508" stroke-miterlimit="10" stroke-linecap="round" stroke-linejoin="round"/>
<path d="M122.259 75.8916C122.259 75.8916 121.811 78.7811 122.259 81.7739C122.707 84.7667 123.188 86.8988 123.188 86.8988C123.188 86.8988 123.877 89.8916 123.946 90.8532C124.015 91.8172 124.669 96.9077 124.634 97.0087C124.6 97.1119 124.531 97.3529 124.531 97.525C124.531 97.6972 124.084 97.9382 124.152 98.1447C124.221 98.3513 124.29 99.3496 124.29 99.3496C124.29 99.3496 125.082 99.2119 125.426 99.3496C125.77 99.4873 127.317 100.038 127.317 100.038L127.696 100.176C127.696 100.176 128.109 99.866 128.109 99.3841C128.109 98.9021 127.489 98.3513 127.489 98.3513C127.489 98.3513 127.903 98.1791 127.937 98.007C127.971 97.8349 127.765 97.2152 127.765 97.1119C127.765 97.0086 127.696 95.9759 127.696 95.7716C127.696 95.5673 127.73 92.9509 127.73 92.6411C127.73 92.3313 127.421 87.585 127.421 87.585L127.076 84.1447C127.076 84.1447 127.903 88.0303 128.247 89.2696C128.591 90.5067 129.587 95.7005 129.622 95.8726C129.656 96.0447 129.794 97.385 129.759 97.4883C129.725 97.5916 129.346 97.8326 129.381 97.9703C129.415 98.108 129.656 99.827 129.656 99.827L132.132 100.034C132.132 100.034 132.408 99.5172 132.546 99.1385C132.683 98.7598 132.442 98.4155 132.442 98.2778C132.442 98.1401 132.649 98.1746 132.58 97.6237C132.511 97.0729 132.442 96.6254 132.442 96.6254C132.442 96.6254 132.27 96.35 132.236 95.3883C132.201 94.4244 132.752 91.7759 132.373 90.2634C131.995 88.7509 131.547 87.4772 131.513 85.827C131.478 84.1768 131.478 81.0808 131.341 80.2546C131.203 79.4283 130.983 76.8464 130.983 76.8464L130.893 76.47L122.259 75.8916Z" fill="#8C8C8C" stroke="#263238" stroke-width="0.229508" stroke-miterlimit="10" stroke-linecap="round" stroke-linejoin="round"/>
<path d="M125.217 80.6377L126.523 81.2574L126.971 83.7682" stroke="#263238" stroke-width="0.229508" stroke-miterlimit="10" stroke-linecap="round" stroke-linejoin="round"/>
<path d="M129.929 99.3148C129.929 99.3148 129.688 100.175 129.447 100.586C129.206 100.999 128.828 101.24 128.724 101.481C128.621 101.722 128.655 102.17 128.655 102.17H132.334C132.334 102.17 132.61 101.826 132.61 100.999C132.61 100.173 132.3 99.7623 132.025 99.2804C131.751 98.7984 130.822 98.4541 129.929 99.3148Z" fill="white" stroke="#263238" stroke-width="0.229508" stroke-miterlimit="10" stroke-linecap="round" stroke-linejoin="round"/>
<path d="M132.532 101.702L132.474 101.688H128.671C128.637 101.915 128.655 102.17 128.655 102.17H132.334C132.337 102.17 132.449 102.023 132.532 101.702Z" fill="white" stroke="#263238" stroke-width="0.229508" stroke-miterlimit="10" stroke-linecap="round" stroke-linejoin="round"/>
<path d="M124.622 61.1066C124.622 61.1066 123.943 61.8066 123.403 62.1027C122.864 62.3987 121.973 62.6696 121.813 62.9932C121.65 63.3168 121.462 65.5545 121.705 66.7135C121.948 67.8725 122.244 68.6827 122.244 68.6827L122.432 72.9699L122.136 76.2587C122.136 76.2587 125.4 76.6902 127.475 76.9335C129.55 77.1768 130.979 76.8532 130.979 76.8532C130.979 76.8532 131.087 74.884 131.115 73.8604C131.142 72.8368 131.195 68.0079 131.195 68.0079L132.841 70.7574C132.841 70.7574 133.986 71.4987 135.84 70.3007C136.364 69.9633 134.353 67.8082 134.218 67.1335C134.082 66.4587 133.217 65.0128 133.217 65.0128C133.217 65.0128 132.517 62.9105 131.978 62.3712C131.438 61.8319 130.711 61.6964 129.928 61.5886C129.146 61.4807 127.856 60.9482 127.856 60.9482L124.622 61.1066Z" fill="#A8E2FF" stroke="#263238" stroke-width="0.229508" stroke-miterlimit="10" stroke-linecap="round" stroke-linejoin="round"/>
<path d="M134.064 67.9067C134.064 67.9067 133.215 68.0215 132.983 69.4903" stroke="#263238" stroke-width="0.229508" stroke-miterlimit="10" stroke-linecap="round" stroke-linejoin="round"/>
<path d="M132.441 68.487C132.441 68.487 133.02 67.9087 133.678 67.9087" stroke="#263238" stroke-width="0.229508" stroke-miterlimit="10" stroke-linecap="round" stroke-linejoin="round"/>
<path d="M122.329 55.7589C122.329 55.7589 122.396 58.0953 122.487 58.4763C122.577 58.8573 123.206 59.6445 123.477 60.0048C123.745 60.3651 124.307 60.4547 124.376 60.4547C124.443 60.4547 124.624 60.7232 124.624 61.1065C124.624 61.4897 124.466 61.5563 124.489 62.6556C124.512 63.7573 124.668 64.7006 124.668 64.7006C124.668 64.7006 125.32 64.2737 126.442 63.0596C127.564 61.8455 127.858 60.9481 127.858 60.9481C127.858 60.9481 127.364 60.4983 127.206 59.9819C127.048 59.4655 127.071 58.1619 127.071 58.1619C127.071 58.1619 127.879 57.533 127.924 57.1727C127.97 56.8124 127.633 56.1399 127.633 56.1399C127.633 56.1399 127.252 54.7927 126.825 54.1179C126.398 53.4432 126.332 53.1081 124.916 53.4891C123.5 53.8701 123.006 53.9619 122.556 54.297C122.106 54.6343 122.04 55.0383 122.04 55.0383L122.329 55.7589Z" fill="white" stroke="#263238" stroke-width="0.229508" stroke-miterlimit="10" stroke-linecap="round" stroke-linejoin="round"/>
<path d="M124.374 60.4546C124.374 60.4546 124.801 60.4087 125.049 60.3421C125.297 60.2755 125.632 60.1401 125.632 60.1401L124.622 61.1064L124.374 60.4546Z" fill="#263238" stroke="#263238" stroke-width="0.229508" stroke-miterlimit="10" stroke-linecap="round" stroke-linejoin="round"/>
<path d="M123.149 58.3159C123.149 58.3159 123.307 58.5638 123.53 58.4743C123.754 58.3848 123.881 58.3228 123.881 58.3228" stroke="#263238" stroke-width="0.229508" stroke-miterlimit="10" stroke-linecap="round" stroke-linejoin="round"/>
<path d="M123.768 58.972C123.768 58.972 124.576 59.0844 125.049 58.4097" stroke="#263238" stroke-width="0.229508" stroke-miterlimit="10" stroke-linecap="round" stroke-linejoin="round"/>
<path d="M124.06 56.5458C124.06 56.5458 124.778 56.3439 125.162 56.5458" stroke="#263238" stroke-width="0.229508" stroke-miterlimit="10" stroke-linecap="round" stroke-linejoin="round"/>
<path d="M123.117 56.6353C123.117 56.6353 122.736 56.3875 122.511 56.6812" stroke="#263238" stroke-width="0.229508" stroke-miterlimit="10" stroke-linecap="round" stroke-linejoin="round"/>
<path d="M122.901 57.1773C122.919 57.3265 122.869 57.4527 122.791 57.4642C122.713 57.4734 122.632 57.3609 122.616 57.2117C122.598 57.0625 122.648 56.9363 122.726 56.9248C122.804 56.9157 122.882 57.0304 122.901 57.1773Z" fill="#263238"/>
<path d="M124.505 57.1148C124.523 57.264 124.473 57.3902 124.395 57.4017C124.317 57.4109 124.237 57.2984 124.221 57.1492C124.202 57 124.253 56.8738 124.331 56.8623C124.409 56.8532 124.487 56.9656 124.505 57.1148Z" fill="#263238"/>
<path d="M125.588 54.3683C125.588 54.3683 124.824 54.9512 124.578 54.9971C124.33 55.043 123.456 54.7493 123.141 54.7286C122.827 54.7057 122.242 55.1784 122.242 55.1784L122.331 55.7637C122.331 55.7637 121.477 55.5617 121.298 55.2243C121.119 54.887 121.725 54.4371 121.702 54.3247C121.679 54.2122 121.365 53.7853 121.59 53.6499C121.815 53.5145 122.804 53.2001 122.804 53.2001C122.804 53.2001 123.32 52.1214 123.681 52.0984C124.041 52.0755 124.714 52.2109 124.714 52.2109C124.714 52.2109 125.074 51.8735 125.501 51.9424C125.928 52.0089 126.556 52.7961 126.556 52.7961C126.556 52.7961 127.5 52.7066 127.679 53.1106C127.858 53.5145 128.039 54.0538 127.904 54.4807C127.768 54.9076 127.635 55.8073 127.635 55.8073V56.1447C127.635 56.1447 127.254 56.2112 127.073 56.3696C126.894 56.5279 126.914 56.6611 126.781 56.7735C126.646 56.886 126.579 56.886 126.49 56.8401C126.4 56.7942 126.354 56.6611 126.311 56.3902C126.265 56.1217 126.221 56.0529 126.042 55.9863C125.863 55.9198 125.615 55.7843 125.436 55.5824C125.257 55.3804 125.033 55.2014 125.168 55.0201C125.303 54.8388 125.588 54.3683 125.588 54.3683Z" fill="#263238" stroke="#263238" stroke-width="0.229508" stroke-miterlimit="10" stroke-linecap="round" stroke-linejoin="round"/>
<path d="M130.196 66.6055L131.195 68.0078L129.524 67.4409" stroke="#263238" stroke-width="0.229508" stroke-miterlimit="10" stroke-linecap="round" stroke-linejoin="round"/>
<path d="M85.4489 76.4996C85.364 76.2311 88.1158 76.6557 88.1158 76.6557C88.1158 76.6557 88.9856 72.8137 88.7446 72.3983C88.5014 71.9829 86.2545 71.1957 86.2545 71.1957L81.0309 70.918C81.0309 70.918 78.7817 71.8704 78.7473 72.1114C78.7289 72.2399 77.2624 74.0554 76.6381 75.4921L85.4489 76.4996Z" fill="#B2B2B2" stroke="#263238" stroke-width="0.229508" stroke-miterlimit="10" stroke-linecap="round" stroke-linejoin="round"/>
<path d="M82.1161 70.7159C82.1161 70.7159 81.7879 71.0441 81.7879 71.9713C81.7879 72.9008 82.3892 74.1012 82.3892 74.1012L84.464 73.0087L86.8738 74.2435C86.8738 74.2435 87.1148 71.9461 86.2518 71.1933C85.3935 70.4428 82.6072 70.0618 82.1161 70.7159Z" fill="white" stroke="#263238" stroke-width="0.229508" stroke-miterlimit="10" stroke-linecap="round" stroke-linejoin="round"/>
<path d="M82.4786 71.1334C82.4786 71.1334 82.9193 72.3957 83.376 73.254C83.8327 74.1124 84.8609 74.7389 84.8609 74.7389C84.8609 74.7389 85.375 73.0245 85.4324 72.1662C85.4898 71.3078 85.375 70.8511 85.375 70.8511L82.4786 71.1334Z" fill="white" stroke="#263238" stroke-width="0.229508" stroke-miterlimit="10" stroke-linecap="round" stroke-linejoin="round"/>
<path d="M80.8914 68.8361C80.8914 68.8361 81.0819 70.7227 81.2747 70.8879C81.4652 71.0509 82.4773 71.1335 82.4773 71.1335L84.6645 71.2712C84.8826 70.8604 85.0203 68.5102 84.2537 66.704C83.4871 64.9 82.5301 64.5994 82.3396 64.9276C82.3396 64.9276 81.2173 66.4584 81.2724 66.7866C81.3275 67.1148 81.4353 67.2778 81.3826 67.443C81.3275 67.6059 80.6711 67.9089 80.5885 68.2096C80.5081 68.5079 80.8914 68.8361 80.8914 68.8361Z" fill="white" stroke="#263238" stroke-width="0.229508" stroke-miterlimit="10" stroke-linecap="round" stroke-linejoin="round"/>
<path d="M81.4125 69.1921C81.4125 69.1921 82.0138 69.1921 82.3145 68.9189" stroke="#263238" stroke-width="0.229508" stroke-miterlimit="10" stroke-linecap="round" stroke-linejoin="round"/>
<path d="M81.876 67.4956C81.876 67.4956 82.1767 67.413 82.3672 67.6058" stroke="#263238" stroke-width="0.229508" stroke-miterlimit="10" stroke-linecap="round" stroke-linejoin="round"/>
<path d="M81.6855 66.8947C81.6855 66.8947 82.2042 66.4036 82.5048 67.0577" stroke="#263238" stroke-width="0.229508" stroke-miterlimit="10" stroke-linecap="round" stroke-linejoin="round"/>
<path d="M82.343 64.9255C82.343 64.9255 82.561 66.7845 83.1899 68.1248C83.8187 69.4651 84.1194 69.8759 84.1194 69.8759C84.1194 69.8759 84.1194 70.9432 83.7912 71.2438C83.463 71.5445 83.1073 71.5169 83.1073 71.5169C83.1073 71.5169 82.724 72.0632 83.9542 72.2284C85.1843 72.3914 85.5125 71.8176 85.9509 71.7625C86.3892 71.7074 86.6073 71.79 86.6073 71.79C86.6073 71.79 86.7174 71.4618 86.6348 71.1061C86.5522 70.7504 86.4971 70.4773 86.4971 70.4773C86.4971 70.4773 87.3164 69.5202 87.2912 68.4255C87.2637 67.3307 87.5919 66.7018 86.9905 65.4166C86.3892 64.1314 83.2174 63.9133 82.6161 63.8858C82.0148 63.8582 81.9322 63.9133 81.6591 64.3517C81.386 64.79 80.5919 65.4464 80.5919 65.9376C80.5919 66.4287 81.386 67.4409 81.386 67.4409L81.2758 66.7845C81.2758 66.7845 81.9322 65.6645 82.343 64.9255Z" fill="#263238" stroke="#263238" stroke-width="0.229508" stroke-miterlimit="10" stroke-linecap="round" stroke-linejoin="round"/>
<path d="M102.297 95.6889C76.4724 94.8696 55.539 96.841 55.539 100.093C55.539 101.466 59.2685 102.847 65.5203 104.048C59.8698 104.162 55.7478 104.516 55.7478 104.936C55.7478 105.448 61.8872 105.863 69.4586 105.863C72.199 105.863 74.7488 105.808 76.8901 105.714C84.2045 106.542 92.9282 107.167 102.294 107.465C128.119 108.284 149.052 106.313 149.052 103.061C149.052 99.8086 128.119 96.5106 102.297 95.6889Z" fill="#263238" stroke="#263238" stroke-width="0.229508" stroke-miterlimit="10" stroke-linecap="round" stroke-linejoin="round"/>
<path d="M56.7209 91.482C56.7209 91.482 57.2901 92.7145 57.6963 93.1345C58.1026 93.5545 65.4377 95.3699 65.4377 95.3699L89.2055 100.573L92.0859 100.265L102.152 100.587C102.152 100.587 104.16 95.6728 101.968 90.8325C99.7744 85.9922 88.8085 84.101 85.7078 85.0833C82.6072 86.0656 75.3455 89.242 70.1265 87.5046C64.9075 85.7649 60.7488 82.3613 59.0091 82.8158C57.2695 83.2702 56.4386 86.0679 56.4386 87.2774C56.4363 88.4869 56.7209 91.482 56.7209 91.482Z" fill="#263238" stroke="#263238" stroke-width="0.229508" stroke-miterlimit="10" stroke-linecap="round" stroke-linejoin="round"/>
<path d="M107.818 98.2132C107.611 93.2168 104.269 89.1591 100.354 89.1499H96.1082L96.1816 90.9401C94.5223 92.5856 93.5147 95.2135 93.6387 98.1788C93.7626 101.144 94.9882 103.776 96.7829 105.431L96.8587 107.242H101.102C105.02 107.251 108.024 103.21 107.818 98.2132Z" fill="#263238" stroke="#263238" stroke-width="0.229508" stroke-miterlimit="10" stroke-linecap="round" stroke-linejoin="round"/>
<path d="M97.4753 107.209C101.357 106.78 104.057 102.396 103.506 97.4188C102.955 92.4413 99.3619 88.7545 95.4804 89.1841C91.5989 89.6137 88.899 93.997 89.4499 98.9745C90.0007 103.952 93.5939 107.639 97.4753 107.209Z" fill="#878787" stroke="#263238" stroke-width="0.229508" stroke-miterlimit="10" stroke-linecap="round" stroke-linejoin="round"/>
<path d="M101.97 101.272C102.039 101.047 102.101 100.818 102.151 100.584C102.204 100.35 102.245 100.109 102.28 99.8653C102.351 99.3328 102.381 98.7797 102.358 98.2083C102.307 96.9942 102.032 95.8489 101.589 94.8345C101.584 94.8253 101.58 94.8161 101.578 94.807C101.479 94.582 101.371 94.364 101.256 94.1529C101.249 94.1391 101.242 94.1276 101.236 94.1138C101.121 93.905 100.997 93.703 100.868 93.5102C100.862 93.501 100.855 93.4896 100.848 93.4781C99.7002 91.7866 98.0156 90.7033 96.1772 90.6988C94.6028 90.6942 93.2074 91.4837 92.2067 92.7666C92.1402 92.8515 92.0759 92.9388 92.014 93.0283C91.952 93.1178 91.89 93.2073 91.8326 93.3014C91.8326 93.3014 91.8326 93.3037 91.8304 93.3037C91.773 93.3955 91.7156 93.4896 91.6628 93.5837C91.6605 93.586 91.6605 93.5883 91.6582 93.5906C91.6054 93.6847 91.5549 93.7788 91.5044 93.8774C91.5022 93.882 91.4999 93.8866 91.4976 93.8912C91.4494 93.9853 91.4035 94.0817 91.3599 94.1804C91.3553 94.1873 91.353 94.1965 91.3484 94.2033C91.3048 94.2974 91.2658 94.3938 91.2267 94.4925C91.2222 94.504 91.2176 94.5155 91.213 94.527C91.1763 94.6211 91.1395 94.7174 91.1051 94.8138C91.1005 94.8276 91.0936 94.8437 91.089 94.8574C91.0569 94.9515 91.0271 95.0456 90.9972 95.142C90.9904 95.1604 90.9858 95.181 90.9789 95.1994C90.9513 95.2912 90.9261 95.383 90.9008 95.4771C90.894 95.5001 90.8871 95.5253 90.8825 95.5483C90.8595 95.6378 90.8389 95.7296 90.8182 95.8191C90.8113 95.8466 90.8044 95.8765 90.7999 95.904C90.7815 95.9912 90.7654 96.0807 90.7494 96.1679C90.7425 96.2001 90.7379 96.2345 90.731 96.2666C90.7172 96.3515 90.7058 96.4388 90.6943 96.526C90.6897 96.5627 90.6828 96.5994 90.6782 96.6384C90.669 96.7233 90.6599 96.8083 90.653 96.8932C90.6484 96.9345 90.6438 96.9735 90.6415 97.0148C90.6346 97.0997 90.63 97.1847 90.6254 97.2696C90.6231 97.3132 90.6185 97.3545 90.6185 97.3981C90.614 97.4876 90.614 97.5794 90.614 97.6689C90.614 97.7079 90.6117 97.7447 90.6117 97.7837C90.6117 97.9122 90.614 98.043 90.6208 98.1761C90.6277 98.3345 90.6392 98.4929 90.653 98.6489C90.6576 98.6856 90.6599 98.7247 90.6644 98.7614C90.6782 98.8968 90.6943 99.0299 90.7149 99.163C90.7172 99.1837 90.7195 99.2043 90.7241 99.225C90.7746 99.5532 90.8412 99.8768 90.9215 100.191C91.3254 101.752 92.1081 103.108 93.1202 104.084C93.1317 104.095 93.1454 104.109 93.1569 104.12C93.2808 104.237 93.4071 104.35 93.5379 104.455C93.5471 104.462 93.5563 104.469 93.5654 104.476C94.5156 105.238 95.6264 105.683 96.8038 105.686C97.9881 105.688 99.069 105.243 99.9595 104.476C100.857 103.698 101.561 102.587 101.97 101.272Z" fill="white" stroke="#263238" stroke-width="0.229508" stroke-miterlimit="10" stroke-linecap="round" stroke-linejoin="round"/>
<path d="M101.684 98.438C101.647 97.5659 101.473 96.7351 101.191 95.98L98.8589 97.4419C98.9599 97.7518 99.0241 98.0846 99.0379 98.4334C99.0402 98.4839 99.0379 98.5321 99.0379 98.5803L101.686 99.0118C101.693 98.8213 101.693 98.6308 101.684 98.438Z" fill="#263238" stroke="#263238" stroke-width="0.229508" stroke-miterlimit="10" stroke-linecap="round" stroke-linejoin="round"/>
<path d="M97.5504 95.7573C97.7937 95.8904 98.014 96.0717 98.2114 96.292L99.8547 93.7651C99.2832 93.1409 98.6107 92.6704 97.8763 92.4019L97.5504 95.7573Z" fill="#263238" stroke="#263238" stroke-width="0.229508" stroke-miterlimit="10" stroke-linecap="round" stroke-linejoin="round"/>
<path d="M98.705 100.077C98.5857 100.315 98.4388 100.526 98.269 100.708L99.6185 103.726C100.266 103.184 100.794 102.443 101.154 101.571L98.705 100.077Z" fill="#263238" stroke="#263238" stroke-width="0.229508" stroke-miterlimit="10" stroke-linecap="round" stroke-linejoin="round"/>
<path d="M94.7345 96.8613L92.3568 95.2065C92.008 96.019 91.806 96.9508 91.7876 97.9492L94.4476 98.0249C94.4752 97.6003 94.5762 97.2056 94.7345 96.8613Z" fill="#263238" stroke="#263238" stroke-width="0.229508" stroke-miterlimit="10" stroke-linecap="round" stroke-linejoin="round"/>
<path d="M95.5448 95.8539C95.7399 95.7185 95.9533 95.6175 96.1805 95.5624L95.7904 92.207C94.9481 92.3562 94.1884 92.7762 93.5596 93.4005L95.5448 95.8539Z" fill="#263238" stroke="#263238" stroke-width="0.229508" stroke-miterlimit="10" stroke-linecap="round" stroke-linejoin="round"/>
<path d="M97.1121 101.328C97.0294 101.339 96.9445 101.346 96.8596 101.346C96.6163 101.346 96.3822 101.296 96.1573 101.208L94.8537 104.1C95.5124 104.488 96.2399 104.708 96.9973 104.708C97.2039 104.708 97.4081 104.69 97.6055 104.66L97.1121 101.328Z" fill="#263238" stroke="#263238" stroke-width="0.229508" stroke-miterlimit="10" stroke-linecap="round" stroke-linejoin="round"/>
<path d="M94.7163 99.6753L92.0862 100.263C92.357 101.224 92.8022 102.087 93.3691 102.792L95.0583 100.302C94.9252 100.111 94.8104 99.9002 94.7163 99.6753Z" fill="#263238" stroke="#263238" stroke-width="0.229508" stroke-miterlimit="10" stroke-linecap="round" stroke-linejoin="round"/>
<path d="M68.0106 93.1623C67.9143 88.9761 66.3444 85.5748 64.5083 85.5679H60.2739L60.6251 100.727H64.8595C66.6979 100.736 68.107 97.3485 68.0106 93.1623Z" fill="#263238" stroke="#263238" stroke-width="0.229508" stroke-miterlimit="10" stroke-linecap="round" stroke-linejoin="round"/>
<path d="M63.7763 93.1623C63.8727 97.3485 62.4635 100.736 60.6252 100.727C58.7891 100.718 57.2193 97.3187 57.1229 93.1325C57.0265 88.9462 58.4356 85.5587 60.274 85.5679C62.1101 85.5748 63.6799 88.9761 63.7763 93.1623Z" fill="#878787" stroke="#263238" stroke-width="0.229508" stroke-miterlimit="10" stroke-linecap="round" stroke-linejoin="round"/>
<path d="M63.0234 95.7255C63.0555 95.5373 63.0853 95.3445 63.1083 95.1495C63.1335 94.9521 63.1519 94.7524 63.168 94.5482C63.2024 94.1006 63.2161 93.637 63.2047 93.1596C63.1817 92.1429 63.0532 91.1836 62.8443 90.3321C62.842 90.3252 62.8398 90.316 62.8375 90.3091C62.7916 90.1209 62.7411 89.9373 62.686 89.7629C62.6837 89.7514 62.6791 89.74 62.6768 89.7308C62.6217 89.5563 62.5643 89.3865 62.5047 89.2259C62.5024 89.2167 62.4978 89.2075 62.4955 89.2006C61.9584 87.7845 61.1666 86.8757 60.3037 86.8711C59.5647 86.8688 58.9106 87.5275 58.4401 88.6039C58.408 88.675 58.3781 88.7485 58.3483 88.8219C58.3184 88.8954 58.2909 88.9734 58.2634 89.0514V89.0537C58.2358 89.1295 58.2106 89.2098 58.1853 89.2901C58.1853 89.2924 58.183 89.2947 58.183 89.297C58.1578 89.375 58.1348 89.4554 58.1119 89.5357C58.1119 89.5403 58.1096 89.5426 58.1096 89.5472C58.0866 89.6275 58.066 89.7078 58.0453 89.7881C58.043 89.795 58.043 89.8019 58.0407 89.8065C58.0201 89.8868 58.0017 89.9672 57.9834 90.0475C57.9811 90.0567 57.9788 90.0659 57.9765 90.075C57.9581 90.1531 57.9421 90.2334 57.926 90.316C57.9237 90.3275 57.9214 90.3413 57.9191 90.3527C57.903 90.4308 57.8893 90.5111 57.8755 90.5914C57.8732 90.6075 57.8709 90.6236 57.8663 90.6396C57.8525 90.7154 57.8411 90.7934 57.8296 90.8737C57.8273 90.8944 57.8227 90.9127 57.8204 90.9334C57.8089 91.0091 57.7998 91.0849 57.7906 91.1606C57.7883 91.1836 57.7837 91.2088 57.7814 91.2318C57.7722 91.3052 57.7653 91.3786 57.7584 91.4544C57.7562 91.4819 57.7516 91.5095 57.7493 91.537C57.7424 91.6082 57.7378 91.6816 57.7309 91.755C57.7286 91.7872 57.7263 91.817 57.724 91.8491C57.7194 91.9203 57.7148 91.9914 57.7125 92.0626C57.7102 92.097 57.708 92.1314 57.708 92.1636C57.7057 92.2347 57.7034 92.3059 57.7011 92.377C57.7011 92.4137 57.6988 92.4481 57.6965 92.4849C57.6942 92.5606 57.6942 92.6363 57.6942 92.7121C57.6942 92.7442 57.6942 92.7763 57.6942 92.8085C57.6942 92.9163 57.6965 93.0265 57.6988 93.1367C57.7011 93.2698 57.708 93.4029 57.7148 93.5337C57.7171 93.5659 57.7194 93.5957 57.7194 93.6278C57.7263 93.7403 57.7332 93.8527 57.7424 93.9629C57.7447 93.979 57.7447 93.9973 57.747 94.0134C57.7699 94.2888 57.802 94.5596 57.8388 94.8213C58.0293 96.1295 58.3965 97.2655 58.8716 98.0826C58.8784 98.0918 58.883 98.1032 58.8899 98.1124C58.9473 98.2111 59.007 98.3052 59.0689 98.3924C59.0735 98.3993 59.0781 98.4039 59.0804 98.4108C59.5257 99.0488 60.0489 99.4229 60.5998 99.4252C61.1552 99.4275 61.6624 99.0534 62.0801 98.4131C62.5024 97.759 62.8329 96.8272 63.0234 95.7255Z" fill="white" stroke="#263238" stroke-width="0.229508" stroke-miterlimit="10" stroke-linecap="round" stroke-linejoin="round"/>
<path d="M148.696 95.3172C148.49 90.3208 145.148 86.2631 141.233 86.2539H136.989C133.074 86.2447 130.067 90.2864 130.276 95.2828C130.483 100.279 133.824 104.337 137.74 104.346H141.983C145.899 104.355 148.905 100.314 148.696 95.3172Z" fill="#263238" stroke="#263238" stroke-width="0.229508" stroke-miterlimit="10" stroke-linecap="round" stroke-linejoin="round"/>
<path d="M150.383 92.1156C150.383 92.1156 150.225 88.9529 149.83 87.8467C149.435 86.7405 148.249 85.0811 148.249 85.0811C148.249 85.0811 147.062 82.3156 145.086 80.5759C143.11 78.8362 139.87 77.0988 139.08 76.7018C138.291 76.307 137.262 76.0683 135.761 75.0424C134.26 74.0142 124.933 67.5329 122.009 65.7956C119.085 64.0559 112.762 63.1883 111.498 62.9496C110.233 62.7133 95.6893 61.6851 90.6309 61.6851C85.5725 61.6851 75.1391 61.9215 69.3693 64.1362C69.3693 64.1362 67.4712 64.6893 67.2348 65.2424C66.9984 65.7956 66.8401 66.1903 66.8401 66.1903L61.1483 74.4893C61.1483 74.4893 59.0942 74.331 58.4607 76.0706C57.8273 77.8103 58.066 80.1811 58.066 80.1811C58.066 80.1811 56.565 83.8969 56.4847 86.6624C56.4066 89.428 56.7211 91.4844 56.7211 91.4844C56.7211 91.4844 56.3263 86.426 57.5106 84.8447C58.6971 83.2634 61.146 84.45 62.0939 87.2959C63.0417 90.1418 64.148 95.4365 64.148 95.4365L89.2034 100.575C89.2034 100.575 87.9388 93.9355 89.5981 90.1418C91.2575 86.348 99.0034 86.5844 100.426 93.4605C101.849 100.337 101.374 101.601 101.374 101.601C101.374 101.601 106.669 102.707 122.794 102.471C138.919 102.235 147.772 100.337 150.142 99.7054C150.142 99.7054 150.695 96.7815 150.854 95.0418C151.015 93.2998 150.383 92.1156 150.383 92.1156ZM92.9214 76.2267C92.763 76.6214 92.4463 76.8601 92.4463 76.8601C91.8129 77.4936 90.0755 76.8601 90.0755 76.8601C90.0755 76.8601 82.5545 75.6644 75.8299 74.6156C76.2362 70.2962 78.2375 66.1329 79.4653 63.9319C80.7414 64.0352 83.4978 64.3818 86.6765 66.6631C90.3119 69.2726 93.0775 75.8319 92.9214 76.2267Z" fill="#A8E2FF" stroke="#263238" stroke-width="0.229508" stroke-miterlimit="10" stroke-linecap="round" stroke-linejoin="round"/>
<path d="M78.7471 72.1113C78.7471 72.1113 75.6602 75.7123 75.5454 76.1117C75.4307 76.511 75.7176 77.8261 76.8031 77.8835C77.8887 77.9408 83.8835 75.772 83.8835 75.772L80.2159 75.2808L80.5166 74.3949" fill="#B2B2B2"/>
<path d="M78.7471 72.1113C78.7471 72.1113 75.6602 75.7123 75.5454 76.1117C75.4307 76.511 75.7176 77.8261 76.8031 77.8835C77.8887 77.9408 83.8835 75.772 83.8835 75.772L80.2159 75.2808L80.5166 74.3949" stroke="#263238" stroke-width="0.229508" stroke-miterlimit="10" stroke-linecap="round" stroke-linejoin="round"/>
<path d="M77.0899 75.0259L80.2181 75.2829" stroke="#263238" stroke-width="0.229508" stroke-miterlimit="10" stroke-linecap="round" stroke-linejoin="round"/>
<path opacity="0.15" d="M150.856 95.0395C151.015 93.2998 150.381 92.1155 150.381 92.1155C150.381 92.1155 150.331 91.1034 150.216 90.0247C140.326 92.9418 122.629 93.1391 117.695 92.7054C112.026 92.2051 101.966 90.8349 101.521 89.2031C101.076 87.5736 97.1857 83.867 94.5188 82.8664C92.2329 82.008 65.6902 78.3336 58.1555 77.3008C57.9237 78.7536 58.066 80.1788 58.066 80.1788C58.066 80.1788 56.565 83.8946 56.4847 86.6601C56.4066 89.4257 56.7211 91.4821 56.7211 91.4821C56.7211 91.4821 56.3263 86.4237 57.5106 84.8424C58.6971 83.2611 61.146 84.4477 62.0939 87.2936C63.0417 90.1395 64.148 95.4342 64.148 95.4342L89.2034 100.573C89.2034 100.573 87.9388 93.9332 89.5981 90.1395C91.2575 86.3457 99.0034 86.5821 100.426 93.4582C101.849 100.334 101.374 101.599 101.374 101.599C101.374 101.599 106.669 102.705 122.794 102.469C138.919 102.232 147.772 100.334 150.142 99.7031C150.145 99.7031 150.698 96.7768 150.856 95.0395Z" fill="black"/>
<path d="M88.2393 75.0949C88.5767 73.3507 89.7013 70.0894 89.7013 70.0894C89.7013 70.0894 91.5741 72.7425 92.4255 74.5992C93.277 76.4559 92.4255 77.1513 91.6521 77.3074C90.8787 77.4612 87.8606 76.4559 87.8606 76.4559L88.2393 75.0949Z" fill="#263238" stroke="#263238" stroke-width="0.229508" stroke-miterlimit="10" stroke-linecap="round" stroke-linejoin="round"/>
<path d="M77.2986 63.9248C75.754 64.0143 73.5806 64.2415 71.896 64.6087C70.0783 65.0035 69.4449 65.0838 69.1304 65.3983C68.8137 65.715 65.7314 69.5868 64.6252 72.3546C64.6252 72.3546 64.7835 73.0661 65.495 73.0661C65.7544 73.0661 69.073 73.5687 73.1927 74.2068C73.8812 71.7533 75.2675 67.4317 77.2986 63.9248Z" fill="#757575" stroke="#263238" stroke-width="0.229508" stroke-miterlimit="10" stroke-linecap="round" stroke-linejoin="round"/>
<path d="M75.9008 78.3452L73.6517 77.939C73.6517 77.939 73.1008 78.1134 73.2684 78.6642C73.4359 79.215 73.732 79.1554 73.732 79.1554L75.6048 79.456C75.6048 79.456 76.05 79.5042 76.1464 79.059C76.2405 78.616 76.3667 78.5586 75.9008 78.3452Z" stroke="#263238" stroke-width="0.229508" stroke-miterlimit="10" stroke-linecap="round" stroke-linejoin="round"/>
<path d="M64.5337 76.3847L62.817 76.0542C62.817 76.0542 62.397 76.1965 62.5232 76.644C62.6494 77.0916 62.8766 77.0434 62.8766 77.0434L64.3065 77.289C64.3065 77.289 64.6462 77.328 64.7196 76.9676C64.793 76.605 64.8894 76.5591 64.5337 76.3847Z" stroke="#263238" stroke-width="0.229508" stroke-miterlimit="10" stroke-linecap="round" stroke-linejoin="round"/>
<path d="M78.2854 63.6816C78.2854 63.6816 75.0792 69.642 74.5169 74.5902" stroke="#263238" stroke-width="0.229508" stroke-miterlimit="10" stroke-linecap="round" stroke-linejoin="round"/>
<path d="M73.7872 75.6025C73.7872 75.6025 72.3253 78.0766 72.2679 78.9212C72.2105 79.7658 72.3803 89.8871 72.6626 91.7416" stroke="#263238" stroke-width="0.229508" stroke-miterlimit="10" stroke-linecap="round" stroke-linejoin="round"/>
<path d="M89.2514 79.146C89.2514 79.146 88.0143 83.2519 87.9569 86.3434C87.8996 89.4371 87.8445 95.2276 87.8445 95.2276" stroke="#263238" stroke-width="0.229508" stroke-miterlimit="10" stroke-linecap="round" stroke-linejoin="round"/>
<path d="M64.4531 73.4658C64.4531 73.4658 61.8091 75.8848 61.5842 76.6721C61.3593 77.4593 61.6393 84.2068 61.6393 84.2068" stroke="#263238" stroke-width="0.229508" stroke-miterlimit="10" stroke-linecap="round" stroke-linejoin="round"/>
<path d="M64.9582 91.854C64.9582 91.854 65.353 92.9786 66.1953 93.2609C67.0399 93.5432 87.5074 97.4793 87.5074 97.4793" stroke="#263238" stroke-width="0.229508" stroke-miterlimit="10" stroke-linecap="round" stroke-linejoin="round"/>
<path d="M124.256 95.4226C124.256 95.4226 139.931 95.6384 145.754 93.8413C145.754 93.8413 145.178 97.7246 144.099 98.5141C143.021 99.3059 135.183 100.114 131.373 100.24C127.058 100.385 124.614 99.9531 124.614 99.9531L124.256 95.4226Z" fill="#263238" stroke="#263238" stroke-width="0.229508" stroke-miterlimit="10" stroke-linecap="round" stroke-linejoin="round"/>
<path d="M121.451 85.6431L123.033 88.8791C123.033 88.8791 131.876 89.0949 132.883 89.166C133.891 89.2372 134.969 89.7421 136.119 89.166C137.269 88.5899 142.231 87.9427 142.807 87.9427C143.383 87.9427 144.101 88.4454 144.101 88.4454C144.101 88.4454 142.807 85.2093 142.304 84.9224C141.802 84.6355 141.297 84.7067 141.081 84.7067C140.865 84.709 130.368 83.9172 121.451 85.6431Z" fill="#263238" stroke="#263238" stroke-width="0.229508" stroke-miterlimit="10" stroke-linecap="round" stroke-linejoin="round"/>
<path d="M104.782 79.1851C104.782 79.1851 101.023 78.6067 99.5749 79.1116C98.1267 79.6165 98.8519 81.5696 101.31 83.3782C103.768 85.1867 105.795 86.9218 108.324 87.211C110.855 87.5001 115.193 88.4411 115.411 87.6447C115.629 86.8483 114.833 83.9565 111.941 81.8588C109.049 79.7634 104.782 79.1851 104.782 79.1851Z" fill="white" stroke="#263238" stroke-width="0.229508" stroke-miterlimit="10" stroke-linecap="round" stroke-linejoin="round"/>
<path d="M135.009 75.063L134.286 75.281C134.286 75.281 132.945 75.3223 130.797 75.3797C128.956 75.4325 126.528 75.5013 123.843 75.5702C120.136 75.6689 115.946 75.7721 112.161 75.8525C106.375 75.9741 101.533 76.0361 100.805 75.9282C99.5542 75.7446 98.1565 75.2925 96.8598 74.1564C96.1299 73.5207 95.4299 72.6669 94.8057 71.5194C93.0683 68.3361 88.6594 64.4322 88.6594 64.4322C95.602 63.6358 112.161 63.9249 114.041 63.9984C114.509 64.0144 115.11 64.0879 115.778 64.2095C117.784 64.5653 120.403 65.3548 121.922 66.3853C122.191 66.5689 122.624 66.8558 123.168 67.2207C124.44 68.0699 126.326 69.3184 128.22 70.5738C129.363 71.3289 130.506 72.084 131.522 72.7587C133.515 74.0738 135.009 75.063 135.009 75.063Z" fill="white" stroke="#263238" stroke-width="0.229508" stroke-miterlimit="10" stroke-linecap="round" stroke-linejoin="round"/>
<path d="M121.919 66.3849C122.188 66.5685 122.622 66.8554 123.166 67.2203L112.158 75.8544C106.373 75.976 101.53 76.038 100.802 75.9301C99.5516 75.7465 98.1539 75.2944 96.8572 74.1583L115.776 64.2114C117.784 64.5649 120.4 65.3544 121.919 66.3849Z" fill="#263238" stroke="#263238" stroke-width="0.229508" stroke-miterlimit="10" stroke-linecap="round" stroke-linejoin="round"/>
<path d="M131.52 72.7582L130.797 75.3791C128.956 75.4319 126.528 75.5008 123.843 75.5696L128.217 70.5732C129.36 71.3283 130.506 72.0857 131.52 72.7582Z" fill="#263238" stroke="#263238" stroke-width="0.229508" stroke-miterlimit="10" stroke-linecap="round" stroke-linejoin="round"/>
<path d="M119.422 83.479C119.863 83.9242 120.288 84.397 120.692 84.8974" stroke="#263238" stroke-width="0.229508" stroke-miterlimit="10" stroke-linecap="round" stroke-linejoin="round"/>
<path d="M108.76 77.0874C108.76 77.0874 114.234 78.6963 118.663 82.7494" stroke="#263238" stroke-width="0.229508" stroke-miterlimit="10" stroke-linecap="round" stroke-linejoin="round"/>
<path d="M143.815 84.769C144.361 85.7995 144.799 86.9494 145.061 88.2231" stroke="#263238" stroke-width="0.229508" stroke-miterlimit="10" stroke-linecap="round" stroke-linejoin="round"/>
<path d="M135.445 77.3765C135.445 77.3765 140.294 79.2538 143.2 83.7247" stroke="#263238" stroke-width="0.229508" stroke-miterlimit="10" stroke-linecap="round" stroke-linejoin="round"/>
<path d="M113.097 96.8294C113.097 97.6671 112.287 98.3488 111.289 98.3488C110.29 98.3488 109.48 97.6694 109.48 96.8294C109.48 95.9917 110.29 95.3101 111.289 95.3101C112.289 95.3101 113.097 95.9917 113.097 96.8294Z" fill="white" stroke="#263238" stroke-width="0.229508" stroke-miterlimit="10" stroke-linecap="round" stroke-linejoin="round"/>
<path d="M150.539 94.3622C150.386 95.0851 149.899 95.5946 149.449 95.4982C148.999 95.4041 148.759 94.7408 148.912 94.0179C149.066 93.2949 149.553 92.7854 150.002 92.8818C150.452 92.9759 150.693 93.6392 150.539 94.3622Z" fill="white" stroke="#263238" stroke-width="0.229508" stroke-miterlimit="10" stroke-linecap="round" stroke-linejoin="round"/>
<path d="M88.9351 76.502C88.9351 76.502 87.6728 74.3768 86.8764 74.2437C86.08 74.1106 82.6924 73.9774 81.9626 74.4433C81.2328 74.9069 81.4324 76.4355 81.6964 76.8325C81.9626 77.2319 83.0252 77.4292 83.9547 77.3627C84.8842 77.2961 88.0055 77.5624 88.0055 77.5624C88.0055 77.5624 89.8646 78.8912 90.5278 78.7581C91.1911 78.625 92.0541 77.1653 91.4573 76.3689C90.8606 75.5725 89.9311 75.7699 88.9351 76.502Z" fill="#263238" stroke="#263238" stroke-width="0.229508" stroke-miterlimit="10" stroke-linecap="round" stroke-linejoin="round"/>
<path d="M88.9351 76.502L91.1246 76.9656" stroke="#263238" stroke-width="0.229508" stroke-miterlimit="10" stroke-linecap="round" stroke-linejoin="round"/>
<path d="M69.3671 64.1339C69.3671 64.1339 67.469 64.687 67.2326 65.2401C66.9962 65.7933 66.8379 66.188 66.8379 66.188L61.1461 74.487C61.1461 74.487 59.092 74.3287 58.4585 76.0683C57.8251 77.808 58.0638 80.1788 58.0638 80.1788C58.0638 80.1788 56.5628 83.8946 56.4825 86.6601C56.4044 89.4257 56.7189 91.4821 56.7189 91.4821C56.7189 91.4821 56.3241 86.4237 57.5084 84.8424C58.6949 83.2611 61.1438 84.4477 62.0917 87.2936C63.0395 90.1395 64.1458 95.4342 64.1458 95.4342L89.2012 100.573C89.2012 100.573 87.9366 93.9333 89.5959 90.1395C91.2553 86.3457 99.0012 86.5821 100.424 93.4582C101.847 100.334 101.372 101.599 101.372 101.599C101.372 101.599 106.667 102.705 122.792 102.469C138.917 102.232 147.769 100.334 150.14 99.7031C150.14 99.7031 150.693 96.7792 150.852 95.0395C151.01 93.2998 150.377 92.1155 150.377 92.1155C150.377 92.1155 150.218 88.9529 149.823 87.8467C149.429 86.7405 148.242 85.0811 148.242 85.0811C148.242 85.0811 147.056 82.3155 145.08 80.5759C143.103 78.8362 139.863 77.0988 139.073 76.7018C138.284 76.307 137.256 76.0683 135.755 75.0424C134.254 74.0142 124.926 67.5329 122.002 65.7956C119.079 64.0559 112.756 63.1883 111.491 62.9496C110.226 62.7133 95.6825 61.6851 90.6241 61.6851C85.5703 61.6851 75.1369 61.9214 69.3671 64.1339Z" stroke="#263238" stroke-width="0.229508" stroke-miterlimit="10" stroke-linecap="round" stroke-linejoin="round"/>
<path d="M142.24 78.5332C142.24 78.5332 140.65 79.1116 141.084 79.6899C141.518 80.2683 143.904 81.7876 144.988 83.6673C146.073 85.547 146.289 86.488 146.796 86.488C147.303 86.488 148.398 85.5516 148.247 85.0788C148.1 84.6083 147.303 80.3417 142.24 78.5332Z" fill="white" stroke="#263238" stroke-width="0.229508" stroke-miterlimit="10" stroke-linecap="round" stroke-linejoin="round"/>
<path d="M62.672 93.0219C62.656 92.2438 62.5756 91.5048 62.4448 90.8301L61.3753 92.1337C61.4212 92.4091 61.451 92.7075 61.4579 93.0173C61.4579 93.0609 61.4579 93.1045 61.4579 93.1481L62.672 93.5337C62.6766 93.3661 62.6766 93.1963 62.672 93.0219Z" fill="#263238" stroke="#263238" stroke-width="0.229508" stroke-miterlimit="10" stroke-linecap="round" stroke-linejoin="round"/>
<path d="M60.7787 90.6329C60.8889 90.75 60.9921 90.9129 61.0816 91.1103L61.8344 88.8565C61.5728 88.3011 61.2629 87.8788 60.9279 87.6401L60.7787 90.6329Z" fill="#263238" stroke="#263238" stroke-width="0.229508" stroke-miterlimit="10" stroke-linecap="round" stroke-linejoin="round"/>
<path d="M61.3065 94.4858C61.2514 94.6993 61.1848 94.8875 61.1068 95.0481L61.7242 97.7403C62.0202 97.2583 62.2635 96.5973 62.4287 95.817L61.3065 94.4858Z" fill="#263238" stroke="#263238" stroke-width="0.229508" stroke-miterlimit="10" stroke-linecap="round" stroke-linejoin="round"/>
<path d="M59.4866 91.6168L58.3964 90.1411C58.2358 90.8664 58.144 91.6972 58.1371 92.5877L59.3558 92.6565C59.3695 92.2755 59.4154 91.9244 59.4866 91.6168Z" fill="#263238" stroke="#263238" stroke-width="0.229508" stroke-miterlimit="10" stroke-linecap="round" stroke-linejoin="round"/>
<path d="M59.8582 90.72C59.9477 90.5984 60.0441 90.5112 60.1497 90.4607L59.9707 87.4702C59.5851 87.6033 59.2362 87.9797 58.9493 88.5351L59.8582 90.72Z" fill="#263238" stroke="#263238" stroke-width="0.229508" stroke-miterlimit="10" stroke-linecap="round" stroke-linejoin="round"/>
<path d="M60.577 95.6015C60.538 95.6107 60.5012 95.6176 60.4622 95.6176C60.3521 95.6176 60.2442 95.574 60.1409 95.4937L59.5442 98.071C59.8448 98.4176 60.1799 98.6127 60.5265 98.615C60.6206 98.615 60.7147 98.5989 60.8065 98.5714L60.577 95.6015Z" fill="#263238" stroke="#263238" stroke-width="0.229508" stroke-miterlimit="10" stroke-linecap="round" stroke-linejoin="round"/>
<path d="M59.4774 94.1255L58.2725 94.6511C58.3964 95.5094 58.6007 96.2783 58.86 96.9071L59.6334 94.6855C59.5738 94.5156 59.521 94.3275 59.4774 94.1255Z" fill="#263238" stroke="#263238" stroke-width="0.229508" stroke-miterlimit="10" stroke-linecap="round" stroke-linejoin="round"/>
<path d="M56.8985 70.7183C56.8985 70.7183 70.2421 71.4642 71.4149 71.953C72.5877 72.4419 72.8815 73.6147 72.8815 73.6147L56.1595 73.0271L56.8985 70.7183Z" fill="white" stroke="#263238" stroke-width="0.229508" stroke-miterlimit="10" stroke-linecap="round" stroke-linejoin="round"/>
<path d="M66.6545 64.1479C66.6545 64.1479 59.0463 69.6814 56.1637 73.0276L53.2306 72.4401L61.3667 64.6345L66.6545 64.1479Z" fill="white" stroke="#263238" stroke-width="0.229508" stroke-miterlimit="10" stroke-linecap="round" stroke-linejoin="round"/>
<path d="M74.5176 74.5904C74.5176 74.5904 75.9544 67.5767 78.2862 63.6819C78.2862 63.6819 70.118 62.5826 61.2199 63.9527C60.7035 64.0331 52.6409 70.7806 52.6409 70.7806C52.6409 70.7806 47.936 74.797 47.8488 75.5727C47.8488 75.5727 50.7681 85.7376 61.3921 92.678L72.9317 94.5439C72.9317 94.5439 72.1583 82.0127 72.2708 79.3091C72.3419 77.6681 74.5176 74.5904 74.5176 74.5904ZM55.1839 72.0498C54.0111 71.6596 55.1839 70.4845 55.1839 70.4845L62.1471 64.9281C66.9393 64.1455 75.6193 65.0108 75.6193 65.0108C75.0317 66.0871 72.8812 73.615 72.8812 73.615C72.8812 73.615 56.359 72.4422 55.1839 72.0498Z" fill="#A8E2FF" stroke="#263238" stroke-width="0.229508" stroke-miterlimit="10" stroke-linecap="round" stroke-linejoin="round"/>
<path d="M51.4682 74.8199L49.9925 74.6914C49.9925 74.6914 49.4141 74.7557 49.4141 75.2698C49.4141 75.7839 49.8639 75.8481 49.8639 75.8481L52.7236 76.1075C52.7236 76.1075 52.657 75.2422 53.1046 74.9852L51.4682 74.8199Z" fill="#263238" stroke="#263238" stroke-width="0.229508" stroke-miterlimit="10" stroke-linecap="round" stroke-linejoin="round"/>
<path d="M49.4854 76.0156C49.4854 76.0156 49.9559 76.6261 50.4264 76.6261C50.8969 76.6261 52.6824 76.8143 52.6824 76.8143" fill="#A8E2FF"/>
<path d="M49.4854 76.0156C49.4854 76.0156 49.9559 76.6261 50.4264 76.6261C50.8969 76.6261 52.6824 76.8143 52.6824 76.8143" stroke="#263238" stroke-width="0.229508" stroke-miterlimit="10" stroke-linecap="round" stroke-linejoin="round"/>
<path d="M142.764 65.3317L143.331 65.2881L145.734 72.5842L145.054 72.6714L142.764 65.3317Z" fill="#263238" stroke="#263238" stroke-width="0.229508" stroke-miterlimit="10" stroke-linecap="round" stroke-linejoin="round"/>
<path d="M138.851 64.9714C138.851 64.9714 139.7 64.5078 139.893 64.5078C140.085 64.5078 140.781 65.435 140.781 65.435C140.781 65.435 139.814 65.9767 139.7 66.0134C139.585 66.0524 138.926 65.7426 138.926 65.7426C138.926 65.7426 138.27 66.2452 137.96 66.8235C137.65 67.4019 136.376 69.5272 136.376 69.5272C136.376 69.5272 135.681 70.5324 134.947 70.1055C134.212 69.6809 133.941 68.6757 134.251 68.2511C134.561 67.8265 138.851 64.9714 138.851 64.9714Z" fill="white" stroke="#263238" stroke-width="0.229508" stroke-miterlimit="10" stroke-linecap="round" stroke-linejoin="round"/>
<path d="M138.194 66.0526C138.194 66.0526 138.426 66.3234 138.658 66.3624C138.89 66.4014 139.546 66.4014 139.546 66.4014C139.546 66.4014 140.28 66.3234 139.7 66.0159C139.121 65.706 138.658 65.5522 138.658 65.5522" fill="white"/>
<path d="M138.194 66.0526C138.194 66.0526 138.426 66.3234 138.658 66.3624C138.89 66.4014 139.546 66.4014 139.546 66.4014C139.546 66.4014 140.28 66.3234 139.7 66.0159C139.121 65.706 138.658 65.5522 138.658 65.5522" stroke="#263238" stroke-width="0.229508" stroke-miterlimit="10" stroke-linecap="round" stroke-linejoin="round"/>
<path d="M32.453 47.497L29.3524 49.7507L26.5271 47.5635L26.5226 47.5612C25.2442 46.6501 24.4088 45.156 24.4088 43.4645C24.4088 40.692 26.658 38.4429 29.4304 38.4429C32.2029 38.4429 34.4521 40.6898 34.4521 43.4645C34.4498 45.1284 33.6993 46.5812 32.453 47.497Z" fill="white" stroke="#263238" stroke-width="0.229508" stroke-miterlimit="10" stroke-linecap="round" stroke-linejoin="round"/>
<path d="M25.0216 43.4327C25.0216 44.5045 25.4026 45.4868 26.036 46.251C26.8462 47.2288 28.0694 47.8507 29.4373 47.8507C30.6996 47.8507 31.8357 47.3228 32.6412 46.476C33.394 45.6842 33.8553 44.6101 33.8553 43.4327C33.8553 40.993 31.8793 39.0146 29.4373 39.0146C26.9999 39.0146 25.0216 40.993 25.0216 43.4327Z" fill="#A8E2FF" stroke="#263238" stroke-width="0.229508" stroke-miterlimit="10" stroke-linejoin="round"/>
<path d="M29.4398 47.8508C30.53 47.8508 31.526 47.456 32.2972 46.8019C32.1526 45.3078 30.8949 44.1396 29.3641 44.1396C27.8746 44.1396 26.6467 45.2459 26.447 46.6803C27.2342 47.4056 28.2831 47.8508 29.4398 47.8508Z" fill="#263238" stroke="#263238" stroke-width="0.229508" stroke-miterlimit="10" stroke-linejoin="round"/>
<path d="M31.226 42.7087C31.5375 41.6799 30.9561 40.5934 29.9273 40.2819C28.8985 39.9704 27.812 40.5519 27.5005 41.5806C27.189 42.6094 27.7705 43.6959 28.7993 44.0074C29.828 44.3189 30.9145 43.7374 31.226 42.7087Z" fill="#263238" stroke="#263238" stroke-width="0.229508" stroke-miterlimit="10" stroke-linejoin="round"/>
<path d="M86.3348 61.5751L83.2342 63.8289L80.4089 61.6417L80.4044 61.6394C79.126 60.7282 78.2906 59.2341 78.2906 57.5426C78.2906 54.7702 80.5398 52.521 83.3122 52.521C86.0847 52.521 88.3339 54.7679 88.3339 57.5426C88.3316 59.2089 87.5811 60.6617 86.3348 61.5751Z" fill="white" stroke="#263238" stroke-width="0.229508" stroke-miterlimit="10" stroke-linecap="round" stroke-linejoin="round"/>
<path d="M78.9034 57.5132C78.9034 58.5851 79.2843 59.5673 79.9178 60.3316C80.7279 61.3093 81.9512 61.9313 83.3191 61.9313C84.5814 61.9313 85.7175 61.4034 86.523 60.5565C87.2758 59.7647 87.7371 58.6906 87.7371 57.5132C87.7371 55.0736 85.7611 53.0952 83.3191 53.0952C80.8817 53.0952 78.9034 55.0713 78.9034 57.5132Z" fill="#A8E2FF" stroke="#263238" stroke-width="0.229508" stroke-miterlimit="10" stroke-linejoin="round"/>
<path d="M83.3216 61.9289C84.4118 61.9289 85.4078 61.5342 86.179 60.8801C86.0344 59.386 84.7767 58.2178 83.2459 58.2178C81.7564 58.2178 80.5285 59.324 80.3288 60.7584C81.116 61.486 82.1649 61.9289 83.3216 61.9289Z" fill="#263238" stroke="#263238" stroke-width="0.229508" stroke-miterlimit="10" stroke-linejoin="round"/>
<path d="M85.1427 56.6707C85.3906 55.6248 84.7436 54.5759 83.6976 54.328C82.6517 54.0802 81.6028 54.7272 81.355 55.7731C81.1071 56.8191 81.7541 57.8679 82.8 58.1158C83.846 58.3637 84.8948 57.7167 85.1427 56.6707Z" fill="#263238" stroke="#263238" stroke-width="0.229508" stroke-miterlimit="10" stroke-linejoin="round"/>
<path d="M30.4153 104.894C36.8189 104.894 42.01 104.383 42.01 103.751C42.01 103.12 36.8189 102.608 30.4153 102.608C24.0117 102.608 18.8205 103.12 18.8205 103.751C18.8205 104.383 24.0117 104.894 30.4153 104.894Z" fill="#263238" stroke="#263238" stroke-width="0.229508" stroke-miterlimit="10" stroke-linecap="round" stroke-linejoin="round"/>
<path d="M36.7578 97.6113L37.9513 101.29C37.9513 101.29 39.7139 101.692 40.1477 101.639C40.5814 101.586 42.1673 101.263 42.204 101.566C42.2408 101.869 41.7358 102.061 41.5798 102.213C41.4214 102.364 40.3221 103.069 39.9044 103.25C39.4867 103.434 38.2129 103.808 37.8388 103.985C37.4647 104.161 37.0195 104.481 36.7303 103.9C36.4411 103.319 36.308 102.589 36.2598 102.199C36.2116 101.809 34.2975 98.7015 34.2975 98.7015L36.7578 97.6113Z" fill="white" stroke="#263238" stroke-width="0.229508" stroke-miterlimit="10" stroke-linecap="round" stroke-linejoin="round"/>
<path d="M40.1474 101.64C40.0717 101.649 39.9638 101.644 39.8445 101.628L39.9454 102.147C39.9454 102.147 37.6389 102.987 36.4868 103.276C36.551 103.487 36.6313 103.703 36.73 103.898C37.0192 104.479 37.4645 104.16 37.8386 103.983C38.2127 103.806 39.4864 103.432 39.9041 103.248C40.3218 103.065 41.4235 102.36 41.5795 102.211C41.7379 102.06 42.2405 101.867 42.2038 101.564C42.1694 101.263 40.5812 101.587 40.1474 101.64Z" fill="#A8E2FF" stroke="#263238" stroke-width="0.229508" stroke-miterlimit="10" stroke-linecap="round" stroke-linejoin="round"/>
<path d="M44.4357 61.9369C44.4357 61.9369 45.1495 61.7877 45.0761 61.9507C45.0026 62.1136 44.4954 62.233 44.4954 62.233C44.4954 62.233 45.0462 62.2468 44.9407 62.3661C44.8374 62.4854 44.539 62.5153 44.539 62.5153L44.3003 62.754C44.3003 62.754 44.0777 62.9628 44.018 63.0225C43.9584 63.0822 43.4833 63.454 43.3777 63.2612C43.2744 63.0684 43.3777 62.6667 43.481 62.5772C43.5866 62.4877 44.4357 61.9369 44.4357 61.9369Z" fill="white" stroke="#263238" stroke-width="0.229508" stroke-miterlimit="10" stroke-linecap="round" stroke-linejoin="round"/>
<path d="M31.5535 64.2665L35.3794 66.3527L42.1063 63.9406C42.1063 63.9406 42.4 63.4976 42.8292 62.7999C43.2584 62.1022 44.0181 61.774 44.3486 61.5698C44.6791 61.3655 44.9636 61.4619 44.8673 61.6662C44.7732 61.8704 44.1581 62.0586 44.0318 62.1986C43.9056 62.3409 43.2722 63.2039 43.2722 63.2039C43.2722 63.2039 44.4082 62.6416 44.5964 62.6255C44.7846 62.6095 44.8948 62.7517 44.6263 62.9239C44.3577 63.096 43.901 63.3622 43.8069 63.4885C43.7128 63.6147 43.4902 63.8809 43.3181 64.0072C43.1436 64.1334 42.8613 64.2734 42.8613 64.2734C42.8613 64.2734 36.3571 68.6317 36.0059 68.8085C35.6548 68.9852 34.9135 68.9852 34.9135 68.9852L31.3928 67.5416L31.5535 64.2665Z" fill="white" stroke="#263238" stroke-width="0.229508" stroke-miterlimit="10" stroke-linecap="round" stroke-linejoin="round"/>
<path d="M36.2814 66.0361L35.3794 66.3528L31.5535 64.2666L31.3951 67.5417L34.9158 68.9853C34.9158 68.9853 35.6548 68.9853 36.0083 68.8086C36.0886 68.7673 36.543 68.4941 37.1925 68.0971L36.2814 66.0361Z" fill="#A8E2FF" stroke="#263238" stroke-width="0.229508" stroke-miterlimit="10" stroke-linecap="round" stroke-linejoin="round"/>
<path d="M21.3421 96.7603L20.2106 99.4478C20.2106 99.4478 18.5925 101.015 18.6109 101.238C18.6316 101.461 18.8794 101.995 19.3384 102.232C19.7975 102.468 20.5089 102.854 20.5089 102.854C20.5089 102.854 21.6083 103.574 22.2991 103.737C22.9899 103.9 23.7175 104.178 23.8299 103.808C23.9424 103.441 22.6273 102.686 22.6273 102.686C22.6273 102.686 22.0329 101.548 21.9204 101.201C21.808 100.855 21.8722 100.093 21.8722 100.093L23.9378 97.7701L21.3421 96.7603Z" fill="white" stroke="#263238" stroke-width="0.229508" stroke-miterlimit="10" stroke-linecap="round" stroke-linejoin="round"/>
<path d="M22.6273 102.687C22.6273 102.687 22.1889 102.673 21.8745 102.57C21.56 102.466 20.8371 101.803 20.1394 100.979C19.8938 100.69 19.6436 100.442 19.4233 100.24C19.0148 100.665 18.604 101.124 18.6132 101.239C18.6338 101.461 18.8817 101.996 19.3407 102.232C19.7997 102.469 20.5112 102.854 20.5112 102.854C20.5112 102.854 21.6105 103.575 22.3014 103.738C22.9922 103.901 23.7197 104.179 23.8322 103.809C23.9423 103.44 22.6273 102.687 22.6273 102.687Z" fill="#A8E2FF" stroke="#263238" stroke-width="0.229508" stroke-miterlimit="10" stroke-linecap="round" stroke-linejoin="round"/>
<path d="M24.7803 79.9487L24.7665 88.2363L20.5069 96.5835L24.3511 98.8763L28.9597 90.0907L30.0774 83.9215L24.7803 79.9487Z" fill="white" stroke="#263238" stroke-width="0.229508" stroke-miterlimit="10" stroke-linecap="round" stroke-linejoin="round"/>
<path d="M24.5168 75.4482C24.5168 75.4482 23.5459 78.6269 23.7227 79.3315C23.8994 80.0384 29.2286 90.7541 29.2286 90.7541L33.5204 99.5466L38.2873 98.1351L34.2273 86.6597L31.2253 79.5977V75.8017L24.5168 75.4482Z" fill="white" stroke="#263238" stroke-width="0.229508" stroke-miterlimit="10" stroke-linecap="round" stroke-linejoin="round"/>
<path d="M31.1872 60.0202L30.7581 61.1494L29.6472 60.5687L29.7781 59.3569L31.1872 60.0202Z" fill="white" stroke="#263238" stroke-width="0.229508" stroke-miterlimit="10" stroke-linecap="round" stroke-linejoin="round"/>
<path d="M31.4491 61.4362C31.4491 61.4362 30.7835 61.6358 30.8546 62.2854C30.9258 62.9349 31.954 65.4319 32.2064 66.7608C32.4589 68.0896 32.2455 68.3926 32.2914 68.9755C32.3373 69.5585 32.0687 74.9886 32.1468 75.9365C32.2248 76.8844 31.8553 76.9532 29.3674 76.8981C26.8796 76.8431 25.4704 76.5103 24.6855 76.0627C23.9028 75.6152 24.2655 74.9335 24.5432 74.385C24.8209 73.8365 25.9638 66.6598 26.5605 64.8444C27.1573 63.029 27.2651 62.3542 28.2405 61.7024C29.216 61.0506 29.3468 61.1722 29.4133 60.8899C29.4799 60.6076 29.6337 60.1899 29.6337 60.1899L31.4491 61.4362Z" fill="#A8E2FF" stroke="#263238" stroke-width="0.229508" stroke-miterlimit="10" stroke-linecap="round" stroke-linejoin="round"/>
<path d="M29.2689 68.4155C29.2689 68.4155 29.9345 69.1408 30.8548 69.2395" stroke="#263238" stroke-width="0.229508" stroke-miterlimit="10" stroke-linecap="round" stroke-linejoin="round"/>
<path d="M28.9224 70.876C29.0096 70.9907 29.1014 71.0986 29.2001 71.2019" stroke="#263238" stroke-width="0.229508" stroke-miterlimit="10" stroke-linecap="round" stroke-linejoin="round"/>
<path d="M27.8139 68.5352C27.8139 68.5352 28.0893 69.5725 28.6585 70.4883" stroke="#263238" stroke-width="0.229508" stroke-miterlimit="10" stroke-linecap="round" stroke-linejoin="round"/>
<path d="M33.5331 54.9321C33.5331 54.9321 33.8545 55.6436 33.5974 56.401C33.3404 57.1584 33.2738 57.5256 33.4758 57.8239C33.6777 58.1223 33.765 58.4918 33.4368 58.6731C33.1086 58.8544 32.9066 58.8636 32.9066 58.8636C32.9066 58.8636 32.3259 60.2866 31.9404 60.4266C31.5548 60.5666 30.3017 60.0846 29.9 59.8184C29.4984 59.5521 29.8266 56.7429 30.1043 56.2633C30.3843 55.7836 33.5331 54.9321 33.5331 54.9321Z" fill="white" stroke="#263238" stroke-width="0.229508" stroke-miterlimit="10" stroke-linecap="round" stroke-linejoin="round"/>
<path d="M32.4153 58.8637C31.9838 58.8843 31.8025 58.4023 31.8025 58.4023C31.8025 58.4023 31.5317 59.1987 31.8622 59.3112C32.1949 59.4237 32.4153 58.8637 32.4153 58.8637Z" stroke="#263238" stroke-width="0.229508" stroke-miterlimit="10" stroke-linecap="round" stroke-linejoin="round"/>
<path d="M33.09 57.2732C33.051 57.4683 32.9362 57.6083 32.8352 57.5876C32.7343 57.567 32.6838 57.3925 32.7251 57.1997C32.7641 57.0047 32.8789 56.8647 32.9798 56.8853C33.0808 56.9037 33.129 57.0781 33.09 57.2732Z" fill="#263238"/>
<path d="M34.5337 53.5665C34.5337 53.5665 34.5521 54.6085 33.7741 55.1455C32.996 55.6826 30.9993 56.2678 30.6964 56.4446C30.3934 56.6213 30.398 56.9541 30.398 56.9541C30.398 56.9541 30.1134 58.7878 30.1157 59.5774C30.118 60.3669 30.8387 61.0141 30.577 61.5947C30.3154 62.1731 29.48 62.2098 28.9452 62.2213C28.4105 62.2328 28.5642 62.9993 27.6232 63.4859C26.6823 63.9724 25.9295 63.7406 25.4269 63.0062C24.9219 62.2718 25.1675 61.9 24.7337 61.7439C24.3 61.5855 23.5908 61.9321 23.0836 60.7157C22.5764 59.497 23.0377 58.579 23.4049 58.3403C23.7744 58.1016 25.1652 58.1773 25.0918 56.658C25.0206 55.1387 26.3059 52.7311 28.2108 51.7534C30.1157 50.7757 33.1796 52.6416 33.5928 52.8298C34.0082 53.0157 34.5475 53.181 34.5337 53.5665Z" fill="#263238" stroke="#263238" stroke-width="0.229508" stroke-miterlimit="10" stroke-linecap="round" stroke-linejoin="round"/>
<path d="M32.7044 73.7928C32.7044 73.7928 31.6326 65.7233 30.7582 63.784C29.886 61.8447 28.9749 60.9151 27.5956 62.6066C26.2185 64.3004 25.5713 74.2083 25.5713 74.2083" stroke="#263238" stroke-width="0.459016" stroke-miterlimit="10" stroke-linecap="round" stroke-linejoin="round"/>
<path d="M29.8588 64.9892C29.8588 64.9892 26.6686 72.4345 26.1867 72.9118C25.7047 73.3892 23.9008 74.3945 23.4395 73.2148C22.9782 72.0351 26.8316 63.3253 27.6877 62.4463C28.5437 61.5673 30.1732 61.923 30.2123 63.4836" fill="#A8E2FF"/>
<path d="M29.8588 64.9892C29.8588 64.9892 26.6686 72.4345 26.1867 72.9118C25.7047 73.3892 23.9008 74.3945 23.4395 73.2148C22.9782 72.0351 26.8316 63.3253 27.6877 62.4463C28.5437 61.5673 30.1732 61.923 30.2123 63.4836" stroke="#263238" stroke-width="0.229508" stroke-miterlimit="10" stroke-linecap="round" stroke-linejoin="round"/>
<path d="M30.134 72.1753C30.134 72.1753 30.7996 72.0307 31.1645 71.6727C31.5294 71.3146 31.9769 71.1838 32.3694 71.2251C32.7618 71.2687 33.3058 71.2549 33.3356 71.6566C33.3632 72.0582 33.0878 72.2809 32.973 72.3405C32.8582 72.4002 32.7458 73.7612 32.4359 73.9448C32.1261 74.1284 30.9327 73.8163 30.5058 73.7336C30.0812 73.651 27.3959 74.0802 26.0373 73.9333C24.6786 73.7841 23.4576 73.7245 23.4392 73.2172C23.4232 72.71 24.0773 71.3353 25.6012 71.2848C27.1274 71.232 28.3989 72.1661 30.134 72.1753Z" fill="white" stroke="#263238" stroke-width="0.229508" stroke-miterlimit="10" stroke-linecap="round" stroke-linejoin="round"/>
<path d="M32.7045 73.793C32.7045 73.793 32.0458 74.1923 28.9658 74.252C25.8858 74.314 25.5714 74.2084 25.5714 74.2084C25.5714 74.2084 24.6556 78.1582 24.9838 78.592C25.5851 79.3815 31.7842 79.2254 32.3901 78.6402C32.9983 78.0549 32.7045 73.793 32.7045 73.793Z" fill="#969696" stroke="#263238" stroke-width="0.229508" stroke-miterlimit="10" stroke-linecap="round" stroke-linejoin="round"/>
<path d="M32.6587 56.6216C32.6587 56.6216 32.8676 56.2957 33.2623 56.4655" stroke="#263238" stroke-width="0.229508" stroke-miterlimit="10" stroke-linecap="round" stroke-linejoin="round"/>
</svg>
