<?xml version="1.0" encoding="utf-8"?>
<!-- Generator: Adobe Illustrator 28.0.0, SVG Export Plug-In . SVG Version: 6.00 Build 0)  -->
<svg version="1.1" xmlns="http://www.w3.org/2000/svg" xmlns:xlink="http://www.w3.org/1999/xlink" x="0px" y="0px"
	 viewBox="0 0 700 400" style="enable-background:new 0 0 700 400;" xml:space="preserve">
<style type="text/css">
	.st0{fill:#FFFFFF;stroke:#10012D;stroke-miterlimit:10;}
	.st1{fill:#E1D1EC;stroke:#10012D;stroke-miterlimit:10;}
	.st2{fill:#E1D1EC;}
	.st3{fill:#4C3173;}
	.st4{fill:#F8F5FA;stroke:#10012D;stroke-linejoin:round;stroke-miterlimit:10;}
	.st5{fill:#10012D;stroke:#10012D;stroke-linejoin:round;stroke-miterlimit:10;}
	.st6{fill:#FFFFFF;}
	.st7{fill:#10012D;}
	.st8{fill:#10012D;stroke:#10012D;stroke-miterlimit:10;}
	.st9{fill:#F7F4F9;stroke:#10012D;stroke-miterlimit:10;}
	.st10{fill:#4C3173;stroke:#10012D;stroke-miterlimit:10;}
	.st11{fill:none;stroke:#10012D;stroke-miterlimit:10;}
	.st12{fill:#10012D;stroke:#10012D;stroke-width:0.75;stroke-miterlimit:10;}
	.st13{fill:#E1D1EC;stroke:#10012D;stroke-width:0.75;stroke-miterlimit:10;}
	.st14{fill:none;stroke:#10012D;stroke-linecap:round;stroke-linejoin:round;stroke-miterlimit:10;}
	.st15{fill:#FFFFFF;stroke:#10012D;stroke-linecap:round;stroke-linejoin:round;stroke-miterlimit:10;}
	.st16{fill:#FCFBFD;stroke:#10012D;stroke-miterlimit:10;}
	.st17{fill:#FBF9FC;stroke:#10012D;stroke-miterlimit:10;}
	.st18{fill:#F9F7FB;stroke:#10012D;stroke-miterlimit:10;}
	.st19{fill:#F8F5FA;stroke:#10012D;stroke-miterlimit:10;}
</style>
<g id="Background_Simple">
</g>
<g id="Buildings">
</g>
<g id="Clouds">
</g>
<g id="Device">
	<g>
		<g>
			<g>
				<path class="st0" d="M405.7,41.7V346c0,16.9,13.7,30.5,30.5,30.5h144.7c16.8,0,30.5-13.7,30.5-30.5V41.7
					c0-16.9-13.7-30.5-30.5-30.5h-60.5l-0.1,0.2c-1.8,6.4-5.9,10.6-10.5,10.6h-2.6c-4.6,0-8.7-4.2-10.5-10.6l-0.1-0.2h-60.5
					C419.3,11.2,405.7,24.9,405.7,41.7z"/>
				<path class="st1" d="M405.8,38.5c1.6-15.3,14.6-27.3,30.3-27.3h60.5l0.1,0.2c1.8,6.4,5.9,10.6,10.5,10.6h2.6
					c4.6,0,8.7-4.2,10.5-10.6l0.1-0.2h60.5c15.8,0,28.7,11.9,30.3,27.3H405.8z"/>
				<g>
					<path class="st0" d="M486,235.7l26.3,21l-51.1,25.8l-27.2-29.6c-0.6-0.6-1.4-0.8-2.2-0.5l-26.3,10.1v4.3l26.4-10.2l25.5,27.8
						l-14.9,7.5c-0.7,0.3-1.1,1-1.1,1.8v82.8h4v-44.1l66.4,17c0.2,0,0.3,0.1,0.5,0.1c0.6,0,1.2-0.3,1.6-0.8l42.1-57l55.3,44.1v-5.1
						l-122.2-97.6v-11l122.2-22.3v-4.1l-51.6,9.4v-58.5h0l51.6-32.8v-4.7l-28.8,18.3c-1.7-6.1-6.5-21-17.4-35.4
						c-12.6-16.7-36-35.5-75.9-31.6v-22h-4v95.3h-42.9l-36.7-80.2v9.6l33.6,73.4c0.3,0.7,1,1.2,1.8,1.2h44.2v96.3
						C485.3,234.7,485.5,235.3,486,235.7z M515.8,259.5l37.3,29.8l-41.4,56l-66.1-16.9V295L515.8,259.5z M489.3,191.5l66.6-42.3V206
						l-66.6,12.1V191.5z M489.3,64.5c30.8-3.2,55.3,6.9,72.7,30c11.2,14.8,15.8,30.6,17,35.3l-89.8,57V64.5z"/>
					<g>
						<polygon class="st2" points="405.7,192.9 411.6,192.9 426.8,230.8 457,230.8 441,193.8 464.6,193.8 464.6,157.7 429.3,157.7 
							405.7,111.8 						"/>
						
							<rect x="573.7" y="46.6" transform="matrix(-1 -4.489887e-11 4.489887e-11 -1 1177.3948 118.1186)" class="st2" width="30" height="25"/>
						
							<rect x="547.1" y="46.6" transform="matrix(-1 -4.488555e-11 4.488555e-11 -1 1115.7948 111.1186)" class="st2" width="21.6" height="18"/>
						<path class="st3" d="M570,126.2l-74.2,47.9V73.6C495.8,73.6,548.9,68.4,570,126.2z"/>
						
							<rect x="526.7" y="46.6" transform="matrix(-1 -4.488999e-11 4.488999e-11 -1 1067.3949 104.7853)" class="st2" width="14" height="11.7"/>
						<polygon class="st3" points="500.7,281.6 527.7,300.6 512.7,328.6 458.7,325.6 455.7,299.6 476.7,290.6 485.7,304.6 
							494.7,299.6 486.7,284.6 						"/>
						<g>
							<polygon class="st3" points="587.2,225.2 587.2,279.2 611.4,291.5 611.4,224 							"/>
							<polygon class="st3" points="546.9,258.7 546.9,227 580.5,225.5 580.5,275.8 							"/>
							<polygon class="st3" points="541.9,227.3 541.9,256.1 521.7,245.9 521.7,228.2 							"/>
						</g>
					</g>
				</g>
			</g>
			<g>
				<path class="st4" d="M396.1,123v10.1h-3.5v22.9h3.5v211.9c0,16.9,13.7,30.5,30.5,30.5h163.9c16.9,0,30.5-13.7,30.5-30.5V34.8
					c0-16.9-13.7-30.5-30.5-30.5H426.6c-16.9,0-30.5,13.7-30.5,30.5v49.5h-3.5V123H396.1z M405.7,41.7c0-16.9,13.7-30.5,30.5-30.5
					h60.5l0.1,0.2c1.8,6.4,5.9,10.6,10.5,10.6h2.6c4.6,0,8.7-4.2,10.5-10.6l0.1-0.2h60.5c16.8,0,30.5,13.7,30.5,30.5V346
					c0,16.9-13.7,30.5-30.5,30.5H436.2c-16.9,0-30.5-13.7-30.5-30.5V41.7z"/>
				<path class="st5" d="M399.6,39v324.7c0,16.9,13.7,30.5,30.5,30.5H587c16.9,0,30.5-13.7,30.5-30.5V39c0-16.9-13.7-30.5-30.5-30.5
					H430.1C413.3,8.5,399.6,22.1,399.6,39z M405.7,41.7c0-16.9,13.7-30.5,30.5-30.5h60.5l0.1,0.2c1.8,6.4,5.9,10.6,10.5,10.6h2.6
					c4.6,0,8.7-4.2,10.5-10.6l0.1-0.2h60.5c16.8,0,30.5,13.7,30.5,30.5V346c0,16.9-13.7,30.5-30.5,30.5H436.2
					c-16.9,0-30.5-13.7-30.5-30.5V41.7z"/>
				<circle class="st6" cx="509.2" cy="12.7" r="2.9"/>
				<g>
					<g>
						<path class="st7" d="M595.3,21.2c1.5,0,2.2,1,2.2,2.4v0.8h-1v-0.9c0-0.9-0.3-1.4-1.1-1.4c-0.8,0-1.1,0.5-1.1,1.5
							c0,2.7,3.3,3.3,3.3,6.4V31h-4.2v-1h3.2v-0.2c0-2.2-3.3-3.3-3.3-6.2C593.1,22.2,593.8,21.2,595.3,21.2z"/>
						<path class="st7" d="M590.1,21.2c1.5,0,2.2,0.9,2.2,2.4v0.4h-1v-0.5c0-0.9-0.4-1.4-1.1-1.4c-0.8,0-1.1,0.5-1.1,1.5v0.4
							c0,0.8,0.4,1.3,1.2,1.3h0.6v1h-0.6c-0.8,0-1.2,0.5-1.2,1.4v0.7c0,1,0.3,1.5,1.1,1.5c0.8,0,1.1-0.5,1.1-1.4V28h1v0.7
							c0,1.5-0.7,2.4-2.2,2.4c-1.5,0-2.2-1-2.2-2.4v-0.7c0-1,0.4-1.7,1.2-2c-0.8-0.3-1.2-1-1.2-2v-0.2
							C587.9,22.2,588.6,21.2,590.1,21.2z"/>
						<path class="st7" d="M586.8,24.4v1.3h-1v-1.3H586.8z M586.8,29.6V31h-1v-1.3H586.8z"/>
						<path class="st7" d="M583.5,22.3h-2.8v-1h3.8l0.3,5.3h-1v-0.2c-0.1-0.7-0.5-1-1.1-1c-0.8,0-1.1,0.5-1.1,1.4v1.9
							c0,0.9,0.4,1.4,1.1,1.4c0.8,0,1.1-0.5,1.1-1.4V28h1v0.6c0,1.5-0.7,2.4-2.2,2.4c-1.5,0-2.2-1-2.2-2.4v-1.9
							c0-1.4,0.5-2.3,1.8-2.3c0.6,0,1.1,0.3,1.4,0.8L583.5,22.3z"/>
						<path class="st7" d="M577.2,21.2c1.5,0,2.2,0.9,2.2,2.5v4.9c0,1.5-0.7,2.4-2.2,2.4c-1.5,0-2.2-1-2.2-2.4v-1.5
							c0-1.4,0.5-2.3,1.8-2.3c0.8,0,1.3,0.4,1.6,1v-2.2c0-1-0.4-1.6-1.2-1.6c-0.8,0-1.1,0.5-1.1,1.4v0.2h-1v-0.2
							C575.1,22.2,575.8,21.2,577.2,21.2z M577.2,25.9c-0.8,0-1.1,0.5-1.1,1.4v1.4c0,0.9,0.4,1.4,1.1,1.4c0.8,0,1.1-0.5,1.1-1.4
							v-1.4C578.4,26.4,578,25.9,577.2,25.9z"/>
					</g>
					<g>
						
							<rect x="470.1" y="24.1" transform="matrix(-1 -4.488866e-11 4.488866e-11 -1 942.9258 54.9205)" class="st7" width="2.7" height="6.8"/>
						
							<rect x="466.5" y="22.7" transform="matrix(-1 -4.488866e-11 4.488866e-11 -1 935.6858 53.5607)" class="st7" width="2.7" height="8.1"/>
						
							<rect x="462.9" y="21.7" transform="matrix(-1 -4.522350e-11 4.522350e-11 -1 928.4458 52.5954)" class="st7" width="2.7" height="9.1"/>
						
							<rect x="459.2" y="20.1" transform="matrix(-1 -4.488866e-11 4.488866e-11 -1 921.206 50.9162)" class="st7" width="2.7" height="10.8"/>
						<g>
							<g>
								<path class="st7" d="M425.6,20.7h16.3v10h-16.3V20.7z M441,21.6h-14.5v8.1H441V21.6z"/>
							</g>
							<g>
								
									<rect x="431.1" y="22.6" transform="matrix(-1 -4.495882e-11 4.495882e-11 -1 870.7524 51.3804)" class="st7" width="8.6" height="6.2"/>
							</g>
							<g>
								
									<rect x="424.2" y="24.5" transform="matrix(-1 -4.483759e-11 4.483759e-11 -1 850.3775 51.3804)" class="st7" width="2" height="2.3"/>
							</g>
						</g>
						<g>
							<path class="st7" d="M447.9,28.5c0.1,0,0.2,0,0.3-0.1c3.3-2,5.5-0.1,5.6-0.1c0.3,0.2,0.6,0.2,0.9-0.1
								c0.2-0.3,0.2-0.6-0.1-0.9c-0.1-0.1-2.9-2.5-7-0.1c-0.3,0.2-0.4,0.5-0.2,0.8C447.5,28.4,447.7,28.5,447.9,28.5z"/>
						</g>
						<g>
							<path class="st7" d="M446.7,26.5c0.1,0,0.2,0,0.3-0.1c4.8-2.9,8-0.1,8-0.1c0.3,0.2,0.6,0.2,0.9-0.1s0.2-0.6-0.1-0.9
								c0,0-3.9-3.4-9.5-0.1c-0.3,0.2-0.4,0.5-0.2,0.8C446.3,26.4,446.5,26.5,446.7,26.5z"/>
						</g>
						<g>
							<path class="st7" d="M445.6,24.1c0.1,0,0.2,0,0.3-0.1c6.1-3.6,10.1-0.2,10.3-0.1c0.3,0.2,0.6,0.2,0.9-0.1
								c0.2-0.3,0.2-0.6-0.1-0.9c0,0-4.8-4.1-11.7-0.1c-0.3,0.2-0.4,0.5-0.2,0.8C445.2,24,445.4,24.1,445.6,24.1z"/>
						</g>
						<g>
							<circle class="st7" cx="451.3" cy="29.5" r="1.5"/>
						</g>
					</g>
				</g>
			</g>
		</g>
	</g>
</g>
<g id="Car">
	<g>
		<g>
			<path class="st8" d="M415.4,366.8c-0.1-1.6-0.2-3.1-0.2-4.7c0-28.7,21.2-52,47.3-52c25.2,0,45.8,21.7,47.2,49L415.4,366.8z"/>
			<path class="st8" d="M93,365.1c0-28.7,21.2-52,47.3-52c26.1,0,47.3,23.3,47.3,52c0,2.8-0.2,5.6-0.6,8.4l-93.1,1
				C93.3,371.4,93,368.3,93,365.1z"/>
			<path class="st8" d="M93.7,374.5l-6.6,0.1c0,0,0-0.1,0-0.3C89.7,374.4,92,374.4,93.7,374.5z"/>
		</g>
		<g>
			<g>
				<path class="st9" d="M57.8,358.8l1.4-17.6c0,0-1.6-1.9-1.6-4.9c0-3,3.3-16.3,10.3-28.4c7-12.2,16.5-18.2,29.3-24.4
					c12.7-6.2,57.7-13,57.7-13s88-56.4,94.6-59.9c6.5-3.5,13-4.3,15.4-4.6c2.4-0.3,45.5-5.4,84.3-4.6c38.7,0.8,77.5,2.4,114.1,6.2
					c0,0,11.1-0.8,11.1,1.9s-1.4,3.5-1.4,3.5l28.7,43.1c0,0,7.9,6,9.5,9.2c1.6,3.3,8.9,33.3,8.9,33.3s6,8.1,6.2,15.2
					c0.3,7-1.9,24.7-1.9,24.7s3,4.1,1.6,6.2c-1.4,2.2-3.8,9.8-6.5,11.6c-2.7,1.9-8.9,2.7-8.9,2.7l-0.9,0.1c-1.4-27.3-22-49-47.2-49
					c-26.1,0-47.3,23.3-47.3,52c0,2.6,0.2,5.1,0.5,7.6l-1.9,0.2l-225.7,3.5l-1.2,0c0.4-2.7,0.6-5.5,0.6-8.4c0-28.7-21.2-52-47.3-52
					c-26.1,0-47.3,23.3-47.3,52c0,3.2,0.3,6.3,0.8,9.4c-6.9-0.1-28.2-0.7-31.1-3.2c-3.5-3-5.1-6.2-5.4-8.1
					C57,361.2,57.8,358.8,57.8,358.8z"/>
				<g>
					<path class="st8" d="M196,267.2l214.8-10.3l3.2-0.2l9-0.4c3-0.2,5.6-2.3,6.3-5.3l7.2-31.4c0.7-2.9-1.3-5.7-4.2-6.1
						c-4.7-0.7-11-1.1-18.2-1.4c-1.1,0-2.1-0.1-3.2-0.1c-30.2-1.1-72.6,0.2-72.6,0.2l-63,1.9c-0.9,0-1.9,0.3-2.6,0.9L196,267.2z"/>
					<path class="st10" d="M346.7,212l-1.8,48.1l-25.4,1.2l7.9-48.8l10.7-0.3C338.2,212.2,341.4,212.1,346.7,212z"/>
					<path class="st11" d="M410.8,256.9v-44.9c1.1,0,2.2,0.1,3.2,0.1v44.6"/>
					<path class="st8" d="M256.7,214.1l-76.4,54.5l-25.5,1.9c0,0,67.6-43.3,88.7-56.4H256.7z"/>
					<path class="st9" d="M212.2,268v-12.7c0,0,0.8-2.4,3.5-3.5c2.7-1.1,14.6-3.3,17.3-1.6c2.7,1.6,1.6,18.2,1.6,18.2l-27.4,2.7
						L212.2,268z"/>
					<path class="st0" d="M102,288.1c0,0,7.6,1.9,5.4,3c-2.2,1.1-11.1,2.7-19.2,11.6c-8.1,8.9-12.2,15.2-14.6,16.8
						c-2.4,1.6-10.8,2.2-10.8,2.2s0.3-6,8.4-16C79.2,295.7,91.7,287,102,288.1z"/>
					<path class="st11" d="M167.5,287.8c17.4-1.7,36-3.5,36-3.5"/>
					<path class="st11" d="M59.2,341.2H70c4.7,0,8.9-2.9,10.5-7.4c2.9-8.2,8.5-21.1,16.6-28.1c12.5-10.8,36.8-13.8,40.6-14.6
						c1.4-0.3,11.3-1.4,23-2.6"/>
					<line class="st11" x1="71.3" y1="361.5" x2="60.5" y2="361.5"/>
					<path class="st11" d="M98.2,328.2c0,0-6.9,6.5-10.5,28.8c-0.4,2.6-2.6,4.5-5.2,4.5h-5.6"/>
					<path class="st11" d="M331.8,271c-1.1,11-2.8,31.7-3.6,59.6"/>
					<path class="st11" d="M338.2,206.3l-3.2,30c0,0-1.1,14.3-1.7,20.2"/>
					<path class="st11" d="M329,343.3c0,0,1.4,14.6,1.4,16.3"/>
					<path class="st11" d="M192.2,307.2c1.2,17.2,4.9,38.1,5.7,41c1.1,3.8,0.8,12.2,3.8,13c3,0.8,5.1,0.5,5.1,0.5"/>
					<path class="st11" d="M196,267.2c0,0-3,8.9-4.1,25.7c-0.1,2.2-0.2,4.6-0.1,7.2"/>
					<line class="st11" x1="212.5" y1="361.8" x2="391.8" y2="357.4"/>
					<path class="st11" d="M418,324.5c2.2-3.5,4.6-7.1,7.2-10.7c10.3-14.4,29-32,30.9-39.8c1.9-7.9,1.6-14.9,1.6-14.9"/>
					<path class="st11" d="M398.1,356.6c0,0,5.7-3.5,7.3-8.7c1.1-3.4,4.8-10.8,10.2-19.6"/>
					<path class="st11" d="M454.7,242.5c-1.9-11.1-5.1-28.1-8.1-33.6"/>
					<path class="st11" d="M456.3,252.6c0,0-0.3-2-0.8-5.1"/>
					<path class="st8" d="M418.3,272.6h25.2c0.4,0,0.7-0.3,0.7-0.7v-3.5c0-0.4-0.3-0.7-0.7-0.7h-25.2c-0.4,0-0.7,0.3-0.7,0.7v3.5
						C417.6,272.3,417.9,272.6,418.3,272.6z"/>
					<path class="st8" d="M299.6,279.7h25.2c0.4,0,0.7-0.3,0.7-0.7v-3.5c0-0.4-0.3-0.7-0.7-0.7h-25.2c-0.4,0-0.7,0.3-0.7,0.7v3.5
						C298.9,279.4,299.2,279.7,299.6,279.7z"/>
					<path class="st10" d="M518.6,296.7H510c0,0-4.1-20-14.6-24.4c-10.6-4.3-20.3-3.8-20.3-3.8s1.6-8.7,4.3-9.8
						c2.7-1.1,9.8-3,21.9,1.9c12.2,4.9,12.2,13,12.2,13L518.6,296.7z"/>
					<path class="st8" d="M465,214.9l7.9-1.9l28.7,43.1c0,0-10-0.3-13.8-6.5C484,243.4,465,214.9,465,214.9z"/>
					
						<ellipse transform="matrix(0.7071 -0.7071 0.7071 0.7071 -63.0493 425.0211)" class="st11" cx="481.5" cy="288.6" rx="9.2" ry="9.2"/>
					<g>
						
							<ellipse transform="matrix(0.2151 -0.9766 0.9766 0.2151 -240.0529 418.81)" class="st8" cx="140.5" cy="358.7" rx="39.6" ry="39.6"/>
						<path class="st0" d="M113.1,358.7c0,15.1,12.3,27.4,27.4,27.4c15.1,0,27.4-12.3,27.4-27.4c0-15.1-12.3-27.4-27.4-27.4
							C125.4,331.3,113.1,343.6,113.1,358.7z"/>
						<path class="st8" d="M119.7,358.7c0,11.5,9.3,20.8,20.8,20.8c11.5,0,20.8-9.3,20.8-20.8c0-11.5-9.3-20.8-20.8-20.8
							C129,337.9,119.7,347.2,119.7,358.7z"/>
						<path class="st0" d="M113.2,356.6c0.4-5.2,2.3-10.1,5.2-14.1c0.6,1.2,5,8.9,14.4,8.3c8.6-0.5,2.7-14.3,0.7-18.6
							c2.2-0.6,4.6-0.9,7-0.9c2.7,0,5.2,0.4,7.6,1.1c-1.6,2.8-4.2,8.4-2.8,13.7c1.8,7,11.1,4.6,18.5-1.6c2.4,4,3.9,8.6,4,13.5
							c-5.4-0.3-14.9-0.2-16,4.7c-1.2,5.4,4.5,9.8,10.9,12.1c-3,4.1-7.1,7.4-11.9,9.4c-1.2-4.9-4-13.3-9.8-13.7
							c-6-0.4-8.6,8.9-9.5,14.3c-5-1.7-9.3-4.9-12.5-8.9c4.1-1.6,14.5-6.3,11.1-13.8C127.1,355.3,118.1,355.8,113.2,356.6z"/>
					</g>
					<g>
						
							<ellipse transform="matrix(0.7071 -0.7071 0.7071 0.7071 -118.5907 431.1757)" class="st8" cx="461.2" cy="358.7" rx="39.6" ry="39.6"/>
						<path class="st0" d="M433.8,358.7c0,15.1,12.3,27.4,27.4,27.4c15.1,0,27.4-12.3,27.4-27.4c0-15.1-12.3-27.4-27.4-27.4
							C446,331.3,433.8,343.6,433.8,358.7z"/>
						<path class="st8" d="M440.3,358.7c0,11.5,9.3,20.8,20.8,20.8c11.5,0,20.8-9.3,20.8-20.8c0-11.5-9.3-20.8-20.8-20.8
							C449.7,337.9,440.3,347.2,440.3,358.7z"/>
						<path class="st0" d="M433.9,356.6c0.4-5.2,2.3-10.1,5.2-14.1c0.6,1.2,5,8.9,14.4,8.3c8.6-0.5,2.7-14.3,0.7-18.6
							c2.2-0.6,4.6-0.9,7-0.9c2.7,0,5.2,0.4,7.6,1.1c-1.6,2.8-4.2,8.4-2.8,13.7c1.8,7,11.1,4.6,18.5-1.6c2.4,4,3.9,8.6,4,13.5
							c-5.4-0.3-14.9-0.2-16,4.7c-1.2,5.4,4.5,9.8,10.9,12.1c-3,4.1-7.1,7.4-11.9,9.4c-1.2-4.9-4-13.3-9.8-13.7
							c-6-0.4-8.6,8.9-9.5,14.3c-5-1.7-9.3-4.9-12.5-8.9c4.1-1.6,14.5-6.3,11.1-13.8C447.8,355.3,438.8,355.8,433.9,356.6z"/>
					</g>
				</g>
			</g>
		</g>
	</g>
</g>
<g id="Location">
	<g>
		<path class="st8" d="M285.8,112.8c0,20.5,37.1,59.2,37.1,59.2s37.1-38.8,37.1-59.2c0-20.5-16.6-37.1-37.1-37.1
			C302.4,75.7,285.8,92.4,285.8,112.8z M305.7,112.8c0-9.5,7.7-17.3,17.3-17.3c9.5,0,17.3,7.7,17.3,17.3c0,9.5-7.7,17.3-17.3,17.3
			C313.4,130.1,305.7,122.4,305.7,112.8z"/>
		<path class="st1" d="M290.2,106.7c0,20.5,37.1,59.2,37.1,59.2s37.1-38.8,37.1-59.2c0-20.5-16.6-37.1-37.1-37.1
			S290.2,86.2,290.2,106.7z M310.1,106.7c0-9.5,7.7-17.3,17.3-17.3s17.3,7.7,17.3,17.3s-7.7,17.3-17.3,17.3S310.1,116.2,310.1,106.7
			z"/>
	</g>
</g>
<g id="Speech_Bubble">
	<g>
		<path class="st0" d="M109.4,166.4c-6.7-6.5-10.9-15.6-10.9-25.7c0-19.7,16-35.7,35.7-35.7c19.7,0,35.7,16,35.7,35.7
			s-16,35.7-35.7,35.7c-7,0-13.4-2-18.9-5.4l-9.1,7.7L109.4,166.4z"/>
		<g>
			<path class="st1" d="M128.9,108.6c0,5.6,10.2,16.2,10.2,16.2s10.2-10.6,10.2-16.2c0-5.6-4.6-10.2-10.2-10.2
				C133.4,98.4,128.9,103,128.9,108.6z M134.3,108.6c0-2.6,2.1-4.7,4.7-4.7c2.6,0,4.7,2.1,4.7,4.7c0,2.6-2.1,4.7-4.7,4.7
				C136.4,113.3,134.3,111.2,134.3,108.6z"/>
			<g>
				<g>
					<circle class="st12" cx="114.8" cy="150" r="5.2"/>
					<path class="st13" d="M111.2,150c0,2,1.6,3.6,3.6,3.6s3.6-1.6,3.6-3.6s-1.6-3.6-3.6-3.6S111.2,148.1,111.2,150z"/>
					<path class="st12" d="M112.1,150c0,1.5,1.2,2.7,2.7,2.7s2.7-1.2,2.7-2.7s-1.2-2.7-2.7-2.7S112.1,148.5,112.1,150z"/>
					<path class="st13" d="M111.3,149.8c0.1-0.7,0.3-1.3,0.7-1.8c0.1,0.2,0.7,1.2,1.9,1.1c1.1-0.1,0.4-1.9,0.1-2.4
						c0.3-0.1,0.6-0.1,0.9-0.1c0.3,0,0.7,0.1,1,0.1c-0.2,0.4-0.5,1.1-0.4,1.8c0.2,0.9,1.4,0.6,2.4-0.2c0.3,0.5,0.5,1.1,0.5,1.8
						c-0.7,0-1.9,0-2.1,0.6c-0.2,0.7,0.6,1.3,1.4,1.6c-0.4,0.5-0.9,1-1.5,1.2c-0.2-0.6-0.5-1.7-1.3-1.8c-0.8-0.1-1.1,1.2-1.2,1.9
						c-0.7-0.2-1.2-0.6-1.6-1.2c0.5-0.2,1.9-0.8,1.4-1.8C113.1,149.6,111.9,149.7,111.3,149.8z"/>
				</g>
				<g>
					<circle class="st12" cx="156.6" cy="150" r="5.2"/>
					<path class="st13" d="M153,150c0,2,1.6,3.6,3.6,3.6s3.6-1.6,3.6-3.6s-1.6-3.6-3.6-3.6S153,148.1,153,150z"/>
					<path class="st12" d="M153.9,150c0,1.5,1.2,2.7,2.7,2.7s2.7-1.2,2.7-2.7s-1.2-2.7-2.7-2.7S153.9,148.5,153.9,150z"/>
					<path class="st13" d="M153.1,149.8c0.1-0.7,0.3-1.3,0.7-1.8c0.1,0.2,0.7,1.2,1.9,1.1c1.1-0.1,0.4-1.9,0.1-2.4
						c0.3-0.1,0.6-0.1,0.9-0.1c0.3,0,0.7,0.1,1,0.1c-0.2,0.4-0.5,1.1-0.4,1.8c0.2,0.9,1.4,0.6,2.4-0.2c0.3,0.5,0.5,1.1,0.5,1.8
						c-0.7,0-1.9,0-2.1,0.6c-0.2,0.7,0.6,1.3,1.4,1.6c-0.4,0.5-0.9,1-1.5,1.2c-0.2-0.6-0.5-1.7-1.3-1.8c-0.8-0.1-1.1,1.2-1.2,1.9
						c-0.7-0.2-1.2-0.6-1.6-1.2c0.5-0.2,1.9-0.8,1.4-1.8C154.9,149.6,153.7,149.7,153.1,149.8z"/>
				</g>
				<path class="st7" d="M104,150.6c0,0.2,0.2,0.7,0.7,1.1c0.4,0.3,3.2,0.4,4.1,0.4c-0.1-0.4-0.1-0.8-0.1-1.2c0-3.7,2.8-6.8,6.2-6.8
					c3.4,0,6.2,3,6.2,6.8c0,0.4,0,0.7-0.1,1.1l0.2,0l29.4-0.5l0.2,0c0-0.3-0.1-0.7-0.1-1c0-3.7,2.8-6.8,6.2-6.8c3.3,0,6,2.8,6.1,6.4
					l0.1,0c0,0,0.8-0.1,1.2-0.4c0.4-0.2,0.7-1.2,0.8-1.5c0.2-0.3-0.2-0.8-0.2-0.8s0.3-2.3,0.2-3.2c0-0.9-0.8-2-0.8-2
					s-0.5-2.1-0.9-3.4c0-0.1,0-0.1-0.1-0.2c-0.1-0.4-0.2-0.6-0.2-0.7c-0.2-0.4-1.2-1.2-1.2-1.2l-3.7-5.6c0,0,0.2-0.1,0.2-0.5
					c0-0.4-1.4-0.2-1.4-0.2c-4.8-0.5-9.8-0.7-14.9-0.8c-5.1-0.1-10.7,0.6-11,0.6c-0.3,0-1.2,0.1-2,0.6c-0.1,0.1-0.4,0.2-0.9,0.5
					c0,0,0,0,0,0c0,0-0.1,0-0.1,0.1c0,0,0,0-0.1,0c0,0-0.1,0-0.1,0.1c0,0,0,0-0.1,0c0,0-0.1,0-0.1,0.1c0,0,0,0-0.1,0
					c0,0-0.1,0.1-0.1,0.1c0,0,0,0,0,0c0,0-0.1,0.1-0.1,0.1c0,0,0,0,0,0c-0.2,0.1-0.3,0.2-0.5,0.3c0,0,0,0,0,0
					c-0.1,0-0.1,0.1-0.2,0.1c0,0,0,0,0,0c-0.1,0-0.1,0.1-0.2,0.1c0,0,0,0,0,0c-0.1,0-0.1,0.1-0.2,0.1c0,0,0,0,0,0
					c-0.1,0-0.1,0.1-0.2,0.1c0,0,0,0,0,0c-0.1,0-0.1,0.1-0.2,0.1c0,0,0,0,0,0c-0.4,0.2-0.7,0.5-1.1,0.7c0,0,0,0-0.1,0
					c-0.1,0-0.1,0.1-0.2,0.1c0,0-0.1,0-0.1,0.1c-0.5,0.3-0.9,0.6-1.4,0.9c0,0,0,0,0,0c-0.1,0.1-0.3,0.2-0.4,0.3c0,0-0.1,0-0.1,0.1
					c-0.3,0.2-0.6,0.4-0.9,0.6c0,0,0,0,0,0c0,0-0.1,0-0.1,0.1c-0.1,0-0.1,0.1-0.2,0.1c0,0-0.1,0-0.1,0.1c-0.1,0.1-0.3,0.2-0.4,0.2
					c-0.4,0.3-0.8,0.5-1.2,0.8c0,0-0.1,0.1-0.1,0.1c-0.1,0.1-0.2,0.1-0.2,0.2c-0.1,0.1-0.2,0.1-0.3,0.2c-0.2,0.1-0.3,0.2-0.5,0.3
					c0,0,0,0,0,0c0,0-0.1,0.1-0.1,0.1c-0.1,0.1-0.2,0.1-0.3,0.2c0,0,0,0-0.1,0c0,0-0.1,0-0.1,0.1c-0.2,0.1-0.3,0.2-0.4,0.3
					c0,0,0,0,0,0c0,0-0.1,0-0.1,0.1c0,0-0.1,0-0.1,0.1c0,0,0,0-0.1,0c0,0,0,0,0,0c0,0-0.1,0-0.1,0c0,0,0,0,0,0c0,0,0,0,0,0
					s-5.9,0.9-7.5,1.7c-1.7,0.8-2.9,1.6-3.8,3.2s-1.3,3.3-1.3,3.7c0,0.4,0.2,0.6,0.2,0.6l-0.2,2.3C104,150.1,103.9,150.4,104,150.6z
					 M157.3,131.5l0.6-0.2l3.6,5.4h-1L157.3,131.5z M141.5,137.2l0.2-6.3c1.8,0,5.5-0.1,8.3,0c0.1,0,0.3,0,0.4,0
					c0.9,0,1.8,0.1,2.4,0.2c0.4,0.1,0.6,0.4,0.5,0.8l-0.9,4.1c-0.1,0.4-0.4,0.7-0.8,0.7l-1.2,0.1l-0.4,0L141.5,137.2z M122.1,138.1
					l10-6.8c0.1-0.1,0.2-0.1,0.3-0.1l6.8-0.2l-0.9,6.4L122.1,138.1z M117.5,138.4l10.9-7h1.6l-10.1,6.9L117.5,138.4z"/>
			</g>
		</g>
	</g>
</g>
<g id="Character_3">
	<g>
		<path class="st0" d="M74.1,196.8c0,0,7.1,1.8,8,4.5c0.9,2.7,4.4,22.5,4.4,22.5l1.8,0.5c0,0,3.5,7.9,0.2,12.4
			c-3.3,4.5-4.8,4.4-7.7,1.5c-2.9-2.9-4.7-6.9-4.8-7.5c-0.2-0.6,0.2,15.1-0.3,16.3c-0.5,1.2-0.5,1.2-0.5,1.2s-28.2-1.7-30.2-2.4
			c-2-0.8-2.3-1.5-1.8-2.6c0.5-1.1-3.9-19.9-3.9-19.9s-1.5,10.1-1.4,10.9c0.2,0.8,3.5,6.7,2.4,9.4c-1.1,2.7-5.2,3.8-7.7,1.6
			c-2.6-2.3-3.3-9.5-3.3-9.5s0.9-24.2,2.1-28.7c1.2-4.5,6.9-8.9,6.9-8.9L74.1,196.8z"/>
		<path class="st0" d="M61.2,188.1c0,0-0.5,2.5-0.4,3.3c0.1,0.9,1.3,3.1,3.7,5c2.4,1.9,2.4,1.9,2.4,1.9s-0.6,1.8-8,3.4
			c-7.4,1.6-13.1-3.3-13.1-3.3s-1.6-1.3,0-6.7c1.6-5.3,5.4-11.5,5.4-11.5l2.7-3c0,0,1.8,4.6,3.7,6.5
			C59.5,185.7,61.2,188.1,61.2,188.1z"/>
		<path class="st8" d="M66.6,183.2c0,0,2.2,1.9,3.1,4.1c1,2.2-2.2,3.6-1.7,4.6c0.5,1,5.2,1.6,7.6,4.6c2.4,3-3,9.3-8.4,9.1
			s0.4-5.5-3.5-8.9c-3.8-3.4-4.3-4.4-2.5-8.5C63,184,66.6,183.2,66.6,183.2z"/>
		<g>
			<path class="st0" d="M67.3,164.4c0,0,1.4,3,1.7,8.8c0.3,5.8-0.6,8.7-1.7,11c-1.2,2.3-2.6,4.9-6.2,4.5c-3.6-0.4-7.1-4.8-7.8-6.8
				c-0.7-2-0.7-8.1,1.7-14C57.5,162,63.9,158.7,67.3,164.4z"/>
			<line class="st11" x1="66.6" y1="177.3" x2="65.2" y2="178.4"/>
			<path class="st11" d="M65.9,180.5c0,0-4.2,0-5.9-2.9"/>
			<path class="st11" d="M68.9,170.6c0,0-1-1.5-2.1-0.6"/>
			<path class="st11" d="M63.7,168.4c0,0-2-2.6-4-0.9"/>
			<ellipse class="st7" cx="61" cy="171.4" rx="1" ry="1.4"/>
			<path class="st7" d="M66.6,173.5c0,0.7,0.4,1.2,0.9,1.2c0.5,0,0.9-0.5,0.9-1.2s-0.4-1.2-0.9-1.2C67,172.2,66.6,172.8,66.6,173.5z
				"/>
		</g>
		<path class="st8" d="M63.2,161.6c0,0-4.2,1.1-5.8,6.5c-1.6,5.3-3.3,16.7-6.6,21c-3.2,4.4-6.4,7.6-1.8,13.4
			c4.6,5.8,6.1,11.2,2.6,15.7c-3.5,4.5-11.3,1.5-15-3c-3.7-4.5-3-7.9-1-11.5c2-3.6,1.7-2.8,0-1.8c-1.7,1-3.8,1.4-3-3.6
			c0.9-5,3.5-10,5.7-11.7s5.3-5.2,4.6-12c-0.8-6.8,2.3-11.8,7.4-15.1c5.1-3.3,14.7-0.6,15.7,1c1,1.5,1,1.5,1,1.5s2.5,1.3,2.4,3.2
			c-0.1,1.9-1.5,1.2-1.5,1.2S66.5,162.3,63.2,161.6z"/>
		<path class="st0" d="M105.5,202c0,0,1.6-3.3,1.1-4.4c-0.5-1.1-3.5-3.5-4.1-2.6c-0.5,0.8-0.3,1.2,0.5,1.7c0.7,0.5,1.6,1.5,1.6,1.5
			l-0.9,2.2L105.5,202z"/>
		<path class="st0" d="M104.1,210.8l-4.8,5.9c0,0-6.8,15.6-8,17.5c-1.2,2-3.3,3.8-5.9,2.6c-2.6-1.2-2.1-5-1.1-7.2
			c1.1-2.3,7.2-9.1,8.5-10.9c1.2-1.8,2.4-4.2,2.4-4.2s0.3-4.5,0.5-6.2c0.2-1.7,6.3-7.7,6.5-8.2c0.2-0.5,2.7,2.1,2.7,2.1L104.1,210.8
			z"/>
		<polygon class="st8" points="108.2,185.8 100.3,206.5 92.9,206.7 100.9,184.8 		"/>
		<path class="st0" d="M105.9,204.6c0,0,0.5-3.9-0.9-4.7c-1.5-0.8-6.3-2.5-6.7-2.1c-0.5,0.4,0.4,1.2,1.2,1.5
			c0.8,0.4,3.9,1.6,3.9,1.6l-0.5,1.5"/>
		<path class="st0" d="M105.3,208.3c0,0,0.9,1,0.5,1.5c-0.5,0.5-2,0-3.5,0c-1.5,0-3.5,0.1-3.4-0.8c0.2-0.9,2.2-1.2,3-1.2
			C102.6,207.9,104.4,208,105.3,208.3z"/>
		<path class="st0" d="M105.3,208.3c0,0,1.1-1.9,1-2.7c-0.1-0.8-2.3-3-3.4-3.1c-1.1-0.1-5.5-0.7-5.6-0.1c-0.1,0.6,1.9,0.9,2.8,1.3
			c0.9,0.4,2.1,0.6,2.1,0.6l1.2,2.1l-0.2,0.6"/>
		<g>
			<path class="st0" d="M20,359.3l-3.3,8c0,0-4,10-3.9,13.4c0.1,3.4-1.5,4.6-2.8,4.8c-1.3,0.1-4.2-3.4-5.1-7.6
				c-0.9-4.2,1.5-13.7,1.5-14.9c0-1.2-1-6.8,1.3-8.8c2.4-1.9,5.8-2.4,5.8-2.4L20,359.3z"/>
			<path class="st0" d="M20,359.3c0,0-3.9,2.4-7.1,0.9c-3.3-1.5,0.3-5.3,0.3-5.3L20,359.3z"/>
			<path class="st0" d="M5,377.9c-0.9-4.2,1.5-13.7,1.5-14.9c0-1.2-1-6.8,1.3-8.8c0.5-0.4,1-0.7,1.6-1c0.3,2.3-1.1,6.8-1.7,9.8
				c-0.7,3.7-1.9,9.7-1,14.1c0.8,4,4.4,7,5.1,7.5c-0.5,0.5-1.1,0.8-1.7,0.8C8.7,385.6,5.9,382.1,5,377.9z"/>
		</g>
		<path class="st10" d="M75.6,246.9c0,0,3.1,13.6,1.8,24.6c-1.3,11-14.6,66.7-14.6,66.7L57.5,370l-10.3-0.9l1.3-34.5l4.5-42.4
			c0,0-10,32.1-11.9,35.4c-1.9,3.3-19,30-19,30s-3.4,0.3-5.6-1.3s-2.8-4.5-2.8-4.5s6.7-20.7,11.1-28.2c4.5-7.6,5.5-7.7,5.5-7.7
			s-1.5-7.1-1.5-9.2c0-2.1,0-5.2,0-7.9s4.8-31.7,8.2-40.4c3.4-8.8,7.4-13.7,7.4-13.7L75.6,246.9z"/>
		<line class="st11" x1="60.7" y1="276.1" x2="54.3" y2="290.4"/>
		<path class="st0" d="M56.1,372.4c0,0,0.1,8,0.3,8.9c0.1,0.9,8.6,10.8,10.4,12c1.8,1.2,2.4,1.8,2.1,3c-0.3,1.2-3.7,1.8-7.1,1.3
			c-3.4-0.4-9.2-4-10.6-4.9c-1.3-0.9-7.9-2.7-7.9-6.2c0-3.6,3-9.4,3-9.4l1-5.9L56.1,372.4z"/>
		<g>
			<path class="st0" d="M45.1,379.9c1,0.4,2,0.6,2.7,0.6c2.1-0.1,5.5-1.2,7.1-1.5c0.9-0.2,1.3,0.6,1.4,1.3c0,0.5,0.1,0.9,0.1,1.1
				c0.1,0.9,8.6,10.8,10.4,12c1.8,1.2,2.4,1.8,2.1,3c-0.3,1.2-3.7,1.8-7.1,1.3c-3.4-0.4-9.2-4-10.6-4.9c-1.3-0.9-7.9-2.7-7.9-6.2
				C43.3,384.5,44.3,381.8,45.1,379.9z"/>
			<path class="st11" d="M61.3,395.9c2.4,0.8,5.9,0.1,7.6-0.4c0,0.3,0,0.5,0,0.8c-0.3,1.2-3.7,1.8-7.1,1.3c-3.4-0.4-9.2-4-10.6-4.9
				c-1.3-0.9-7.9-2.7-7.9-6.2c0-0.3,0-0.6,0.1-0.8c1.4,0.5,3,1.2,4.1,1.7C50.5,388.9,57.9,394.7,61.3,395.9z"/>
		</g>
		<path class="st1" d="M58.8,366.9c0,0-0.6,6.7-1.5,6.8s-11.6-0.3-11.7-1.6c-0.1-1.3-0.1-4.5,0.4-5.6
			C46.6,365.3,58.2,364.8,58.8,366.9z"/>
		<path class="st1" d="M24.9,354.3c3.3-0.6-1.6,5.2-3.6,6.4c-1.9,1.2-6.8-1-8.2-4.8c-1.3-3.7-0.9-6.7,0.1-7.1c1-0.4,1.5,0.3,1.5,0.3
			S16.6,355.9,24.9,354.3z"/>
		<g>
			<path class="st0" d="M33.9,236.5c0,0,8.5-5.9,9.6-7.7c1.1-1.9,2-2.9,2-2.9s0.3-4.3,0.8-6.4c0.5-2.1,1.9-5.5,2.7-6.3
				c0.8-0.8,4.7-1.9,4.5-0.4c-0.1,1.5-2.1,1.1-2.5,1.2c-0.4,0.1-1.9,2.7-1.9,2.7s4.1-0.1,4.8,0.1c0.7,0.3,3.2,2.1,3.7,3.1
				c0.5,0.9-2.1,4.9-2.3,5.3c-0.1,0.4-0.8,1.5-1.9,1.7c-1.1,0.3-1.7-1.1-1.7-1.1s-0.5,2.8-1.5,3.7c-0.9,0.9-2.5,1.1-2.5,1.1
				s-5.9,9.5-7.1,11.6c-1.2,2.1-3.5,4.7-6,2.1C32.1,241.8,32.9,238,33.9,236.5z"/>
			<path class="st11" d="M56.9,221.8c0,0-2-2.9-3.1-3.2c-1.1-0.3-4.4-0.4-4.4-0.4"/>
			<path class="st11" d="M55.5,224.4c0,0-1.6-2.2-2.9-2.9c-1.3-0.7-4.2-0.3-4.2-0.3"/>
		</g>
	</g>
</g>
<g id="Character_2">
	<g>
		<path class="st8" d="M370.2,270.1c0,0,1.5,16.1,2.6,20.7c1.1,4.6,5.5,35.7,7.7,39.7c2.2,4,1.3,7.5,2.6,9.9c1.3,2.4,2.2,4,2.2,4
			s2.4,21.4,3.3,26.7c0.9,5.3,0.4,5.1,0,7.5c-0.4,2.4,2.4,4.2,2.4,4.2s-3.1,3.5-4.2,5.5c-1.1,2-7.5,2.9-10.6,3.7
			c-3.1,0.9-3.3,3.3-2.6,4c0.7,0.7,3.1,0.9,3.1,0.9h33.3c0,0,0.2-4.6,0.2-7.1c0-2.4-0.4-5.5-0.7-6.2c-0.2-0.7-0.7-2.2-0.7-5.3
			c0-3.1-4-7.5-4.2-9.3c-0.2-1.8,0.7-10.4-0.9-18.3c-1.5-7.9-6.4-27.5-6.4-28.2c0-0.7-0.4-22.9-0.4-22.9s7.9-20.3,8.8-21.2
			c0.9-0.9,4.6-14.1,4-16.1c-0.7-2-3.1-5.5-15.2-5.5c-12.1,0-17,5.9-18.1,7.3C375.5,265.4,370.2,270.1,370.2,270.1z"/>
		<g>
			<path class="st1" d="M391.2,382.7c0,0-3.1,3.5-4.2,5.5c-1.1,2-7.5,2.9-10.6,3.7c-3.1,0.9-3.3,3.3-2.6,4c0.7,0.7,3.1,0.9,3.1,0.9
				h33.3c0,0,0.2-4.6,0.2-7.1c0-0.6,0-1.2-0.1-1.8c-0.8-0.1-1.6-0.3-2.6-0.4C400.2,386.2,391.2,382.7,391.2,382.7z"/>
			<path class="st0" d="M410.3,393.5l-27.9,1.7l-8.9-0.2c0,0.4,0.1,0.7,0.3,0.8c0.7,0.7,3.1,0.9,3.1,0.9h33.3
				C410.1,396.8,410.2,395.3,410.3,393.5z"/>
		</g>
		<g>
			<g>
				<path class="st1" d="M410.1,369.7l-1.1,8.6c0,0-7.1,9.9-7.9,11c-0.9,1.1,0.9,2,2.6,2.6c1.8,0.7,14.1-4.2,16.5-6.4
					c2.4-2.2,7.1-7.1,7.1-7.1l2,1.3c0,0,5.3-6.6,4.6-8.2c-0.7-1.5-8.6-7.5-8.6-7.5L410.1,369.7z"/>
				<path class="st0" d="M432.2,369.8c-2.7,3.2-10.2,11.9-13.1,14.2c-3,2.5-14.7,5.7-17.9,6.6c0.5,0.5,1.5,1,2.5,1.3
					c1.8,0.7,14.1-4.2,16.5-6.4c2.4-2.2,7.1-7.1,7.1-7.1l2,1.3c0,0,5.3-6.6,4.6-8.2C433.7,371.3,433.1,370.6,432.2,369.8z"/>
			</g>
			<path class="st9" d="M381,265.4c0,0-3.7,21.2-4,23.4c-0.2,2.2-3.3,26.4-1.1,31.5c2.2,5.1,13.9,26.4,13.9,26.4s13.2,15,14.1,15.6
				c0.9,0.7,0.2,2.2,0.7,3.1c0.4,0.9,3.1,1.8,3.1,1.8s0.7,2.9,1.1,4s3.3-0.2,7.7-1.1c4.4-0.9,8.8-5.9,8.8-5.9s-0.9-3.7-1.3-4.4
				c-0.4-0.7,1.3-0.4-0.7-4c-2-3.5-3.5-5.1-3.5-5.1l-19-26.2l-2.4-6.2c0,0,1.1-9.7,0.9-11.2c-0.2-1.5-1.3-4.6-1.3-5.3
				s9.7-21.8,10.1-23.6c0.4-1.8,4.4-8.2,4.6-10.4c0.2-2.2-2.9-5.5-2.9-5.5s-9.9-5.1-13.7-5.1c-3.7,0-4.8-0.2-7.3,1.1
				c-2.4,1.3-6.4,4-6.4,4L381,265.4z"/>
			<path class="st14" d="M396.9,316c0,0-5.5-1.7-7.5-2c-2-0.2-2,1.1,3.5,2.7"/>
			<path class="st14" d="M397.9,267c0,0-0.7,12.7-3.2,18c-2.5,5.2-4.5,12.2-5.7,17.5c-1.2,5.2,1.2,4.2,1,5.7c-0.2,1.5-3,3.7-3,3.7"
				/>
			<path class="st14" d="M392.2,320c0,0,1.7,7.5,7.2,16c5.5,8.5,14.7,18.2,15,20.2c0.2,2-1,4.5-1,4.5s4,0,4.2,1.5
				c0.2,1.5,1,3.2,1,3.2"/>
		</g>
		<path class="st0" d="M370.9,184.3c0,0-1.5,9.3-1.8,10.6c-0.2,1.3-3.7,13.2-2.2,22.3s2.2,29.7,2.2,29.7l-0.9,25.8
			c0,0,3.5,2.2,10.8-2.6c7.3-4.8,8.6-9.7,13-9.7c4.4,0,10.8,3.3,13.9,4.2c3.1,0.9,8.8,2.9,8.8,2.9s-3.5-25.6-5.5-33.5
			c-2-7.9-3.5-30.6-7.7-39.9c-4.2-9.3-8.6-13.7-10.6-15c-2-1.3-3.3-1.1-3.3-1.1S374.4,179.3,370.9,184.3z"/>
		<g>
			<path class="st0" d="M361.4,152.8c0,0-2.3,6.3-1.8,8.2c0.5,1.9,0.8,2.6,0.5,3.4c-0.3,0.8-2.7,4.7-1.9,5.5
				c0.8,0.8,1.8,1.6,1.8,1.6l5,3.9l2.4,3.6l2.1,3.7l15.7-9.2l-1-2.3c0,0,3.2-10.2,1.6-14.4c-1.6-4.2-12-4.2-15.8-4.4
				C366.1,152.3,361.4,152.8,361.4,152.8z"/>
			<path class="st8" d="M370.2,147.9c0,0-5-1.7-9.7,0.5c-4.7,2.3,0,6.5,1.1,6.6c0,0,0,4.7,0.8,5.5c0.8,0.8,0.8,0.8,0.8,0.8
				s0.6,5.8,0.3,7.3c-0.3,1.5-0.5,2.1-1.3,2.4c-0.8,0.3-2.7-1.1-2.4,0.5c0.3,1.6,0.8,3.1,0.8,3.1s-0.2,4.2,0,5.7
				c0.2,1.5,3.9,1.5,5.3,0.6c1.5-0.8,5.3-4.4,4.2-5.8c-1.1-1.5-3.6-3.4-3.6-5.3s0.8-7.9,2.9-7.8c2.1,0.2,2.7,1.3,2.9,2.9
				c0.2,1.6-0.3,2.4,0.2,3.2c0.5,0.8,1.1,1.9,4.9,3.2c3.7,1.3,5.7,1.3,6.6-0.2c1-1.5,3.4-10,3.4-14.7s-0.5-5.8-6.3-8.7
				C375.4,144.8,372,146.9,370.2,147.9z"/>
			<path class="st0" d="M372.4,166.8c0,0-0.6,3.6-2.1,4.2c-1.5,0.6-2.1-0.5-2.1-0.5"/>
		</g>
		<path class="st0" d="M390.9,179.1c0,0-1.6-6.7-4.2-7.3c-2.6-0.6-10.1,4.8-13,6.8c-2.9,2-5.7,5.9-5.7,5.9l1.1,2.9
			c0,0,6.2-5.9,9.5-6.8C381.9,179.7,390.9,179.1,390.9,179.1z"/>
		<path class="st0" d="M374,196.5c0,0,0.7,2.4,1.8,4.4c1.1,2,2.4,4.8,2.4,4.8l-0.9,27.8L370,250l11.9,2c0,0,11.2-19,11.5-21.2
			s5.7-29.5,5.7-31.1s2-4.2-2.9-9.9"/>
		<path class="st14" d="M402,205.1c0,0-4,5.3-5.1,5.9"/>
		<path class="st15" d="M369.4,252c0,0-7.7,12.3-8.4,13.2s-4.2,5.5-4.8,7.1c-0.7,1.5-2.2,8.6-2.4,9.9c-0.2,1.3,0.2,2.6,1.5,2
			c1.3-0.7,1.1-4.6,1.1-4.6l2-5.1c0,0-0.4,10.1,0,11.7c0.4,1.5,2,0.4,2-2.9c0-3.3-0.2-4.8-0.2-4.8l1.3-2.4c0,0,1.1,6.4,1.5,8.4
			c0.4,2,2,2.2,2.2,0.4c0.2-1.8-0.7-3.3-0.7-4c0-0.7,0.9-4.8,0.9-4.8s0.2,6.2,1.5,6.8c1.3,0.7,1.8-0.7,1.1-2.2
			c-0.7-1.5-0.7-2-0.7-2.9c0-0.9,0.9-5.1,0.9-5.1s0.4-5.3,0.4-5.9s11.5-13.4,11.5-13.4L369.4,252z"/>
		<path class="st0" d="M371.1,246c0,0-5.1,5.1-4.4,6.2c0.7,1.1,11.9,3.1,13.9,2.6c2-0.4,3.5-2,3.7-3.1
			C384.6,250.7,375.1,245.2,371.1,246z"/>
	</g>
</g>
<g id="Character_1">
	<g>
		<g>
			<path class="st16" d="M662.7,165.2c0,0-3,6-3.5,7.4c-0.5,1.4-0.8,4.1-0.6,5.1c0.2,1.1,2.9,2.9,2.9,2.9l-15.1,12.2
				c0,0-2.9-4.7-4.4-8.6c-1.5-3.9-3-7.7-4.5-8.5c-1.5-0.8-4.8-0.6-5.8-2.5c-0.5-0.9,0.3-6.2,0.8-8.3c0.5-2.1,1.2-3.6,1.2-3.6
				s-1.8-1.5-1.5-2.9c0.3-1.4,1.8-1.7,3-2c1.2-0.3,2-0.5,2.6-1.1c0.6-0.6,0.3-1.4,2-3.5c1.7-2.1,5.1-2.9,5.1-2.9s2.7-0.5,7.1,0.6
				c4.4,1.1,9.9,10.2,10.5,11.7C663.1,163,662.7,165.2,662.7,165.2z"/>
			<path class="st7" d="M639.5,155.8c-0.3,0.6-0.3,1.1,0.1,1.3c0.3,0.2,0.9-0.1,1.2-0.7c0.3-0.6,0.3-1.1-0.1-1.3
				C640.3,154.9,639.8,155.2,639.5,155.8z"/>
			<path class="st11" d="M642.7,154.4c0,0-1.3-2-2.6-0.9"/>
			<path class="st11" d="M634.1,163.3c0,0,3.2,1.3,6.1-0.8"/>
			<path class="st17" d="M662.5,161.5c0.6,1.5,0.2,3.8,0.2,3.8s-1.5,3-2.5,5.2c-0.4-0.3-0.7-0.6-1.1-1.1c-1.4-1.8-4.7-4.5-4.9-4.9
				c-0.2-0.4-1.5-4.6-1.5-4.6s-0.9-0.4-1.6-1.1c-0.7-0.7-0.4-1.1-0.3-1.9c0.1-0.9-3.1-4.1-3.7-5.3c-0.6-1.2,0.8-2.4,0.8-2.4l0.2-0.1
				c1.1,0.1,2.3,0.3,3.8,0.6C656.4,150.8,661.9,160,662.5,161.5z"/>
			<path class="st16" d="M650.6,160.1c0,0,4.4-2.6,4.6,1.9s-2.6,3.8-4.5,4.1c-2,0.3-2.1-1.7-2.1-1.7"/>
			<path class="st8" d="M661.2,148.7c0,0,1.5-1.2,3.8,2.6c2.3,3.8,1.4,4.8,1.4,4.8s1.7,0.3,2.1,3c0.5,2.7-0.9,5.3-3.3,6
				c-2.4,0.8-2.4,0-4.4-2.1c-2-2.1-0.8-6.5-4.5-9.3s-7.1-3.6-9.5-4.1c-2.4-0.5-3.9-1.5-3.2-3.3c0.8-1.8,4.7-4.1,6.8-2.7
				c2.1,1.4,2.9,1.7,2.9,1.7S660.1,144.6,661.2,148.7z"/>
		</g>
		<g>
			<g>
				<path class="st0" d="M668.9,371.1c0,0,0,0.6,0,1.4c0.1,2.7,0.2,8.2,0.3,8.8c0.2,0.7,2.1,2.3,2.5,5.4c0.4,3.2,0.2,7,0,7.9
					c-0.2,0.9,0.4,0.5-8.8,1.8c-9.1,1.2-21.8,2.8-25.8,1.6c-4-1.2-3.5-3.7-2.8-4.6c0.7-0.9,5.6-1.2,9.1-4.2c3.5-3,10.9-7.9,11.9-9.1
					c1.1-1.2,1.2-0.7,1.8-2.3c0.5-1.6,1.2-4.6,1.2-4.6L668.9,371.1z"/>
				<path class="st18" d="M643.4,389.2c3.5-3,10.8-7.8,11.9-9.1c1.6,1.9,4.6,5,6.7,5.2c3,0.4,7.4-2.6,7.4-2.6h0.7
					c0.6,0.9,1.4,2.2,1.6,4c0.4,3.2,0.2,7,0,7.9c-0.2,0.9,0.4,0.5-8.8,1.8c-9.1,1.2-21.8,2.8-25.8,1.6c-4-1.2-3.5-3.7-2.8-4.6
					C635,392.6,639.9,392.2,643.4,389.2z"/>
			</g>
			<path class="st0" d="M637.1,398c-1.9-0.6-2.7-1.4-3.1-2.2c3.7,0.8,12.6,1.3,19.8-0.4c6-1.5,14.8-2.5,18.1-2.9
				c0,1-0.1,1.8-0.2,2.2c-0.2,0.9,0.4,0.5-8.8,1.8C653.8,397.6,641.1,399.2,637.1,398z"/>
		</g>
		<g>
			<g>
				<path class="st0" d="M612.8,366.7c0,0-2.8,4.4-3.9,5.1s-9.5,4.6-12.8,3.9c-3.3-0.7-10.4-3.3-10.2-1.1c0.2,2.3,3.2,6.3,6.9,8.4
					c3.7,2.1,9.1,2.8,10.5,3.5c1.4,0.7,3.3,1.1,4,1.4c0.7,0.4-0.2,1.8-0.2,1.8s5.1,2.3,6.7,3c1.6,0.7,5.1,1.1,5.1,1.1l0.4-2.6
					c0,0,1.9-5.1,2.3-7.6s1.1-6.9,1.4-9.5c0.4-2.6,1.1-4.7,1.1-4.7L612.8,366.7z"/>
				<path class="st18" d="M609.7,377.8c0,0,1.9,1.2,6.5,2.1c2.5,0.5,4.5,0.6,5.9,0.7c-0.2,1.1-0.3,2.2-0.4,3
					c-0.4,2.5-2.3,7.6-2.3,7.6l-0.4,2.6c0,0-3.5-0.4-5.1-1.1c-1.6-0.7-6.7-3-6.7-3s-0.4-1.3-1.1-1.7c-0.7-0.4-3.5-0.6-4.9-1.3
					c-1.4-0.7-4.8-1.6-8.5-3.7c-3.7-2.1-6.7-6.1-6.9-8.4c-0.2-2.3,6.9,0.4,10.2,1.1c3.3,0.7,11.8-3.2,12.8-3.9c0,0,0.7,1.2,0.7,3.2
					S609.7,377.8,609.7,377.8z"/>
			</g>
			<path class="st0" d="M586,374.7c3.1,4.1,9.5,7.9,15.6,9.8c4.7,1.5,13,5,17.7,7l-0.3,2.3c0,0-3.5-0.4-5.1-1.1
				c-1.6-0.7-6.7-3-6.7-3s-0.4-1.3-1.1-1.7c-0.7-0.4-3.5-0.6-4.9-1.3c-1.4-0.7-4.8-1.6-8.5-3.7C589.1,381,586.1,376.9,586,374.7z"/>
		</g>
		<path class="st8" d="M669.7,258c0,0,5.4,9.3,4.4,16.9c-1.1,7.6-4.6,12.8-4.6,12.8l-1.8,29c0,0,5.3,20.9,3,34.4
			c-2.3,13.5-0.7,23.2-0.7,23.2l-13.5,0.5l-5.4-39.3l-4.7-15.6l-1.9-10l-6.9,19.1l-12.3,42.3l-12.5-4.6l6.3-45.1
			c0,0,5.8-26.7,6.3-29c0.5-2.3,6.3-25.1,6.3-25.1l1.2-4.3c0,0,3.9-4.2,7.6-5.6c3.7-1.4,7.6-1.6,14.8-0.9S669.7,258,669.7,258z"/>
		<g>
			<path class="st1" d="M635.8,227.5c0,0-6.2-1.2-8-1.9c-1.8-0.7-2.5-1.2-2.5-1.2s-0.4,4.7-1.2,6c-0.8,1.2-0.8,1.2-0.8,1.2
				s2.6,3.5,5.5,5.3c2.9,1.8,6,3,6,3L635.8,227.5z"/>
			<path class="st16" d="M625.3,224.3l-2.9-1.8c0,0-2.5-3.6-3.9-3.9c-1.4-0.3-12.3,0.4-12.3,0.4s0.6,1.1,1.5,2.2
				c1,1.1,1.8,2.6,2.1,3.6c0.3,1,0.4,3,2.5,4c2.1,1,6.8,2.4,7.9,2.6c1.1,0.3,3,0,3,0S625.1,228.3,625.3,224.3z"/>
			<path class="st8" d="M608.8,217.7c-0.1-0.2-8.5-6.8-8.9-6.7c-0.4,0.1-0.5,0.3-0.9,1.3c-0.4,1.1,9.4,8.4,9.4,8.4L608.8,217.7z"/>
			<path class="st16" d="M622.8,224c0,0-0.8-3.7-1.8-5c-1-1.2-2.7-2-5.3-2.5c-2.6-0.5-4.5,0.9-4.5,0.9s-1.7,0.6,0,1.4
				c1.7,0.8,3.6,0,3.6,0s0.3,3.3,1.6,4.4c1.2,1.1,3.3,1.4,3.3,1.4"/>
			<path class="st16" d="M606.1,219.9c0,0-0.5-3.8-1.6-4.3c-1.1-0.5-1.9,1.1-1.5,2.3c0.5,1.1,1.6,1.9,2.1,2.5
				C605.8,220.9,606.1,219.9,606.1,219.9z"/>
			<path class="st16" d="M606.2,222.6c0,0,2.2-1.6,3.3-2.3c1.1-0.7,3-2.8,1.7-2.9c-1.3-0.1-2.1,0.2-3.4,0.8
				c-1.3,0.6-2.8,1.7-2.8,2.8C604.9,222.2,605.6,222.4,606.2,222.6z"/>
			<path class="st16" d="M606.2,222.6c0,0,1.8-0.6,3.7-1.6c1.8-1,4-1.3,4.3-0.6c0.4,0.7-0.3,1.9-1.1,2.3c-0.9,0.4-3.6,1.3-4.7,1.6
				C607.4,224.4,605.9,224.1,606.2,222.6z"/>
			<path class="st16" d="M612.7,227.1l1.1-1.6c0,0,2.8-0.1,3.5-1c0.8-0.9-1.7-1.3-2.8-1.4c-1.1-0.1-3.8,0.7-3.8,0.7s-1.3,3-1.2,3.5
				s1.4,1.4,2,1.5s2,0.5,2,0.5"/>
		</g>
		<g>
			<path class="st1" d="M659.6,178.6c0,0-10.8,7.5-15.8,14.8c-5,7.3-7.9,21.9-9.3,29.9c-1.4,8-1,21.3-1.8,24.8
				c-0.8,3.5-1.2,4.6-0.6,6.1c0.7,1.5,1.4,2.1,1.4,2.1s-1.2,4.3-1.2,5c0,0.7,0.7,1.9,0.7,1.9s6.9-4.4,11.1-5.1
				c4.2-0.7,10.8,0.7,17.2,1.1c6.4,0.4,9,0.3,10,0c1-0.3-2.2-5.1-2.4-5.8c-0.1-0.7,3-0.4,3.2-3.6c0.1-3.2,0.3-4,0.1-6.4
				c-0.1-2.4-0.3-18.7-0.3-18.7s2.2-25.1,1.1-29.5c-1.1-4.4-0.4-8.4-3.7-11.2C666,181.2,659.6,178.6,659.6,178.6z"/>
			<path class="st11" d="M667.4,252.4c0,0-17.1-1.9-20.1-1.8c-3,0.1-11.8,4.7-11.8,4.7"/>
			<path class="st11" d="M659.2,240.7c0,0-7.6,0.4-5.6,1.5c1.9,1.1,7.7,3.3,7.7,3.3"/>
		</g>
		<g>
			<path class="st19" d="M671.6,190c0,0,1.1-0.8,2.9-2.2c1.8-1.4,7.3-1.8,7.3-1.8s1.7-5.1,2.8-5.6c1.1-0.6,5.2-1,5.8,1.4
				c0.6,2.3-0.4,6.6-0.4,6.6s5.5,7.6,6.3,9c0.8,1.4,3,0.8,2.6,4.5c-0.4,3.7-1.1,10.9-1.4,13.2c-0.3,2.3,0.1,4.4-1,5.5
				c-1.1,1.1-2.3,0.8-2.3,0.8l-0.4,2.1c0,0,1.4-0.3,2.1,2.3c0.7,2.6-0.4,7.3-1.4,10.7c-1,3.4-1.4,6.5-3.2,8.8
				c-1.8,2.3-3.4,1.8-3.4,1.8s-6.1,3.4-9,4c-2.9,0.6-8.3-0.1-11.7-2.6c-3.4-2.5-4.4-5-5.5-7.3c-1.1-2.3-2.6-6.7-2.8-9.9
				c-0.1-3.2,0.4-5.4,0.6-5.8c0.1-0.4,5.4-10.9,7.3-19.4C668.7,197.5,671.6,190,671.6,190z"/>
			<path class="st11" d="M695.7,199.5c0,0-3.2-0.8-3.7,0.6c-0.6,1.4-3.2,18.6-2.5,20c0.7,1.4,3.3,1.2,3.3,1.2"/>
			<path class="st11" d="M692.3,223.6c0,0-2.8-1.7-3.4,0.4c-0.7,2.1-6.6,19.8-5.9,20.9c0.7,1.1,2.6,1.8,3,1.9"/>
			<polyline class="st11" points="689.4,183.1 687.2,188 682.8,187.1 			"/>
			<path class="st8" d="M680.2,250.2c0,0-1.2,0-1.1-3.4c0.1-3.4,1-5.4,1-5.4l-14.7-5.8c0,0-2.1,3-2.3,4.5c-0.3,1.5,0.6,3.8,2.5,6.3
				c2.1,2.8,6,4.1,10.1,3.7C679.1,249.9,680.2,250.2,680.2,250.2z"/>
		</g>
		<path class="st19" d="M675.9,187.9c0,0-4.8-4.7-9.6-6.9c-4.8-2.2-6.7-2.2-8.4-1c-1.7,1.2-18,15.6-19.1,19
			c-1.1,3.4-1.5,7.4-1.5,7.4s13.2-18.6,17.6-21.1c4.4-2.5,6.2-3.2,9.2-3c3,0.1,9.6,8.1,9.6,8.1L675.9,187.9z"/>
		<path class="st16" d="M643,208.5c0,0,1.1-5.7,0.8-7.1c-0.3-1.4-2.5-2.5-2.5-2.5s-2.6-1.8-3.7-2.4c-1.1-0.6-1.7,0-1.9,1
			c-0.3,1,0.1,1.7,0.1,1.7s-2.5,2.4-2.9,4.6c-0.4,2.2-1.2,3.9-0.3,5.8c1,1.9,5.1,5.5,5.1,5.5l2.4-0.7L643,208.5z"/>
		<path class="st1" d="M665.4,183c0,0,6,1.9,7.1,6.2c1.1,4.3,4,28.4,4,35.5c0,7.1-2.9,8.6-4.7,8.9c-1.8,0.3-17.2-5.7-23-9.1
			c-5.8-3.5-11.1-9.3-11.1-9.3s0.6-3,1.8-4.6c1.2-1.5,3.5-2.1,3.5-2.1s5.5,3.7,8.6,4.6c3,0.8,7.9,1.7,7.9,1.7l-6-15.9
			c0,0-2.2-6.2,0.8-9.6"/>
		<path class="st11" d="M671,222.5c0,0-0.8-2.2-3.3-4.4c-2.5-2.2-6.4-3.6-6.4-3.6"/>
	</g>
</g>
<g id="Floor">
</g>
</svg>
