<svg width="50" height="48" viewBox="0 0 50 48" fill="none" xmlns="http://www.w3.org/2000/svg">
<g clip-path="url(#clip0_202_2850)">
<path d="M46.5208 33.4704C46.5208 34.1379 45.9208 34.424 45.2208 34.7101C42.4208 35.8544 39.4208 36.9033 36.2208 36.9033C31.7208 36.9033 29.6208 34.2333 24.2208 34.2333C20.3208 34.2333 16.2208 35.5683 12.9208 36.9986C12.7208 37.094 12.5208 37.094 12.3208 37.1894V44.4365C12.3208 46.4298 10.7464 47.6787 9.02078 47.6787C7.12078 47.6787 5.62078 46.2483 5.62078 44.4365V9.53573C4.32078 8.58216 3.42078 7.05644 3.42078 5.34001C3.42078 2.38393 5.92078 0 9.02078 0C12.1208 0 14.6208 2.38393 14.6208 5.34001C14.6208 7.05644 13.8208 8.58216 12.4208 9.53573V12.4918C12.8235 12.3639 18.1598 9.82181 23.6208 9.82181C29.9948 9.82181 33.1594 12.3965 36.0208 12.3965C39.8208 12.3965 44.0208 9.82181 45.0208 9.82181C45.8208 9.82181 46.5208 10.3939 46.5208 11.0615V33.4704Z" fill="#B42929"/>
</g>
<defs>
<clipPath id="clip0_202_2850">
<rect width="50" height="47.6787" fill="white"/>
</clipPath>
</defs>
</svg>
