<svg width="16" height="16" viewBox="0 0 16 16" fill="none" xmlns="http://www.w3.org/2000/svg">
<path d="M14.4468 9.53337L14.1802 12.8667C14.0802 13.8867 14.0002 14.6667 12.1935 14.6667H3.80684C2.00017 14.6667 1.92017 13.8867 1.82017 12.8667L1.5535 9.53337C1.50017 8.98004 1.6735 8.46671 1.98684 8.07337C1.9935 8.06671 1.9935 8.06671 2.00017 8.06004C2.36684 7.61337 2.92017 7.33337 3.54017 7.33337H12.4602C13.0802 7.33337 13.6268 7.61337 13.9868 8.04671C13.9935 8.05337 14.0002 8.06004 14.0002 8.06671C14.3268 8.46004 14.5068 8.97337 14.4468 9.53337Z" stroke="#202020" stroke-width="1.5" stroke-miterlimit="10"/>
<path d="M2.3335 7.62V4.18667C2.3335 1.92 2.90016 1.35333 5.16683 1.35333H6.0135C6.86016 1.35333 7.0535 1.60667 7.3735 2.03333L8.22016 3.16667C8.4335 3.44667 8.56016 3.62 9.12683 3.62H10.8268C13.0935 3.62 13.6602 4.18667 13.6602 6.45333V7.64667" stroke="#202020" stroke-width="1.5" stroke-miterlimit="10" stroke-linecap="round" stroke-linejoin="round"/>
<path d="M6.28662 11.3334H9.71329" stroke="#202020" stroke-width="1.5" stroke-miterlimit="10" stroke-linecap="round" stroke-linejoin="round"/>
</svg>
