<svg width="251" height="51" viewBox="0 0 251 51" fill="none" xmlns="http://www.w3.org/2000/svg">
<path d="M1.41992 15.5654C1.41992 10.3223 5.82376 5.92392 10.9956 5.92392C13.5815 5.92392 15.973 7.01138 17.7131 8.77849L16.2744 10.2446C14.9133 8.80762 13.0371 7.88523 10.9956 7.88523C6.97089 7.88523 3.56837 11.4195 3.56837 15.5751C3.56837 19.7599 6.97089 23.2844 10.9956 23.2844C13.0371 23.2844 14.9133 22.362 16.2744 20.925L17.7131 22.3911C15.973 24.1291 13.5815 25.2457 10.9956 25.2457C5.82376 25.236 1.41992 20.8085 1.41992 15.5654Z" fill="black"/>
<path d="M19.9102 15.5654C19.9102 10.3223 24.314 5.92392 29.4858 5.92392C32.0717 5.92392 34.4632 7.01138 36.2034 8.77849L34.7646 10.2446C33.4036 8.80762 31.5273 7.88523 29.4858 7.88523C25.4611 7.88523 22.0586 11.4195 22.0586 15.5751C22.0586 19.7599 25.4611 23.2844 29.4858 23.2844C31.5273 23.2844 33.4036 22.362 34.7646 20.925L36.2034 22.3911C34.4632 24.1291 32.0717 25.2457 29.4858 25.2457C24.314 25.236 19.9102 20.8085 19.9102 15.5654Z" fill="black"/>
<path d="M39.1284 6.25447H41.2477V24.9063H39.1284V6.25447Z" fill="black"/>
<path d="M104.554 16.972C104.554 13.4766 107.49 10.5443 110.931 10.5443C112.652 10.5443 114.247 11.2725 115.413 12.4474L114.451 13.428C113.547 12.4668 112.292 11.8551 110.931 11.8551C108.248 11.8551 105.983 14.2048 105.983 16.9817C105.983 19.7683 108.248 22.1277 110.931 22.1277C112.292 22.1277 113.547 21.516 114.451 20.5547L115.413 21.5354C114.256 22.6908 112.662 23.4384 110.931 23.4384C107.49 23.419 104.554 20.4674 104.554 16.972Z" fill="black" stroke="black" stroke-width="1.0713" stroke-miterlimit="10"/>
<path d="M116.607 16.972C116.607 13.4766 119.543 10.5443 122.985 10.5443C126.446 10.5443 129.343 13.4766 129.343 16.972C129.343 20.4674 126.446 23.419 122.985 23.419C119.543 23.419 116.607 20.4674 116.607 16.972ZM127.923 16.972C127.923 14.2048 125.678 11.8454 122.994 11.8454C120.311 11.8454 118.046 14.1951 118.046 16.972C118.046 19.7586 120.311 22.118 122.994 22.118C125.678 22.118 127.923 19.7586 127.923 16.972Z" fill="black" stroke="black" stroke-width="1.0713" stroke-miterlimit="10"/>
<path d="M143.401 10.7675L137.909 23.2053H136.373L130.88 10.7675H132.416L137.15 21.4673L141.865 10.7675H143.401Z" fill="black" stroke="black" stroke-width="1.0713" stroke-miterlimit="10"/>
<path d="M144.928 16.972C144.928 13.4766 147.864 10.5443 151.306 10.5443C154.766 10.5443 157.663 13.4766 157.663 16.972C157.663 20.4674 154.766 23.419 151.306 23.419C147.864 23.419 144.928 20.4674 144.928 16.972ZM156.234 16.972C156.234 14.2048 153.989 11.8454 151.306 11.8454C148.622 11.8454 146.357 14.1951 146.357 16.972C146.357 19.7586 148.622 22.118 151.306 22.118C153.989 22.118 156.234 19.7586 156.234 16.972Z" fill="black" stroke="black" stroke-width="1.0713" stroke-miterlimit="10"/>
<path d="M160.043 10.7675H161.453V23.2053H160.043V10.7675Z" fill="black" stroke="black" stroke-width="1.0713" stroke-miterlimit="10"/>
<path d="M167.89 12.1074H163.7V10.7675H173.49V12.1074H169.3V23.2053H167.89V12.1074Z" fill="black" stroke="black" stroke-width="1.0713" stroke-miterlimit="10"/>
<path d="M175.87 18.04V10.7579H177.28V18.04C177.28 20.4285 178.855 22.1277 181.071 22.1277C183.288 22.1277 184.862 20.4285 184.862 18.04V10.7579H186.272V18.04C186.272 21.1859 184.114 23.419 181.071 23.419C178.028 23.419 175.87 21.1956 175.87 18.04Z" fill="black" stroke="black" stroke-width="1.0713" stroke-miterlimit="10"/>
<path d="M195.518 18.603L198.746 23.2053H197.132L193.982 18.7292H190.686V23.2053H189.267V10.7675H194.322C196.898 10.7675 198.911 12.4181 198.911 14.7483C198.911 16.6999 197.491 18.1855 195.518 18.603ZM190.677 17.3893H194.07C196.101 17.3893 197.482 16.4087 197.482 14.7483C197.482 13.0783 196.101 12.1074 194.07 12.1074H190.677V17.3893Z" fill="black" stroke="black" stroke-width="1.0713" stroke-miterlimit="10"/>
<path d="M209.925 20.3798H202.983L201.729 23.2053H200.193L205.686 10.7675H207.222L212.715 23.2053H211.179L209.925 20.3798ZM209.351 19.0399L206.473 12.5055L203.576 19.0399H209.351Z" fill="black" stroke="black" stroke-width="1.0713" stroke-miterlimit="10"/>
<path d="M220.132 16.6514H225.119V21.5255C223.963 22.681 221.999 23.4286 220.278 23.4286C216.837 23.4286 213.901 20.4769 213.901 16.9815C213.901 13.4861 216.837 10.5539 220.278 10.5539C221.999 10.5539 223.963 11.2821 225.119 12.4569L224.157 13.4376C223.253 12.4763 221.639 11.8646 220.278 11.8646C217.595 11.8646 215.33 14.2143 215.33 16.9912C215.33 19.7778 217.595 22.1372 220.278 22.1372C221.435 22.1372 222.777 21.6809 223.7 20.9818V18.0107H220.132V16.6514Z" fill="black" stroke="black" stroke-width="1.0713" stroke-miterlimit="10"/>
<path d="M229.321 12.1074V16.195H236.087V17.5349H229.321V21.8654H236.826V23.2053H227.892V10.7675H236.826V12.1074H229.321Z" fill="black" stroke="black" stroke-width="1.0713" stroke-miterlimit="10"/>
<path d="M100.4 45.286H96.3457L95.6165 46.9366H94.7222L97.9303 39.6836H98.8246L102.033 46.9366H101.138L100.4 45.286ZM100.069 44.5092L98.3872 40.6934L96.6956 44.5092H100.069Z" fill="black"/>
<path d="M107.876 46.1596V46.9461H103.083V39.6932H103.909V46.1694H107.876V46.1596Z" fill="black"/>
<path d="M108.723 45.8975L109.238 45.2567C109.85 45.8684 110.599 46.3053 111.62 46.3053C112.738 46.3053 113.311 45.6936 113.311 45.0334C113.311 44.2664 112.621 43.9556 111.357 43.6644C109.899 43.3245 108.975 42.8682 108.975 41.6157C108.975 40.4505 110.016 39.5476 111.406 39.5476C112.485 39.5476 113.292 39.9748 113.953 40.5865L113.447 41.2273C112.845 40.6447 112.125 40.2952 111.367 40.2952C110.473 40.2952 109.811 40.8875 109.811 41.5477C109.811 42.2953 110.531 42.5575 111.765 42.8585C113.156 43.1886 114.147 43.6838 114.147 44.9654C114.147 46.1209 113.282 47.053 111.591 47.053C110.395 47.053 109.452 46.6257 108.723 45.8975Z" fill="black"/>
<path d="M120.739 45.286H116.685L115.956 46.9366H115.062L118.27 39.6836H119.164L122.373 46.9366H121.478L120.739 45.286ZM120.399 44.5092L118.717 40.6934L117.026 44.5092H120.399Z" fill="black"/>
<path d="M123.256 43.305C123.256 41.266 124.967 39.5571 126.979 39.5571C127.98 39.5571 128.914 39.9843 129.594 40.664L129.03 41.2368C128.505 40.6737 127.776 40.3144 126.979 40.3144C125.414 40.3144 124.092 41.6835 124.092 43.305C124.092 44.9361 125.414 46.3052 126.979 46.3052C127.776 46.3052 128.505 45.9459 129.03 45.3828L129.594 45.9556C128.914 46.6353 127.99 47.0625 126.979 47.0625C124.967 47.0625 123.256 45.3439 123.256 43.305Z" fill="black"/>
<path d="M131.569 40.4602V42.8487H135.516V43.6352H131.569V46.1596H135.944V46.9461H130.733V39.6932H135.944V40.4796H131.569V40.4602Z" fill="black"/>
<path d="M61.6534 8.36095C61.6534 8.36095 64.3852 1.3216 67.2433 1.00119H84.1392C84.1392 1.00119 87.0654 1.57405 89.661 8.36095C89.661 8.36095 90.361 7.91431 90.2929 7.66187C90.2249 7.40942 90.361 7.91431 90.361 7.91431C90.361 7.91431 89.9138 6.33167 91.2456 6.45789L93.2774 6.65208C93.2774 6.65208 94.4829 7.72983 93.2774 7.98228C93.2774 7.98228 92.5191 8.36095 91.4984 8.36095C91.4984 8.36095 90.7401 8.73961 91.1192 9.11828C91.1192 9.11828 92.3928 9.56491 92.3247 9.94358L93.5302 12.6719L93.8121 23.2067L93.4621 23.7795V25.6146L92.8886 26.6924H88.5042L88.4361 24.8573L63.2186 24.6631L63.1797 26.6924H58.2898L57.5898 22.8863V13.0506L58.737 10.4485C58.737 10.4485 59.4369 9.05031 60.3896 9.17654C60.3896 9.17654 60.8951 8.85613 60.0105 8.47746L57.9106 8.03082C57.9106 8.03082 57.0843 6.82685 58.4162 6.63266L60.2535 6.50644C60.2535 6.50644 61.2062 6.57441 61.1382 7.33175C61.1479 7.34145 61.1479 8.23472 61.6534 8.36095Z" fill="#6D46A4" stroke="black" stroke-width="0.535648" stroke-miterlimit="10"/>
<path d="M68.1969 1.95253C68.1969 1.95253 65.0179 2.58364 62.7334 9.69095H88.6509C88.6509 9.69095 86.8719 2.90405 83.3818 1.95253H68.1969Z" fill="#FDFDFD" stroke="black" stroke-width="0.535648" stroke-miterlimit="10"/>
<path d="M59.4952 11.6527L65.717 14.2548C65.717 14.2548 65.717 15.9054 63.0533 16.0317C63.0533 16.0317 61.4007 15.8375 58.737 13.847C58.7273 13.847 58.737 11.342 59.4952 11.6527Z" fill="white" stroke="black" stroke-width="0.535648" stroke-miterlimit="10"/>
<path d="M85.5962 14.3227L91.7985 11.6332C91.7985 11.6332 92.7804 11.5944 92.4596 13.9441C92.4596 13.9441 90.9333 15.3422 89.9806 15.5947C89.9806 15.585 86.8017 17.0511 85.5962 14.3227Z" fill="white" stroke="black" stroke-width="0.535648" stroke-miterlimit="10"/>
<path d="M68.9531 3.9814C68.9531 3.9814 70.5377 1.25305 72.1321 3.9814V5.81648C72.1321 5.81648 70.8002 8.54484 68.9531 5.81648V3.9814Z" stroke="black" stroke-width="0.535648" stroke-miterlimit="10"/>
<path d="M69.4014 7.03059C69.4014 7.03059 67.428 6.96262 67.0488 9.05015H73.9705C73.9705 9.05015 74.2233 7.03059 71.8124 7.03059C71.8124 7.03059 70.8013 8.24427 69.4014 7.03059Z" stroke="black" stroke-width="0.535648" stroke-miterlimit="10"/>
<path d="M79.6856 7.03059C79.6856 7.03059 77.7121 6.96262 77.333 9.05015H84.2547C84.2547 9.05015 84.5075 7.03059 82.0965 7.03059C82.1063 7.03059 81.0855 8.24427 79.6856 7.03059Z" stroke="black" stroke-width="0.535648" stroke-miterlimit="10"/>
<path d="M79.2212 3.9814C79.2212 3.9814 80.8058 1.25305 82.4001 3.9814V5.81648C82.4001 5.81648 81.0683 8.54484 79.2212 5.81648V3.9814Z" stroke="black" stroke-width="0.535648" stroke-miterlimit="10"/>
<path d="M81.7569 17.2063H69.7217V17.8762H81.7569V17.2063Z" fill="white" stroke="black" stroke-width="0.535648" stroke-miterlimit="10"/>
<path d="M81.7569 18.2552H69.7217V18.9252H81.7569V18.2552Z" fill="white" stroke="black" stroke-width="0.535648" stroke-miterlimit="10"/>
<path d="M81.7569 19.4295H69.7217V20.0995H81.7569V19.4295Z" fill="white" stroke="black" stroke-width="0.535648" stroke-miterlimit="10"/>
<path d="M144.394 45.0523H232.169" stroke="black" stroke-width="0.535648" stroke-miterlimit="10"/>
<path d="M7.7666 45.0523H88.4647" stroke="black" stroke-width="0.535648" stroke-miterlimit="10"/>
</svg>
