<svg width="13" height="13" viewBox="0 0 13 13" fill="none" xmlns="http://www.w3.org/2000/svg">
<path d="M12.9989 0.940334C12.999 1.09524 12.9703 1.24775 12.9155 1.38433C12.8607 1.52091 12.7815 1.63732 12.6848 1.72322L6.49967 7.22222L0.314557 1.72322C0.188474 1.61136 0.0927458 1.44835 0.0415379 1.2583C-0.00966994 1.06825 -0.0136369 0.861272 0.0302242 0.667986C0.0740853 0.474699 0.163444 0.305376 0.285077 0.185073C0.40671 0.0647698 0.554156 -0.000121969 0.705595 1.72107e-07H12.2948C12.6848 1.72107e-07 13 0.421778 13 0.940334H12.9989ZM12.9989 4.28567V11.5556C12.9989 11.9386 12.8848 12.306 12.6817 12.5769C12.4785 12.8478 12.203 13 11.9157 13H1.08363C0.79635 13 0.520831 12.8478 0.317691 12.5769C0.11455 12.306 0.000426548 11.9386 0.000426548 11.5556V4.28567C0.000426548 3.99678 0.241982 3.82489 0.421794 3.98522L6.49967 9.38889L12.5775 3.98667C12.6183 3.95035 12.6656 3.92944 12.7145 3.92616C12.7634 3.92288 12.8121 3.93735 12.8553 3.96803C12.8986 3.99871 12.9348 4.04445 12.96 4.10039C12.9853 4.15632 12.9988 4.22036 12.9989 4.28567Z" fill="black"/>
</svg>
