<svg width="34" height="27" viewBox="0 0 34 27" fill="none" xmlns="http://www.w3.org/2000/svg">
<path d="M12.3493 13.1841C15.9401 13.1841 18.8503 10.3049 18.8503 6.75226C18.8503 3.19965 15.9401 0.320374 12.3493 0.320374C8.75857 0.320374 5.84838 3.19965 5.84838 6.75226C5.84838 10.3049 8.75857 13.1841 12.3493 13.1841ZM16.9 14.7921H16.0518C14.9243 15.3047 13.6698 15.5961 12.3493 15.5961C11.0288 15.5961 9.77943 15.3047 8.64684 14.7921H7.79867C4.03014 14.7921 0.972656 17.8171 0.972656 21.5456V23.636C0.972656 24.9676 2.06461 26.0479 3.41052 26.0479H17.3723C17.2505 25.7062 17.1997 25.3444 17.2403 24.9776L17.5857 21.9174L17.6466 21.3597L18.0478 20.9627L21.9738 17.0785C20.7295 15.6866 18.9265 14.7921 16.9 14.7921ZM19.2007 22.0933L18.8554 25.1585C18.7995 25.671 19.2363 26.1032 19.7493 26.0429L22.8423 25.7012L29.8461 18.7718L26.2045 15.169L19.2007 22.0933ZM33.1219 13.8324L31.197 11.9279C30.7247 11.4606 29.9527 11.4606 29.4804 11.9279L27.5606 13.8273L27.3523 14.0334L30.999 17.6362L33.1219 15.5358C33.5943 15.0635 33.5943 14.3047 33.1219 13.8324Z" fill="#42C0FF"/>
</svg>
