<svg width="16" height="17" viewBox="0 0 16 17" fill="none" xmlns="http://www.w3.org/2000/svg">
<path d="M12.0002 5.27332C11.9602 5.26665 11.9135 5.26665 11.8735 5.27332C10.9535 5.23998 10.2202 4.48665 10.2202 3.55331C10.2202 2.59998 10.9869 1.83331 11.9402 1.83331C12.8935 1.83331 13.6602 2.60665 13.6602 3.55331C13.6535 4.48665 12.9202 5.23998 12.0002 5.27332Z" stroke="black" stroke-width="1.5" stroke-linecap="round" stroke-linejoin="round"/>
<path d="M11.3135 10.1266C12.2268 10.28 13.2335 10.12 13.9401 9.64663C14.8801 9.01996 14.8801 7.9933 13.9401 7.36663C13.2268 6.8933 12.2068 6.73329 11.2935 6.89329" stroke="black" stroke-width="1.5" stroke-linecap="round" stroke-linejoin="round"/>
<path d="M3.97983 5.27332C4.01983 5.26665 4.06649 5.26665 4.10649 5.27332C5.02649 5.23998 5.75982 4.48665 5.75982 3.55331C5.75982 2.59998 4.99316 1.83331 4.03983 1.83331C3.08649 1.83331 2.31982 2.60665 2.31982 3.55331C2.32649 4.48665 3.05983 5.23998 3.97983 5.27332Z" stroke="black" stroke-width="1.5" stroke-linecap="round" stroke-linejoin="round"/>
<path d="M4.66663 10.1266C3.75329 10.28 2.74663 10.12 2.03996 9.64663C1.09996 9.01996 1.09996 7.9933 2.03996 7.36663C2.75329 6.8933 3.77329 6.73329 4.68663 6.89329" stroke="black" stroke-width="1.5" stroke-linecap="round" stroke-linejoin="round"/>
<path d="M8.00021 10.2534C7.96021 10.2467 7.91355 10.2467 7.87355 10.2534C6.95355 10.22 6.22021 9.46669 6.22021 8.53336C6.22021 7.58002 6.98688 6.81335 7.94021 6.81335C8.89355 6.81335 9.66021 7.58669 9.66021 8.53336C9.65355 9.46669 8.92021 10.2267 8.00021 10.2534Z" stroke="black" stroke-width="1.5" stroke-linecap="round" stroke-linejoin="round"/>
<path d="M6.05998 12.3534C5.11998 12.98 5.11998 14.0067 6.05998 14.6334C7.12665 15.3467 8.87331 15.3467 9.93998 14.6334C10.88 14.0067 10.88 12.98 9.93998 12.3534C8.87998 11.6467 7.12665 11.6467 6.05998 12.3534Z" stroke="black" stroke-width="1.5" stroke-linecap="round" stroke-linejoin="round"/>
</svg>
