<svg width="24" height="27" viewBox="0 0 24 27" fill="none" xmlns="http://www.w3.org/2000/svg">
<path d="M2.33084 23.6365C2.33084 24.2762 2.5877 24.8897 3.04489 25.3421C3.50209 25.7944 4.12219 26.0485 4.76876 26.0485H19.3963C20.0428 26.0485 20.6629 25.7944 21.1201 25.3421C21.5773 24.8897 21.8342 24.2762 21.8342 23.6365V6.75242H2.33084V23.6365ZM16.1457 10.7724C16.1457 10.5592 16.2313 10.3547 16.3837 10.2039C16.5361 10.0531 16.7428 9.96844 16.9584 9.96844C17.1739 9.96844 17.3806 10.0531 17.533 10.2039C17.6854 10.3547 17.771 10.5592 17.771 10.7724V22.0285C17.771 22.2417 17.6854 22.4462 17.533 22.597C17.3806 22.7478 17.1739 22.8325 16.9584 22.8325C16.7428 22.8325 16.5361 22.7478 16.3837 22.597C16.2313 22.4462 16.1457 22.2417 16.1457 22.0285V10.7724ZM11.2699 10.7724C11.2699 10.5592 11.3555 10.3547 11.5079 10.2039C11.6603 10.0531 11.867 9.96844 12.0825 9.96844C12.298 9.96844 12.5047 10.0531 12.6571 10.2039C12.8095 10.3547 12.8952 10.5592 12.8952 10.7724V22.0285C12.8952 22.2417 12.8095 22.4462 12.6571 22.597C12.5047 22.7478 12.298 22.8325 12.0825 22.8325C11.867 22.8325 11.6603 22.7478 11.5079 22.597C11.3555 22.4462 11.2699 22.2417 11.2699 22.0285V10.7724ZM6.39404 10.7724C6.39404 10.5592 6.47966 10.3547 6.63206 10.2039C6.78446 10.0531 6.99116 9.96844 7.20668 9.96844C7.42221 9.96844 7.6289 10.0531 7.7813 10.2039C7.9337 10.3547 8.01932 10.5592 8.01932 10.7724V22.0285C8.01932 22.2417 7.9337 22.4462 7.7813 22.597C7.6289 22.7478 7.42221 22.8325 7.20668 22.8325C6.99116 22.8325 6.78446 22.7478 6.63206 22.597C6.47966 22.4462 6.39404 22.2417 6.39404 22.0285V10.7724ZM22.6468 1.92839H16.552L16.0746 0.988711C15.9735 0.787818 15.8177 0.61883 15.6248 0.50076C15.4319 0.38269 15.2095 0.320221 14.9826 0.320382H9.17733C8.951 0.319522 8.729 0.381757 8.53677 0.499959C8.34454 0.61816 8.18985 0.787546 8.09043 0.988711L7.613 1.92839H1.51821C1.30268 1.92839 1.09598 2.0131 0.943583 2.16388C0.791184 2.31466 0.705566 2.51916 0.705566 2.7324L0.705566 4.3404C0.705566 4.55364 0.791184 4.75814 0.943583 4.90892C1.09598 5.0597 1.30268 5.14441 1.51821 5.14441H22.6468C22.8624 5.14441 23.069 5.0597 23.2214 4.90892C23.3738 4.75814 23.4595 4.55364 23.4595 4.3404V2.7324C23.4595 2.51916 23.3738 2.31466 23.2214 2.16388C23.069 2.0131 22.8624 1.92839 22.6468 1.92839Z" fill="#FE0101"/>
</svg>
